<mxfile host="app.diagrams.net" modified="2020-07-09T14:17:17.771Z" agent="5.0 (Windows NT 10.0; Win64; x64) AppleWebKit/537.36 (KHTML, like Gecko) Chrome/83.0.4103.116 Safari/537.36" etag="BDOPcuNbt_zyb8O2dIH4" version="13.4.0" type="github">
  <diagram id="5p_AjxdSXnwjG28Vk8ec" name="Page-1">
    <mxGraphModel dx="1422" dy="762" grid="1" gridSize="10" guides="1" tooltips="1" connect="1" arrows="1" fold="1" page="1" pageScale="1" pageWidth="827" pageHeight="1169" math="0" shadow="0">
      <root>
        <mxCell id="0" />
        <mxCell id="1" parent="0" />
        <mxCell id="DLHE4XkezJhi1BGZX2a6-1" value="" style="shape=image;verticalLabelPosition=bottom;labelBackgroundColor=#ffffff;verticalAlign=top;aspect=fixed;imageAspect=0;image=data:image/png,iVBORw0KGgoAAAANSUhEUgAAAbwAAACVCAYAAAAjZE+VAAAgAElEQVR4AeydBViV1x/H/a91Op1z07WbPWeLLTZioNhz5nQ6c7azZ8ye3Z0YszswUAwQQQVFkO5ubsfn/7wvgoAXuYCoeN/7PAfee97znvie372fe7oQ0ktSQFJAUkBSQFLABBQoZAJllIooKSApICkgKSApgAQ8yQgkBSQFJAUkBUxCAQl4JlHNUiElBSQFJAUkBSTgSTYgKSApICkgKWASCkjAM4lqlgopKSApICkgKSABT7IBSQFJAUkBSQGTUEACnklUs1RISQFJAUkBSQEJeJINSApICkgKSAqYhAIS8EyimqVC5kQBrUrF+R5duNSvd57dhZ5dudSnV57j2TOnP/PPjGDRuT/z5Jb9N4ILRpTNtu8v2eZZ0EgRE5MTaV97WL1e/9rzkB8ZeFvL9bK1koD3shWV4ivwCgjAuzqoP0qXu3l2jpPGEX3udJ7juXl9J4edt/Eo/GGe3AP3G9wcNTzb/CicnbINYz/iDwl4b4i1S8AzriIk4BmnkxTKhBSQgHcXCXgFy+Al4BlXXxLwjNNJCmVCCkjAk4BX0MxdAp5xNSYBzzidpFAmpIAEPAl4Bc3cJeAZV2MS8IzTSQplQgpIwJOAV9DMXQKecTUmAc84naRQJqSABDwJeAXN3CXgGVdjEvCM00kKZUIKSMCTgFfQzF0CnnE1JgHPOJ2kUCakgAQ8CXgFzdwl4BlXYxLwjNNJCmVCCkjAk4BX0MxdAp5xNSYBzzidpFAmpIAEPAl4Bc3cJeAZV2MS8IzTSQplQgpIwJOAV9DMXQKecTUmAc84naRQJqSABDwJeAXN3CXgGVdjEvCM00kKZUIKSMCTgFfQzF0CnnE1JgHPOJ2kUCakgAQ8CXgFzdwl4BlXYxLwjNNJCmVCCkjAk4BX0MxdAp5xNSYBzzidpFAmpIAEPAl4Bc3cJeAZV2MS8IzTSQplQgpIwJOAV9DMXQKecTUmAc84naRQJqSABDwJeAXN3CXgGVdjEvCM00kKZUIKSMCTgFfQzF0CnnE1JgHPOJ2kUCakgAQ8CXgFzdwl4BlXYxLwjNNJCmVCCkjAk4BX0MxdAp5xNSYBzzidpFAmpIAEPAl4Bc3cJeAZV2MS8IzTSQplQgpIwJOAV9DMXQKecTUmAc84naRQJqSABDwJeAXN3CXgGVdjEvCM00kKZUIKSMCTgFfQzF0CnnE1JgHPOJ2kUCakgAQ8CXgFzdwl4BlXYxLwjNMpV6H0qmT0sjh0iZHoonzTOT90CWHoZbHoNcpcxS09lH8KSMCTgJd/1pU/MUvAM05XCXjG6ZRtKL1WjS4xAm3gfTSPL6O+dxyV/WZUl1aiPLsQxcFxz9x/E1Cenovq0grUt3ajdj2NxssebbiHCMhsE5MC5KsCEvAk4OWrgeVD5BLwjBNVAp5xOhkMpdfr0CdGovG4iurmTpSn5qDY+RuylZbIFtZHNr+ucW5JE+TrrVHsG4nq/GLULkfQBj1Ar5IZTFfyzF8FJOBJwMtfC3v5sUvAM05TCXjG6fRcKG2oO6qbO1Aem4Z8QzdkixobBzdjILisJYpdg1HaLkPjYYdOFvdc+pJH/ikgAU8CXv5ZV/7ELAHPOF0l4BmnU1oobfgTVHYbUOz+Hdm/zV8e5AyBcFFD5Bu7ozg9T+wm1cnj0/IhXeSfAhLwJODln3XlT8wS8IzTVQKecTqhk8Wgdj6MfPdQZEub5S/oMsNvcSOxy1N5YhbaEDf0Wo2RuZaC5UYBCXgS8HJjN6/zGQl4xqkvAc8InbQhj1AenYZshQWyBfVeLezSw08A35ZfUDvtR69WGJFzKUhuFJCAJwHPWLvRKRSofL1QerqTZHtadAmnjxC7azPRG1cY7WJ3bSLh9OGUOOxsUXo+QuXjiSYuxqisSMAzSiYk4L1IJ60ajbstss29kC1q+PpAlx56883ErlTFiVnoFYkvyr10L5cKSMCTgJfZdLSJCSgeOJN4/iTRm1YSsXAmIWMHE/THrwQN7knQoB4E9ussuoC+nQjo3YGAXu2Md73bIzwnxtHfWowvaHAPgob2JnjUAMJnTyJ66xoSL51Fcf8umqhw9JpnPT0S8DLXmOH3EvAM6CIYjzBepr6x4+k4ndkbArt0sz4X1Ee+rR/aSG8kYzdQiXnwkoBnusDT63TotVoEwMluXSN6yypCxg0h4NeOBPzSHv9elvj3sMC/Wxv8u7Z6da5b65R0e1mK+RDyE/rXSGL3bEHucgedSiXmW8i/9MpaAQl4mbQRYZcQjvLcwjcPchlaek/ht7FbyrieRpWpJNLb3CogAc/0gCe0lrRJiSTZXyFi6Rz8e1q+Opi9BHD6dWtNxKJZJNnZirDWa9S5Nf+3+jkJeJmqV1g8rjy/OAewM0O2vDXyzb2yd+u7IFuQg/V5hgBnyG9jdzSPLiIsfpdeeVcgv4Anu3uHRyeOc/fggRy73TvmsezAHI5dPZqlO3n9JDfcb/Ao/GGW7oH7DW6OGo7S5e4LncLZ6YX3heftR/yBIsa4Maa818rLicFQb4hOlozM6Tbhf0/Ev2fbAgW61FamX5eWKfnu0ZbQKaNJtr+KLjn55Yj2FsUiAS9dZQoLvZUX/80B7OoiW9JU3E0lXTRZXgrbi8mENXuGoJUnPzPkO39D438XvdTSy1J/Y2/kF/AirttRs2pVmjdv/tKdubk5ZvXNGDVpFE4+dyTgZVHZmYGnUylJtD0jjpWlwqMg/k8D3tPWYuDvvUg4cxSdQp6FEqbpLQHvab0Lsx7Vdw8hW9woZ0DKCfCSY1FeXJaz+I0F4YJ6KPYOE3doQerHz9OnOb+AF2Z3hYoVK+Ypb1k9nJiYyIaNG2jRpjkb922QgJeFUJmBpwoOIHzRrALZqksP5szAE+6FzZmEwtcrCyVM01sC3tN61zy6IHZN5rj1lQPgCevnhG3I8m3B+qKGCGv1dDGBpmnNL6nUBRF4YWFhzJ49m9+H/M6fk0Zz9f4Vg9CTujT1Gawk4fFDvP4aiU9ql+BLGE9LD6JXdZ0ZeEJ5vCcOI97tXobymvobCXiALtxTnPEoE6b8G9uiSg2XA+AJxqaN9EFuMyLn6aSml93/5a1QXd+EPrlgja28SR/EggY8lUrFqVOnmDx5Mi4uLixcvIDFaxdxP/Dec9CTgJcReFFu97kxahC3LRvzxLpFgW3ppQeet3ULHNs1wX5YfyKc77xJH63XnheTB55OFi+eXCBbnMu9MHMIPL1ShurWzpxtLp0d5DLfX2uFxuOKtCNLLj9eBQl4QhddcnIyGzZsoFOnTtja2nLixAkmTJ3AsStHJeBlsoHMXZqxXp7YjhvO/ia1ON+qHnfaN+FJ5xakB8iraqXlJR0hvwLoXDo0xbZ1fQ40rc3ZYQOJdLufSQHTfmvywBOO5pGtbp/7FlcOgSeYm8b7NvJ11rlPMzPgDLxX/DcebWyQaVt3Lktf0ICn0Wjw9fVlx44dzJgxg+HDh2PdxZqZC2Zwy/NWBuhJLbyMLTx1chIPbXZi07452xvWEMF3orkZV9o0wLl9Uzw6N3+jW32enZvzoKM5N9o25HQLMw42rc3ORjWwsTTn3tYNKOOl/XfTfw2YNPC0Ub4oDvyZt6UCixujPPE32giv55xeZXiGlC4+VHwmx92nBsCWZRxLmop7f+pV0hZk6Q3emOuCBLz05VEoFHh4eIgtvNGjR9OyTUv2n90nAS+dSJlbeML6u+TwUNwP7eN4vx5sb1KbbQ1rsKtRTfY3qc1h8zqcfArAW5aNxRbUk9cEQaEF96hTMxHE1y0acrZlPY6Y1xEht6dRDTHfQt4Pdrbg/tb1yCIj0pVcuhQUMGngqRz2IFveMo8tLTNky1qKRwQJxwSld1pfB4PdinqdJmVG6L8t8ph2up1XDMBQWBuoiw2WLD2HChRU4KUWUxjTCwkJ4Zfev7B+zzoJeKnCwHO7Esn8fIhzuIEiIox4fz/c9u7g3PDf0sAnACQVgHsa18SmSS0RMAIIz7Q0w7ZVfW60bYQAQ1erZqJzs2pGTqHo0al52vNCy1KIT4jX7inYjjZLAdv+prXFPOxuVFNskabmb2vDGhzp1Qnn9SuJdHuAPDSYxPt3kfn7piu9dGmywNNF+qS07nIzUcUAXAy1tJTnl6CXG97vUhP0APmuwfkKPGGja7XLUWltXg4/5wUdeKnFHTx4MGt3rZGAlyqIAeBFP3yA54zxRK5YgNLnCerkROQx0UR7PsZ5wyrOD/+N/R1bprWeUgEj/Be6QHc8bQ0KLUIBiKlub+NaIpgEQBrjhPCpz+5uXFNsYQpx7swEtvTp7zCvy4m+3XFYMpfQO7fFFp0qMQGVnzdRa5fwZNpYou7dTVd66dIkgSd0a2hcjiJb3iZ/gbOqPdq4kOd+VQpmp1Mrcrijy4tbc4aAK/jJtw9EJ0+QLD0HCkjAM52txYRZmvfGDuFJ11YE9rcmYtFMZC6OaOUytAoFGrkMtUxGQmAgT479x+1Fczg/YhCHe3RkV8sG7Ghalx1N6ogtwu2Na5HqtjWqSW5c6vPi/yZ12NG0DgLY9rZpwumBvbCbPgG3nVsIdbyNPDoKjUyGVi5Hq5Ajd7tH1OrFYjm8urbi/qjfCJdmaWb45Jsk8HSJUSkzM41sqWUFE2P81Y77s9zyS+N2DvnaTvkL3fl10fpLv/IyWH02byTgmQ7wZBHhuC/9Bzcr8wyTUwIHdSdy2TwSz50UW37a2Bhxr01h5xJ96kbNej2y8FDCnRzxOnuSB5vXis5pxSIuT/4T27HDcuTsZ/2Fy9rlYhyP9u4g9PYNIpzvokpKRNzUWqUSd07RJiehjYsVjyVKvHCayJULCPq9V4b8u3U0x23eDJJDQ7KxdtO6bZLA0/jeQb65d76DRgCi4uC4LM+uExaIKw6MIVfr/3IAa8XRqaZl1XksrQQ80wGeYCre+3fjbPWC2ZjdWiMAMHzeFGJttpF4/gRyZweU3p6ogwNQhwWjiYlCGxcjgkiblCCCSYBjZiecxKBXq5/zF8IJm1cLIBPiEeJTh4WgDg1G5e+L/OED8WiiuH3biVgym6A/emc4sSHzMop7nZrhsWNjHj8Jb9/jJgc8YbcTldNBZAsbvBLgKQ9PRq9WZmk5qmub8v8E9eWtEfYJlV7GKSABz7SA53/xLPf7d83V2rvAIb8QMu53IpfMJmr1IqLWLEE8zPXkIRIMuOTb10m6etHgvdjdm8WxNyEeIb6Q8UMJ+XNQypFE2ewAkx54wvWDvtb4nDpqnMGbUCiTA57YnXlu0SuBnXCKgtbHQeyOyMqmtH6OyDf1yPf8aP2cssqC5J9JAQl4pgW8iHt3eTBmiLjgPC+Lv1/ns+mB52XdAtdRg6Txu0yfa+GtyQFPG+qOfNegfAeM0J2pOr84y1maqXUhtLwUhyYhzKg0Zkwwt2FU16TujVTNs/svAc+0gJcUGoLrnKk8tGqWYRzsdQIsp2mnB56wVs919l/ipJbsbN3U7psc8DQ+t5GtsMhXuAhQkm/oKp5coNdps7Up9Z0DyJa3ytc8yfcMzTYfUoAUBSTgmRbwtGo17htX42r9Ck8wz6aLMi/Ac7NuievqpdLH2YACpgU8nRbxVIT8OIQ1/SSShfVR2W9BpzC8Bi9zPehiApBv+TVfgSdb1S5zstL7LBTQabUE2V5AExGRZxdmfw25v68YT3JQELt27coi1ZfvLeyr+cD9PtGy6DQXFRNC6NUr2ZZLHR6ebZiQK5fRKArWTj6Zd1pJVd3r2CFc+3bG9yWcmiBMcInauJyE00eNcjE71hM0vG+eWpepLTzhv9uvVjw+sDu1aNL/dAqYFPCE7kP17T35CxahdbdrMNqQR+j1unRSZ30pTKRRnl2AbFEOz+JLD9nsrpe1QCftrZl1JRTQO3q9CmFnlZf9ygoMLzudVx1fVuUKc3LgwciBeHXO+4kJIWMGIXN2MLpoCs9HhE0f81KAJ2w/9mBoH4Jv3TA6fVMKaFrAUySivr4lf4En7GF5Z3+WSxGyMi6N901ky/KxW/Pf5uhCHmaV/FvjH+p6hX9G98TCwiKTG8rCNcfwCEs2sqx6tFoFyXI56iyfUHFxWRf6rbzNy0dOlomm3VCFOjC2cwesuvXgUkB2OVBxeWU3+iy7hUqZwI0zW5gwexHecZq0+NJfZAUGIUyc5ynGDZvLjcdhaDLuxSxGkRh8j3Vzl7DjiDPJ2ffop0/2uWudTotCkYxCkXUtPPfQCzyyKldSWAguf43BvdMLlicY2Q35OoEnbFHmPHEEsqjIF6hgurdMCni6hHDxgNTcTvww5jlh3Z1w5l1OX3q1HPnWvvkH4yVN0Ty6mGW2Hj16hFxueLPrLB96425o8Ty7mq5V3uPzH8pTr2kzmjVLcRXfK8qnn39Di47duReV/ZenXi3D5eI6ug4YhkNoVuEV7LIuwQ/WR8h64Un+ieS0riVfFH6XjqOX4hqVXW+CEpveJfm23wkU8hiObZpMY+u+3IkwXLaswCCUJuTWchpV68xRB1/UBoAX+/gMo6078Nfyk8TmCXh64v1c+bdDVyZNufuCHx7Ga5xVuXQaDfeX/sOjLnkfx3udwHvctTUui+ZgzNwB41V7e0KaFvCEUwqOTsk/qKxsi9rlWJbGpteo0MvisrQe1Y2t+Tdbc0kTccPqzIlfuXKFtm3bUq5cOXx8cg7qzPG93vdaPE8vp2vFckxYvA+fiAginroQP1+2Tm5K8e8qM+dK9scm6dVJ3Dn+DzWaWHIz2MC3ulhQPUkRgQRHyMgqRH7qcWZURT4pbM2D+GQ02fEOJTa9SvJt35cBvGUpwHMxDDytWk5MZDixCTK0eRJGT4yPC1Msfqb33JsvReOsgCfU08O9O3D/tWOeuhaFySavC3jC+J37r1YIu7RIL8MKSMDLbuwrB/eVx2egSzTclSDATv3oEsrT8wzurSlUjy4uhFwfRJtdPgXgOR1Ep9OJYz63bt2iXbt2fPLJJxQpUoTp06cTF5c1jA2bz5vmmwq8ykxbfY64dK0L4RdvoP0qin1bmZkXAoRt89EqonE6v4lBTWrwddVG9Jm0CnvPGNQaDT5XN2PVuBKflP6GrmMWccXuBifWb2TH7kP8t2osVcqO5OqTGG7sWs6Swy7o0aPTqQh8fIsF4zpSpWxFGlmNYftZF+KS1cS7nGT4yFGcfPhMY0XkEw6sWsrKnVcITtCgTgzg5IZJtCj9OV8068Hs9SfxjlGjew4aeh6d3UT5r0vyv/9VZ9SMdTj7RXFl30YWbbpEwtPw+ngPtsxezNFbnsg1CuOBp9chC3dlxfD2FPukOF+Xr87wf3bjGZKATq8n5JYAPCtWbNvHkv5tKFHyM8q2+4OTd/zR6ITttrw4snM/Z256Itcj/gCM973JipE9KPFpKdq2/529F5yIVWtTdNPKeHT9AAMb16TMJ59Qo2UPttveJynuCasHd6H8u0X5sXwXVmy7RHBS3mzuRcALvnmdB7//grd1yzxB73UBTxi/c+7fjaDrV/Mm0lv8tAS87EBh5H35xm5oHl8xaCrCh0yAmXBcj3zHQLTR/gbDCZ7Ko9PzpwW6pAny2zbcuXMHa2trPvjgA9555x0KFSrEl19+iZOTE4mJiQQFBYkuKSnlm0WYEBEZGUlgYCBRUVGo1SldYEJYwU8Ib2zY4ODgDGGF1ldqvMIhpsIrNV4hrHCSt/AS8mAobEJCgvj8s7CpwCvHlJWHCUtOFuMQ4omPCefcqgEU/6428+yC0SaHcnDmMH76uBjmHfswddwwalb+nnffMeecZwz3Tyzli88+4f2Sn1Hz1/HY/HeKcYM6UqjQBxT/9Au+/noAN3xC2dmxBD9YHUahU/Lk2jZ+rfURn9VtQa/x42jRrC7FPnifCVsukuh7ms8+KUaF0SdSugH1OjzPr6Fr9cKMW7KJ0GA3xjeowVclP6f7sBnMGNadUp+WoWbDCTyMzTzOpuL2trFU/aoI//uoAV1qjODyg8dsndqRdr0WEfy0l1Id6kiHFrWZvt+OBJXxwFPHODP4ow8p/UNlRsxfwZQJ/SlVvCiteo7ktm8CQbc20KjalxT6qDhlvurGjBkj+PLzknxbvhZrLvoT5XWO0d2FLs0TxGp1RDoeoML331OqzNeMmzODgVZlKP51FaxmnSROLeP23gk0rliEks37MHnB31T76Ufefe89ll+8y5wODSn20fuU+bYG05bsxy8eses9NDRUrPvY2FjxB6TwQy4mJkb0CwsLQzgbUHjJZDLShxXCabVag2EVMdE4jfsDjzxOXHldwHti3YJbw/ojjzb8o1sUxMT/mBTwhJMLZIcnv3ygCIfAnluIXmH456e4nZn908kyKyxQO+7Lcgan2v1SvnRrJi9uTMCpVQwYMIDPPvuM//3vfyLsBOAJfgI09u/fT7169WjcuDH//fef+NHw9PQUT9CuWbMmY8aMwc/PT/S3sbHBzMyMJk2acPjwYdFPOHx02LBhCGHHjRtHQECA6L93717q1KmDubk5R4+mbHfk7u7O0KFDxbDjx48Xv6iEwMK0/dq1a4tjb8ePHxeff/jwIUOGDBHDTpw4UcyrcGPnzp2iX4sWLTh58iSQCrxCNLDsyLS5s5kzZz7z589h1K+tKFToYyqZrcBfrSXg1mEGmH1Dr5FzeRKRiFqtIezuAap8+RlNl9xAp07G8dB8ajS15FaIDk20uwi8jz9rz9pDriSphD5EBbu6l+CHASdIiPZh618d+Kl5Z47dC0SjUSOPdGO2RR2K15yIe0QYm9t8xTflenIvXoNOGcGhpWOpUvMXNl16ws11o6ha5guWHrInWa5EmZzI5e1TKFOuDtNP+RjoztNxengFirffhpiTWF+2Tu1Mx17LCM8T8HQ4r+tBsWLfstEuUNRfK4/Bds1f1Py4EbOW3eTJzRTgffPbWrzjFeh1asLuHKLjp2Ww6LIRzycC8DozfflpEpShrDKvx6ef9MbWKw61WkVchCfLRppTo7U1ZxxvMH5gKz5t+gdHXEIQ0K4KsqNe7Ro0XONErK8zUztWo/eiW2kaXL16VfzRJtjZ4sWLxR9Ewg+luXPnivbQs2dPbt++LeZd6LK3srIS/ZcuXSr+YIuPj2f27Nmi3y+//IKDw7MZlbdm/cXjPI7jvTbgdW2Fw6xJYrmlP4YVMCngqWKCido77qUDT2i5aV5wIoE2JhBhmzFx0suCeiiOTkMnizVYI8LSCdkaq5eex6RFjYm5tkuExfz582nUqFEa+IoWLcqpU6fSWm8GM1YgPFOBV4TvK9SgWYuWtGyZ4lo0rU/ZT4pQyXIRAbJEbu1dglmh7+jcZwY2hw7x38HDHDm4htZflKRIqx0o1MncODSfak3bcj1ElQa8tmNX8Cg8dXLPM+CFPLFjonkhajRqwZrdBzl06CCHD+/l7+5VKVXYnAs+0XicmcV3Zcqy8KI/Cf4OzBrQlI5D5vEoMpB1PS0pU6gOM1dt5fDBgxw8eIhNSydQsUQVus2+bmDChjINeEJbRvHSgKfkRL9vKVF2IulHOkOc9vJ7i9pMXHKCh/ZraVStEpvt3FA87TaWR3mxYXAFWnZeiJv7M+DFhdygWf2fKNRwCJtthHIdZP+B3Uz9w4rSddsyb/sWhneuyZB/thCcNqVTRZCbMw99Y4j1dRCB12vRLQMa5NwoX9SlKcQmnBTu3qtdrvbVTF0s/rqA59HLkgfbpR2VXmQVJgU8ZXQQ4buF0wlyd7acweeWNEV1cXmWh6ymrbFLl6Z8S280PrcM1osw1qeyXfly8zi/LgLwwi8/G8z29vZm3rx5IhBKlSpFr169CA8PN5inguOZCrzKTF1+ili5CrUqZZ2aMtqHTT2r8E3F6pzxicV+9xJqFfqUClWa0rFzZzo/dVbt29N13FlUWQBv6ILNBCelDg6mA56HHRPrFeKLb76nVcd08Vl1oH37idwLSyAp0olfy39Og2H7uHtmG71q12XK+qsk6cJY1d2SLwp9R+MW7eiUmp9OnejYdSgLdjwQWz4Z68EY4N2mQ4taOezSVHJi8Ld8armN9NuNR7ieYli7NkxecoJH9itpVK0J+x08EBu6Qld8XBB7pnSiVeeFPEoHvOiAG5jX+4lC39fGspPVM52tOtDjzxlsPrqL4V2bM2n5IaLTTRhVxMURl6x85cALtrfjXr8u+ORhHO91AE9YMH+3d0fxINiMdiK9S6+ASQFPHhlA4NYRLxEmZsi390cX5Zte0wzX2mA3ZMtaZkxzqbm4HlCvfX7tlHDulSbIFdm/zTM+kw6YBsGbzf2kRU0IuX4gQ96EN0J3odDi69u3b1pX4XOBCozHM+D9vfocialcEk661mnxPj2fL8pVZadLKI77V9KoSA1GzzpBcEICwnhgQpQ3u5YsZKOdD/qnwKvetC03QjRpLbzBCzYTZAB4YT63mWlRjBbd+uIYGJcSX0IkTkc2snDlOSITlajlCfw3pTHffNeKAb3a06Jtb466x4I2mi2/deCr96w5cvsJMUJe4mPxf3yLtcvWcc49ykANGAJeB9r1/IdgcY2ElhAnG5rX+SHHwDs17FtKVBqOX2pDVqfi4dGVWH1TkylLbXl8I6VLc+KOKyQpBZH1JAS7Mde8Km2sV/PY41kLLzbsDlYNfuYd6+V4RkSKusRFh+F85RBrttngdPsMI7r9TJ8Zq/CNfzpWKQ9j2ezZ/HPROw14vyy6RbrqNKCHcV7ZtfDkUZHc/K0XwgSQ1BZbTv+/DuD5dGnJtX5dUSbEGyeEiYYyKeApYsMJ3j+dhLl1Xg5MhEXmjvuyNB2he1J5dKrBMTnlfxMQthQz9NIlxzw9J+/ltURjFjYl0vWaoeREP2EMLz927MgywXy58QLg6XUEXFvPJ99WYtYFb0JdTjGspRkNOk3m2M2HBPl7cmb5FH4qUZSRhz0QliXcODSH736uz9qzDwnzuyeO4XhFv7QAACAASURBVBkG3kkSY/3ZNqszZas0ZNmO83gH+HPv8iaGmX9PtT5rCYgTxrpUeNpv4KdChSj0YRm6/rmWYBEqah7snU6Nb2vTe+YOHngHEvDIgeWDO/NztYZsvRttQK2MwFPG+rFjahvK1e/C+vN3eHj/KvNHW/FliQ+Ztd+ORKMnrWh4vHswHxf5nj/nHuZJcDgB92xZ2LsF9av2ZOdZP/yfTlop27Q7B665EhrwmANLfsO8VGX+XHaTMHHSytMxPHkEm0Y04LOf2rDgvxsEhgThfPUovdu2oEmHCTh5urH4j87UqdeaDYcv4evnwbl/xlGsSBEGHvMh1seBqc2+oc3A1XgERqa1KA0IYpRXdsATIrk+bjheeRjHCx7Zn8TL59BEhBnlkh3sCZ00PNeAFYDs07UVV8cOM0oDUw5kUsBTJ8URenI5YTNrvhTgCTMuBThl9RJONH+udZfaEltjhTBBxdBLOD9PWM+Xm5ZcVs/4zW5MnLeLoeTeIj8tXrbL6V7jZ/5efTFjC08A3s3NvF/0a3pOPkW0LJLLB/+lQf0GVG/Ulu5dOlDt0+J0HvAnbmHJ6LUKHl3eQL2PS1C54XA2rjrJn4M6MsRQl+bgkyi1SrxcLjDYsgVm5WvTqWsXWtX9hvqtrdlo9wi5Rmif6EgIuceslt9TqlIzlpzwTuuqVEZ7sH7OEEqVrY1Fp250bdecKiU/56/lOwhNa1Gmryol58elTFoRxvC0ingcjy2iaZ1ylK3TjLatrWhvaUHpMqWYu9+OJAF4A0ry7cBn6/CaWPflroGF55poL2aO6kbhIhXp2OMXurauT4Na1fl760mCEtSEOWyjcfWvqVP/Z2q2tKJX1w7UrvgpPSav5H6YjNj0wNNCpNt+Jv/akK9qNqdbj+60bNSAr8v2ZONBF5I1CtyvHOYPs5+pX6Mena07UKNoEaz6jONJnIbkMA9W9q9HqdKVGbtwIz7xeWvnGQM85zXLcO/WJtfjeAF9rAidMpqIRbOMcmEzxhHY3zpPwHvUpSUuG1alNxDp2oACJgU8jVJO2NXdeE+p/hJgYobG086ApClewq4uCpsRBlt3IpQW1kdpuwKdgYXowodSG/oY+Xrrl5DPlFbi/WmNUSe/7d0dOpIiPLhx4RyunuGo0y/G1uuRR/uwf/8RbK88QWhYKRIicbhymm1bNrF582Z27t2Lq18EWnHhmw5ZTCDXbWzYs+ccdx18uetwjTuPvJGnRazF1/4wJ+8Ei91tOpWMQNfbHNqxlU2bNrF1xx5sHdxJVKjTZhhqVcn4uFzglK0dAfEZu7QTw704dXgvGzdsYOu2bRw6eYrg2NR+xcympiXs/ikO2/k87erTIU8Iw8H2CFu3bmXHrqPY3XTkzJlTuPlHoNZq8btzhBOOwWg1SoK87nHp+i1iFelFepZGXIg7e3dsZt3q1axdv4HjF68T+jQvihhfbM+d4JbDNf6z2cmGDRvYbXOCh0Ep9hXndZEx3bunzNIU+aQmxMORfTs3i2G3bdvDuYsPiX8640WnTsL79jX+27GFDVu3sMPGBlefCDEzWpUcX9fr2Njs4aL9XWKyyO+znL/4yhjgBV69hHP3trkGXk67QF9GeMdOLQi5Le2f+eLaN7Hz8ITxsfC753GbmPcWngAzvSbrDaVSjvx5OjMztVWX6b9i91C0Ie4G60iXFJ2yoXSmZ7JqwWXn7zi3s8F0TN5TpxWnygvduVqdLg1MqboIX5DC2i3jXzpxSYIQn1qrM7BoPJuYdBpUSqU4YzYnqabGKuRVWCup0WrF5Qqp/jn9L5Zbo0Ipl6NQKtFmlRmtGqVSydNllKjlSTw6t4keDVswRVyH9yxlrVr1NGzmdYUpYbRCXGo1Wr2wjD/9Sy8u48lRNaR/PN21McBTJSRg1yNvMzVfBsRyEseVrhaokw0vi0pXfJO/NKkWnlDbUe63cJ3dmrg5tXPfelrcBG2Qa5bGow3zQL57SNatu1SILW6M+v5JhJmcmV/CJAuNx9WMk1f+bY7i0MSU7s5lxk9qiZldG+f1ozMnIb2XFMhSAWPA8PzDOgIvnObPsl/xSXUrFp98gCojuZ5/5BX7GFuua38OKVAtPLvRQ16xkgUzOZMDXmKQB26rBxEwtUaugac8OQedMv2k7YyVr7q2CdlSc6PiV56agy4+LGMET99pwz1RCODc0A2V3fqUI4fkCeISCEUOdmRxHVcV3ws7DaYheUoKGFLAWDBkfFaPLDKCB1eu4fDQm9h0XbkZw72+d8aWy3HpP3hkszQhYGBXIv+dS5LdRZJv2pF46Szh86fj/0u7PI3H5aRlJ4R179SMu8sXvj5RC1DKJgc8VVIsjw8u4uGEn0n+JxezNVe1QxsdYHA/TOHDpPFxQL61j1GwE7oh5Ws6oAlwMRyfRi1OitHJE9HrNBnCaLxvITPiIFuhjBeHVCY5POulEwXIXgt0VgX7ELa6elWvlK7G53sPjEnfWDBkjkt4TuhWFfbcfMMad2JWjS1XwKULOHZoahhc3VoTMX86yieP0amUCEMlKU6LTilH7naf8L8n4t+tteHnX3DMUPjsScRsXUtA305GP3vTshEh16T9MzPboqH3Jgc8QYTAm8dxmlifqL9rGQ0mcYxsYQNU9lvRKwyfqaZTJKG8uAzZwgY5ild1e88LW4yGKk7wk2/skW06gdNqcG26dNp5Vhq+Sn9hr8eKFSu+siQHDx7MiRMncpWesWDIVeSv8SFjyyWsZ7vczgDwBNj9Mw1VQMoWe1kVRfHkMWGzxuPf1XjoBfTrTLLDDXSyZEKnjjYaeOcsGqJVZj2fIKs8mqK/SQIvxsuZ2wt64jm5Gkk5aOUpdg3OcpG5uGD88WVk63I+s1Kxdxi6uOAc25/q2sYXAi9xXh3sR1TB++TaHMctPfDyFZCA9/I1zWmMxgJPiPfK778+N44X+Hsvkm9lPTs7fX4SL5xC6PY0rouyNZErF6AODxWjSLKzxd+Io4qEHVau/NEfbT6cep++LG/LtUkCT5Ucx4N983EYU934Vt6/zVE7HUJYTG7opUuIEI/+yW62pMH7ixohdFHm9NBGXYw/siVNsoSe/9QaXBhVl4TAx4ayLPm9YgUk4L1iwQ0klxPgOS2Zi3CCeHpgRf47D3VYCpQMRJ/BS+HtSeiMcRmeTx9X+uugIb+I44B6bco6Q51CQfi8Kdk++8iqGa5r/kWnSbcvW4ZcSG/SK2CSwBMECHE6z7VpFnj/VZ2kedmP5SkPT85yZxS9Ro3a7SyylRZZwscg6FJna86vi/KscNpCYvq6eeG1cDKDxs8R2ZqOBtOMn1ub2yOrcH/LRDRyw12wL0xAuvnSFZCA99IlzXGEOQGe75nj3GnXOAN0YnZsQKdMOXoou8Q18XHipJb0YDN43cOC6E2r0MRm3FFH7upCQF+rDOlnfv62ZSPCb90gFZTZ5cnU75ss8BSxYdzZMI4bI6sSmd1Y3up2qF3PYGjvS8GAdLFBKPJ47JCwyFzYauxFH0hh+YIQRjh3T3V1nbiPp2xRI4PA85pcjYsj6xDuchmdgWUPpm74r6P8EvBeh+oZ03zR5ytjSEgK8udax2YZgBOzUwCeceNlQistavWiDM9nBpbwPnjMYGR3nx1RlJoP4Yd01JrFL3z+ilUL5BHhL/zeSI1P+m9iC88zV3iA/REujG/Gowk/kzA3i3V5C+qhPDU7y6UDerUC9b3jyJY2Mwie7Fp26e+rH5w22K0p7Mai9b+L6tauFLCuFY4PMssyvchZtbD7oxJ31o5GEScdBpm53l/Xewl4r0v5Z+nmBHjCQu5rg3plAE7k8vmoI4w7VUQVEkT4vKkZns8MvIDeHYjduRGdgUXjQl6Vnu4EDe5hMA5hg2v7Yf0RDq7NSbmeqWF6VybbwhOqWhkfxZ0N47nwR1VxXZ6hCSzyDV3RPLI1CCK9Xoc2ygf59gFZwic90LK7lou7t6RsNyW25qL9UTsfQXlqHgohDSOgGje3Ni5jqmI7wZwwl0tS3/4b9JmWgPf6KyMnYNAo5DgvmoNH52fjeMGjf0Pm7GhUQZLsrxA0rK9BWKWCL2TCUISuy6xeOrmMmF2bDMbh2tGcB8sXokpKlICXlYCZ/E0aeIIWUY8dOD/Zgqt/VCJmtoFlCstbo7AZjvLolOfdkb/Ee8ash8sOduL9xY3RBrig8bqJ6tJKFHuGIl/VzuhlDsJYpOfk6pz9vQoPD/2LMtHwIbOZbEB6+4oUkID3ioR+QTI5AZ6wFZrv8UPcadfkGXB6WBC5Yj7q0BfPqlb5+xCxYAb+3S2ePZtp/Z2wDCHWZjsC1LJ6CbO/lV4ehIz9/bl4brdrTPCl8wj5zEm5skrLFPxNHng6tQr3Y6s5+UdNbo6s/FJaakbBLd2ElfTh5Zt6Il/fFWN3akl9VmidirMyh1Tk2qJ+xPq6iothTcGIC0oZJeC9/prKCRgE2MR5uHOlfcb1eMJpCFFrl6IKCXzuMyZMHlH5ehO5/B8Cfu3wHKRSW3bC/5CJw7JdzycoppPJiD9i81xcN7pbEuvhLsIuJ+V6/bXw+nJg8sATpFclxXFj6W8cHVCRB+OrvnbopUIsJ/9DZ9YUW6nnx5sTePOY+Kvv9ZmVlLIhBSTgGVLl1frlFAxJYSHY/5ZxHE+AlTD2FjJuiNhCk9+7i+KJO0n2V4nevArhANiAX9o/B6j0sPPvYSEuLk84e4yE8ydf7M6dQJgdGjioe1qcwonsjmN+JzEoUBQwp+V6taq/OalJwHtaF8kRgZz+sxHHB5THtYBBT9gx5trwypwYUp1Hh5aheuuPAXpzPkA5yYkEvJyolT9hcwoGRWwM9+fP5HG6cbz04BLAJpxlFzigS8p2YL0s06CUPpzB655tCejT0TjXuwP+3dukxe3WsRnuq5eiiEk5jzOn5cofdd/8WCXgPa0jwWCEA1JPDKvNsQEVeDCuqrgLS67228yiuzInLTZjwibNq03ojJrYDavMkd8q47z1L5QJUVJ//hv6uUsFXmJiIq/CDRw4UNpaLJMt5BQMGqUCv+OHuG3Z+LldVwxCLNM4XX6E8evSkqsWDfE9eSRtS7GcliuTLCbzVgJepqoOczrP8aE1OTGgPPfGVhUnsryJ0BPG7EJm1OTMoAocHVSVO+vHII8KylQa6e2bpEBSUhKdO3embNmyr8S1bNkSJyenXEnwtn6B5qZcYQ9cONi8Hg6WjfGyboGwnVd+gOxFcQqQE9IV0hcm0Zzs2JKQu89mi+amXLkyjAL+kAS8TBWoVSvwubCDM2Obii29WyOriGAR9qU0ptX1KsLEzqkt7hBzcmAFjgyqisO60RLsMtWj9DZvCrytX6C5KVe8nw9nhvZnV6OanG5hhmO7JghbegnLFfITgKmAE9Jx62guAvd0czN2NqrB2WG/EevlmVbJuSlX2sMmdCEBz0Bla1VKQu5e4OJUS44MqMilPyrxZHI1BNC8ztZewrw6hM2sidPonzjSvzzHh1THYc1oZJEpA9cGiiJ5SQrkSoG39Qs0N+VSJSfz+PABDnRqw7ZGNdnWsAb7m9TiZPO6XGnTUASRS4emPOhojptVM9w7NRddKhAFKGblnli3EMGZ+ozw/P2O5ji3b8oty8Zcat1ATMemcS0x3e2Na4n5eLRvN6rEZ1sR5qZcuTKMAv6QBLwsKlCjlBPibMvV+b+KXYZCa0oAjXDcjrAry6sEn7C+Ttg95dGEatgOqcThfuU5NcIMN5t/kEdJsMuiCiXvPCjwtn6B5rZcirhYPE8c4eKEkRzq1oFdzeuLABLgJzih1bW/aW3+M6/NyRZmojvXqh6X2zR4obNtXZ+zLeulPXPIvDY2TVLglhq38H9Xi/oc6dWJS5PH4Hn8MPKYjPtu5rZceTCRAvmoBLwXVJuwB2WM1z2cNk7g5Ih6HOpXnotDKnF/XFWCptcgv7s5hXE6YZ/PxxOrYT+8CscHVOCw0OKc1p4npzehUSS9IPfSLUmB3Cvwtn6B5rVcSaEh+F44i8uW9VybM51zo37n6K9d2NeuGTubmWWAYHpg5eRaiMfGshkn+nXn3MjBXJs9lXtbNxBw1ZbksDCDlZrXchmM9C30lIBnRKUmh/vhdX47V/7uypGBVcQW1qWhlXAeUxWfKdWJNrRDSy5nagotR+GkAwGoruN/xn5EZU4MrCDC9sTwutzZOJ5wYcswdcoWZEZkXwoiKZBjBd7WL9CXWS5hyUKMxyOCbtiJrS63fbtw2boBh+WLuP73NNFdHD9SHP87M6Qvz7mh/bEdPzItrOPqZdzbvgk3m514Hj9EyO0bRLs/FPfKzK4CX2a5skurIN+XgGdk7WlVcqI8HLm3ey5nxphzqF8KhM4Orsj14ZXFGZ1ef1UnbGYtEuZlsRH1CyAoQFPYKcVtfFVujqwitiSPDSgvgu74kBrcXPobPrZ7SY4MlI4CMbLOpGC5V+Bt/QLN73KJO60kJpAcGiK6WK8nRLreI/KBy/PO9R5xXk/SwqpluT/GK7/LlXtLerOelICXw/qQx0YQ7naTezYLOTu2qQgkoavzaP/y4hIB26GVxEXgd//8SVzALhzTI5y55/NXdXGDauE61QmnNAjhboyowpU/KnF+cEVx4bsQn+CODf4Z+4V98b1kQ0KQB1qVcedw5bBIUnBJgecUeFu/QKVyPVfVJuUhAS+X1a1IiCbaywXvCzuwm9ON47//nAa/VAAeH1iB079V4PSgiqI7+/R/6nuhq1IAZSrgUv+f/bMR97ZNJeTueRJDfRAm0EgvSYFXqYAEhlepdt7TelvrK+/KZIxBAl5GPXL0TjAyjVKGLCqIWO97+F7cicPyIZwf34wjAys/B7JUoGX+f3xoDS5Pa8/9rX8R5mIrQk6ZEI1Oq85RfqTAkgIvS4G39QtUKtfLspCCGY8EvJdUb+LZeGol6uQEBFgJB69G3b9MkP0RPI+t4v62KWnu0f6F+F+xIcTxDAmBj1HER4pH+WjkSdLp5C+pPqRo8qaABIa86feqn35b6+tl6ygB72Urmi4+AYLCESN6ndaA0yHe1+vTPSFdSgq8GQq8rV+gUrneDPt6XbmQgPe6lJfSlRR4gxWQwPAGV46BrL2t9WWgqHnykoCXJ/mkhyUF3k4F3tYvUKlcb6e9GlsqCXjGKiWFkxQwIQUKDhi0hLhc5PKDcLRG1M+bWS4VoR6u3H3gRaxcY6AUWhIiArh3+y5BCUoD98nRkWB6vRa1Wm2UXgYTK8CeEvAKcOVJWZcUyC8F3kwwGCqtEpteJfl24AkMoyDjM29kuXQx7P9rKJ1/m8ftgGcbQqflXC/H+eQmOje2ZqNTRJp3+ouclCs5wpWde/fhk2DMT4T0qRT8awl4Bb8OpRJICrx0BXLyBfrSE89RhE+B17cAA08bw+7JQ+k4aB63Aw0AT6fC3/UWa1Zuw87PwH1y1sKLuLuR0t9X4LS3odZkjsQvcIEl4BW4KpMyLCmQ/wq8XcCT4e9mj83GOUyfMZ1NNoe47xWO+HWvSsDrrhN37jzgkeN5Vi05ysPAeLR6NT7Ol9m2ei3bd53g3kNv3N1c8QqISHkOSAzx5uzBbcyaOZ0N+8/jERjzwopJDnnM/g1/M23aDOYv3onDk1BSdsSNYffUobTvN4VjdtfY/e9iZk6bxp5zd4gTl+JqSYgM4MFtZ0Jin+62pEnG98EVdiz6hxkrNnPq2gOi023EpFUm4OVwgXVL/mHatMVsP3KVgDg5svBH7Fw4iOKff8mMbed56B2FVpWM3z17Ni1fzLRp01i39zQ+UTK0uhcWp0DefCuBp9FoUOt0vIX1VSCNTMp0wVPgbQKe98Ul/G7dgB+aNKNLl9Y0+aEiHQaM4Zh7JNoEfzbMHY+5eSssmtagZNEuHHXw5d7+8Vi1rE/5Oi2xateBFm060LZ1LxZuOE+cFqI8zjN9ZC+ql29Kq45taFquBtYDR3PMzXCXY7T7ZcYN6kL50j/TuXtXzKt9S5MeI1l7zh0VMeybOpQ6P/5M02aNad6iJS2qFebHms0ZMekccToF7lcPMbb/WI65RoMqlkub/uXXVnUxr9+MNu0sqNGgLcMn7CFcATpFLFeObaR9k5o0bFiXlvUrU622GZ3HHcb9ylYqfvsZ7xQuTAWrAaw/5MD9C/sZ3KIBTc2b0qFtA6rUqk/HXuvxTUhH0IJnwgZznGvgXZjXla5dX+DmHcYvVs4rXWWmTcRhy2pGWltjveEcPvHG9Oob1OWleqpUySQnp/yWk8f4cWTjatbuuEFiPnShJwQ4snLOv5y0c0eRD/FnFEaPMjGE4yuGMXffQ4zdF0Yrj+b8ofUs2rCL4PwQIWMmpXe5UOCtAZ46kjX9mlGqQT82nLrJY/d7nFw7B/PPK9Jn9S2Ucd7MGduLQoXK0W3gHHbus8PL9QLta5Xk46ZjOHD5JjdsjzG6f0cKFSrLH1NtiE4OYe7EXpSo25M5G0/h/PABF3YtpnONUnQYspmIzB8EdTjrBlvz6Y+WLNpuy+Mnj7E7spLezWtQv/dEHEKD+G/qUCoUKkSngWM5bncbl5snmP1bIz4t3ZQDbhHcPbWJjo2t2XIngrA7B+nfqDzdBvzJiUu3ue90k5V/9aF4mbqscggj4uFFxrctS+2WHdlz5ir375xj+eCf+bx0FU47OrJz0QhKlP6afw7fxP3xQ7bN/4Pa5p3ZdPI6j1yd2LNoOGVKVuHAI8NHEeXCnN6YR3INvF2DzKhoZoZZzUr8WLoQhQoV4uuvv8ZM8DOrjNnI9fhEJr9S4MmCbjG5Z2PKVmjInzvsCE/KbHmvQ3cVp4a2pUuXS2L3RVLQHRb83pH+47YTkQ9d6FFuB+ljYc3yPfYkvwLgJUd6ssD6B9rOsHvaPZO9xtrEYNbPG0KHoZN4GJMPImSfBSlENgq8NcDTKXjifJNTt92JjI3Ez8+XiwdWUbN4OTr8fRXFU+BVshjBKadQ1Fo9gRdm8vmnhVl+LVjsvtRrVTy03YbVT2UZPtUGP9djWJlXou7IVdwPiCQ6OprocC9W/1Gdn+pbcSsT8dThN2lbtxLmE/YRIRO+k/RokiM4vGYU3zayYruzB3umDuX72t3Ydd1DzINQPWF3d1G45JdMOOPJ3TOpwPPi9D+jqFqkJkt2XyI8Mpro6EQC7h+k5selaT3LljsnNtHku5qMWHGeBJXQz6Uj/uEFtqxYzcPwJEIdtlGmbAXO+qvQJvqz+u/+fPJFQ8bPO8D9J6HEhfnjePsGIYlSCy/tYxIX4oe3nx9+vm4cXDmZCmUaMXr5mRQ/Px/8wmNRa15tp2Kc+2kGtf+JfvPW4REtR6t7pe3LNG0yXujY0+VTvu1yTOxi1aplRAb7ERQWiyYfshfldoA+Fp1fKfDmW/2A5Qw7o7uQ9YnBbJaAl9FM3rB3bw3wUOPteBDLVk2oXLkS5cuV45svP+eDEuXpMO9aGvB6TljIk5iUH8i+Z8bweYlW3E+3RCDO9ybT+nQSgffYYTeWDcrycamvKF+xEpUqVaJSxQp89VlhKtY156JfxrMqVUHXaFSnInOPOaNM/U7Uy3A5u4EODTqy0fGxOIZnMeBvbgTEp1mCMtEZq5JfMurk43TAe8yBiYMoV6gwZb75ISXtSpWpWOE7inzwOfX6H8b+2Dos6ndmw43gZw0OjQpZUjJqrY6Qp8A7469Er1XgfvMg1s2q80mJMpT9sQJVqvzEX8sOEC7PWI60jBXgi1y38NLKrE3m9p7lmJW1YOZ+t7QBXeG+89EVLNp/FecLO+hTpzFr7YNQxYZhZ7OS9s3NKF26Jpb9ZnHKKRCFWodeq8Hz0k7mrD6C3RkbJnZsRvXSdRk+04aA2KcnBiijOb93Bi2/+opvvi9P/4nrcA9JRhblze5xfajwwbvUb92ZDSeciBN+TSmCsZnVl9KlS/NDpZqMXGCDd4RMzH6iz102bDrMBfsrrBxdl7IjdhGX5MvOhbM4eOEKG6f3p0bl2vwyezP3vZ5gu2sBvapX4tvSVtjcCkmTIDE6lGOb5tG2UXVKV2tA98n/cv1JKApdDBfWzKJpsQ8pWrIVsxfs56F/GHbHj3HE1o2UXKh4cvMY/cxq8HXp0nxnMYhTd/2exq3A0+k8e7Ztw/b8UWYP60/lH3+kw5+r8Ew03F1sDPDiwgPYv2oGLer9TOkaTekzczWOAVGodaDThrNz7l/su2jPzvlDqF2hOtZ/reLO4ydcP7CC/mbVKFu6HZsveIkfHqGFN9/qOxqN2M6eNZNoWr001Zt2Yc3xu8TInjUxva7Z8Gv3lnTo1pvFOw8wY1LfDC08P5er/D2iO99/+xXfWvRl6b6LhL8ZPdJp9WxKF28L8FRht+luWZ93zXqx8fB57j94zBPn04yoWZ4Ofz8D3i9TluAdn2KvvucE4HXGJemZ/YY6H2V44wopwLuxCUuzr2g/eSk3HZx58OABD+7f557DHe4+eEysNuMvWVWQPY3qVGLawTsoUoGnisV27wy+Swe8H9tP4pR7VJqZKcIvUzcz8G4/Zse4QXxbqBXz157CWUj7wQPu37/PnZu3eeQdhMOhddT+uT0zzvimxUVyBE8ePyJarSbUMaWFJwBPaG1qNUriI4Nxv2fPgZ3L6Fn+Oz4rUozBO+8/e/4tuco78PTJOOxfTr0fLJh5ID3wlJweXpGiH75D4aKfULaaGSsv3GXPstF8+NFHtLbuwbxZIzGr+h3vv9+E426hqNUqLq/pxjvvvkeRoj9Qq1ZXzJvU4MMP3mf00h2EJis4NqIun5UoStcJC5gzrQ/FihbBrE0nrt51YuagNnzw3vtUqFiZUWuOEhxynylfl6Z4yS/oO20x0yb2pdjHRWhqPZCbfomE3t2NZcMfeOeDwhQrXpwS3bYTHniDlv97h/c/KEKl6lVo2Lw+H330Ae+89yEfFytO27Yt+ar0Z7z/wYecWPxBYAAAG9RJREFUC9ejjA1k57ROfPhhBSzaT2D2uCGYlS/DB7VHceXRY/YM78anH73LB0VK0bPfdOzv3WXBMCsGjNtChErBzfV9qVO2CJ+0HMiS1SuxLvUpJUt/w6h999BoErm6fh613nmPwkWK0dCyHV3aVuDzj9/j3e5bUaV+eNIZ44uBp0cW7sGqMZZ89NFPdOo2mVmjBlL9+1K8X28y9wLiUCe50/Z//+O99wvzY6XymLdtQuGPPuSd9z6gSNFPaNmyKd99U4Z333uPA17xiMAzL8Q7773PxxVr0HJQP1o0+YkPP/iASZtPEi3X4HZgOkU++pgvv/uaHgO7U7zox7z/v/89BZ6asFvbaVq9HMU+ac/fC5bxZ6eGfFziSxqPPYki43dHupJKl/mpQIECXs9P+abnQZKShbHydE6mIPD6avFH2MTd9sTI1KgUybhfXMuPn5ajw9wrKGO9xDG89MDzt53DlyWKMHb/feQqNarEMC6unkrlQmUZNtWGYG87erauRauJ63gSnoAwSS4xOpi1Iy0wazkdr0znuOojb9GqfmUqDdhASHQyWp2WhDAvVo+z4ufWvTjj7cfBKUMp/79qLNh+jViZBrVKgevx2RT/4gfWuwQ/a+E5BnBj9TjqlWrEikO3iVOp0ahVRDw6TI0vvmPwoYc8PL0Viw+rM3TiMaKUKjGuWytbU+7Ljzn2OJQQh62U/q48pz2VxPndZu6gNgyctIrAZBUajRpFkB1VKnxLmzVX89PEXkvceQceyTgcyAp4FSj64afMOuosLgqVhbmxaVo7Bk+ag1eMGpVKge+5lVT/4QsWX3iEUqXk8poufPr1zyw46CqOCSX62PNHt4Z0nbIar3BvxteuSuHe6wmOikOZnIDzqTU07tSf/+7HEP3oEP3bdWbJHjuS9Xpcdw6hVLGSLDnjJYqrU8Zhv2MudQrXZsyMy3g5pXRNfNpuGna+cQg/zOIjbtDy3RLUb7+IJwmgjHRl0pAOfFC+ExttHyPXQfSdrZQsUYwDXgrifO4xv1kTfv/zMNEaDSqFnJvr+lP7q3rssvNAqdOnLIzte0LsXkgKEYDXmUHjdhDiY8+v7evxc/9/cA2JF+8rY135u34xKtWqj2N0Ahe3zOPnwlX4c+EJwsVBuWDWNahM0QozCVM9+wWaaj0vBp6OiAfXmNGkJeNmniFGLXwByLi6pBMVSzXh2INglGp3LN4pzE9NZuIeB6oYT+ZP6MH7Zduw5JgLwo/e2Ht7+f7Lkmx2jnwKvHcpW8cSG5dgMRuJ/g781r4h77WfjaP7TXp/U5pvyk3kibCESCfD4/RGrEoUeQo8BY5LR2NRdSiX3EJQqFQkRgXyb/ui1Go0Bd+3r1cltare6P8FCng9ivFh4Z+x6NKFLqmufXu6/PEP5y8do1c7M95r0I+Ve/9j28qZ1Cr1OSU//4Y6/Zdy28PtOeCh9GZs/RqU+awIw5duYtm0kdQsXJhC75TjjxkHidIkcmLUIGoU/5AuE+bw35FjzB3RjPe/qkGPf28ZGMtWcfWfLlQt/R6NBy7gnN1ZlkzqwYfFajFkzCkSNTEcmjSUCh8UpnA5C+as3cveNeP46MPPqdNoFeHInwHvTgSJ/lcZ3rspH5WzZMbKnRzbu5rWH7zPT3WbYB+kJCnsPisntuKTSk3pM2s9m5dNoHLlcpTutJaAWAXhLlspVfRTWv3xLxcu32Hr/CEUq2hO/3nbOXv+BKsm/ULZsmXZcONZL9Ybbaw5yFy+A6946YmEPs2QXqciNvQJjlcvcvbUcQ7s28q83y34sviH6YDXgco1++P59FeSPs6dCUM6Um3wAhyDfPi3e1s+f68c/SbOwebQWW46ueAfEofw3Z8GvB12JGtVnBtRnRKlBuOtfgaGCLeTjLX8mSFTbXBz2Illg5+Yd/A6CU+/WAXgtf+yHMNOeYu51sR6MnV4V6r3/5tb/imLPnU+p/msZHEReDqNikhvT66evcjpkyfZv209E6zN+LJIPfbbeaDSZVwYmx54j2/vwLpxJWbuuUjs0/R1agVO24dTrkY9LgXFiMBr2WYA++6lzphScW5MdUp8ZMG9dF0uqXX+YuCBTqUg1MNdzO+p48fZt3Udf1pWpdRHTTj7IBiV2p0OxT/n18MeYpTaeD+WTOlHlW5juegZJ/rp/C7yw7dfPANeiy9p1cOGZ0tikzk2vBcV6k/G9vQuvi5TkrkXg1KziDLGgxVTOqV1aWoSY3C1v8WlCxc5dvAgW5f9TbvvilKn0RSCJOCl6fYqLwoO8FScn9aC+vXrP+9+mcVxJx/uHl1IZ4tG1K5dm/qNm7Lo4DG2zvoNs55DmXP5LltXTGf2uj2EpH6edGpkEa5sGNdQjLO1pSU9+/Xi8+8bM2mDQ8qOLvIQjq0YSOsmdahdpw51Gzaj+9KLRGc1T04VyulF1jSuV5uaNWtSq2EbBs8/Tqg4UhOP/fqF9O43ipGDrWnduA61a9ehUZM5PBaX9qUAr9PTWZqCHYS62TKkT2fq1KlNnTp1aGzenPNpSyK0RPk6Mn9iX+rWqUOdOnWpN3geF71iEDqFFPEPmV+/PvXqdWPSX44EeVzn75Hdxbhq16pF7bpmTFhzilhFVoV5lZb4ctPKf+C130bKXB89sigfjiz8laa1ylCroTmtLCyxaGZG8aKF0wGvM1Vrjyfw6RedJtqdcYM6UmvwAu4GJRHvdYPpv/agdYtmmFX7ifLf/YD1sBVc9Yh/HngCGJqvID5d11+s1zX+6tlWnF78yGETlg06s/O8K8qn82sE4HX6ujxTbQNEpQ0BT5kKvCcyEkK9WDu0D7U+K0+Dps1p07Ytzev/xKdFm2QPPKcdWJtbsu6EI7Kn6es1StwOz8wAPCuroRxzT13U+gx47qkf0HQ28ULg6bVE+7mytG8PapauREPz5lhYWtKsbkWKFW6RBrxOJT5n9OmU/n9DwFNmBl6777EYeyHdsgQt15f0o5rFRE4fXM1XX5Rg653ItFzqkwLZNH9QCvCiknE9tYueFWpSq1o9mrdsRdt2balV7lsJeGmKvfqLggM847RRy+KJjY0lSZnSR67TalHJ5RnmHKTGpI1/zJbNGzjsFIJSq0etTODWoX/p0LoNc/57lGEPSll8PLFJSWnLjlLjyOp/Umws4eERRMWnjOA/H06NLEHIa6LYO4Rej1YZy2WbpbRu1JktDqk/fAG1nPj4WJKSklAZOmZMK0xUiSchQYZG8+xHv5CmTqcT99NMTV+rkpMYH0tsRASxyUoRjKn33qb/rw54ejW+9ofoUeEL2g+dg+OTYGKTlARf20LN8mVYeuHx0y7NrIHn6OHJyWOHcAmKIiY8mHtXz7F4VG+++aIOv626Q2Rql+bTFt6FCdUp8eMAvFLXeuk1+FzexS/lKjN82jHcHQ0Dz+qr8kw6lz3w9nsk8OjKDqqW+JHe4/fgHhBGoiIRp03TqPuVJfuve2Zo4Qm/l9K38DycdtPFvBZ/bT1HjCKFeBplAkenmFGhZmtuhMWKLbwOHYZy5GEOgbfXnuRMk2T1GhkOx1bz02dV+X3GQTyDwklSJnFr+WiqlOrAWbeUFp4AvOHHcwA88xI0bDUP79RlIKpodo3uyndtp3Lddg/flCnJ8N33nn5u9CQFOTHv94Yi8FwDnvD/9s4DLKpj7eM+3/cl5kLitcSCxhK7qLGhIFHEGEUUBSvWaGLXxBtN9GoSYxJzY0EJFuwFVMCIYgUVrKh0EMRCk2oEqdK2L7/77C6KBf1UMJF1fJ4jy7Jnzry/d3b+Z94z886i4f1pbjwRj1MRpGfnUlSYzvrBXelm/gNpYtXC39Lf6Jvg3Yf4PHYpMi9h16M2BpazWbdtJ5vWLmNEvx50HDgPn5iyG7f7Zb7KnyUqGalXjjNhWD/aWA7HKzq73Ms9j13lnviGvVkpgnd5nyNdyp200op/3h/hqeXEnHPHunkzxny7kfjkVOIifFkx/RPq13iLxXsCKJJJObP+6YIXFHkWm49aMnDKRqITM7mXfZsTrivp3KwHc/dGcfcRwVNy020m79dowtxlB4m/k0VGbCAbZ9li+qEVv7vfJCWsooKXR9QpZ5rXb8fMFd4kpaZy9dx+Flp0oV61rqw/Gk6xUoLb8JrUN19CVPxtslLLnuGlJl5k7uDumA0ah8f5SDLvZRPl54Jttxp0Hu/AneKCZwre1XJHeJ6MH9CbL75ZzsHjPvj46A5v7yOcOBmE7/6VtGjcjW/W+pKcmsIVvz3M7daWWtVMcfGPRSq7zosLXjXqN2vPL9u8uZWaTJDnNmw7taHPgm3EJYYz0bQ+zQdM53hgLH+mxXFk47eYNq2mFbyoxGi+sutLmz7/wicojvTUBHw2/huLagZ06DGPqBz9WwtUFfoYfe1An88uKdGHfmLG5AmMHGbLsOGjmTx1Cbs9r5bOrP7rPKi5SY27vIfPP5+Cwxa3pyZqeD67/rp6v65XqhTBe+qkla9b8c+hZSHNvOQIVo43o13zNowYM47h/Ycy3NaOzu/XpovldGJyCziz3p72XRc9CGmqc2OYP3UoPab9RkRKKvuWzqamYTuG2E9h1tTPsLQ0p+24JXgn3iPn+iEmWw9nlXaEB8rsWJbNG8Pb1Vsz4rMpTB7+KT2NmzNvzR4ScmSkh+1goNmwJ0KaIxu1ZJGvboSnzovne018e/JSgkozmd8PaXrGFXE3IZAZfUxo1NSc0ePGYW1nh82w/jRq2Bxz602kZuRzbukAqr/TmDGz/s3FyFB+mzlSO2klW15AoLszQz5sjInFIKbMmopNz9a0HjyLrcGaCSAFnNm2jGGPhDRV+P7wETX/MYSrkkfDFJpGlhV9mPED2lK3QWPaGXegQwfd0b59e/paryA4yo+J5l35sJUFY8aNZYCtHUOHf0rd95vSx3Y3WXlRjKpZly+P6UZ46vxkVn83iY6jvuZMnO4Z3v2Q5g7NpJWsBFYMfoeaNYyxtOzLyHFjsGjXAsu+NhwNikGiVHLj4M9YG1enncUwJo4fg7WZCa1bGDFk+gJuZObis3YRresb08d6NJPGjcDUeihDB5lRq14vflkb9UgI6XX9IulbvfS1A30Ruwqy0klKiCU+IYWsvKK/px2WqFFI8snJzqX4Gc+zX8QufWurL2JPJQiegqyEqxzz8CE0IeehxccqUoL/wMUv5kGcXC0v5laEPzvXO+Hg4MiGDQcIConirNtenJ3dSC+ScfvaOTy9wrSzAbWGyO8R5H+KIxevkF2koCAjnr07NuHg4ICDwwocnfdwPDxV+wxMlpvChROniYy9o11Tpjm/MOMmW52dWLV8OStWObDb8zhJmYXaoosz4/A57EdsWo52hqbmTbkknbNu+wi5rfsM8nxCL5/m8IUwMgt1LU6Vn4KrqwtJ95QoZUVcD/Jhw1pHHNY4sX7fCS5FRuC53xVn5wBy8uTkJQazZYszu929uJWeyZWLZ7gQGIsmiqmS5BJ27AAbHFeyfPlyVq/bzInw5NKZXnLu3Izg9Cl/kvPKRjq3Iw/gutOPXPVjMUtAmpPEWZ/9bN269bFjB/s8Q8gtvkfkpWOs19TX0YkNB/wIuhqOu9sOnJ1DKCzO5pzLbgJS87WMUBRyNfQ8B08HcKd0Ly5VQRoebnuIzZKglBYQdcYFdzdvjnm54OTogKPTes4ER1MoKxVk5T3Cfbbxu4MDqx3X4epxGJ/jBznlH0SeVE1BRhyH9+3Ccc1qHJw2sPN8NNGR53F2dsH7RNpDbUpXJfH/qyegrx2osOvVt53X+QqVIHgval4JSqUcqVRW9iBVpUKhUj3/JoYqBVKpFKm0GNn9TvUZ1ShRypEUFVEskb6ah7ElalQKGVKZHGVpinG1WolKpdY8c9Yu7tRsuqh6ckBWWms1MplEu4ZIWs5Sg2eY9nJ/KlGjfKy+KpUClaqktL4vW6wKuUyKTK7k8SQ3mo5GrvGZTPbgBuiRq6iVyGRSpHKlth1oPq+pUzma/shp4pdXQ0DfhUEzaUVSUEBu7j0KJbK/Z/RWia7TV39VIiJtUX+D4FW2CaI8QUAQqGwC+tqBam48C1IvsXp2L3qamWFqaoZZT3OmLv6N0OTSLYNKYaaE+rJlyxbcPfZzLjCa7MKnzaCS4bPMigmrAh6aqVxZHikhP+0qG3+YwrKjZdGyx0t/lr8UCs3NtER7A/74eW/a70Lw3jSPC3sFgecg8KwO9DlOf20/Iiu8xsIWH2DUsAEDpy1l3fo1TBpojtG7/6TJqB85F5epDaHHHV5Mq6aNqFOnDvXq1adR42aM+WoxVzPLHi2UGSlli10N2k33LmfRedmnXu5VCTnxl1g4pDMT1gQ+VVCf7i8FIWu+ZnCX5UTeyCvLrflylanyZwnBq/IuFAYIApVP4OkdaOVf668sMSt4J7VqGzHHJZh7hRJtGL0wJw6XL0bQ4q2ubPa5guTPM7T9sB6G733GiRupJMYE89OXI7TZhpa6Xy8nJC9l89AaGE/3fgWCUip4Np2Z4PAyglfCZYexdOi3iIi4nFdQv7/SexW/1ksLnuYLIQ7BQLQB/WwDmoXJ+ujbKztGUadhU/6I0uzmops3oLHz7pX9jBk4nvVekWRfO0iLpkZsiigoZaDk1qm9jO3+CYtcolA80fdJ2DTEkCYjHdm+dgEmLavToGVXvnb0JP5uIeqSEsLdHFjgdIgiiVxbprwgGz/XTfy4/iTZJSVoMjYlh51i/sguNKhtQPW2H/P9Zm+y5Qqy4y6yYHAnxq8KQF6iQpp+g31O/2HOjBUEJt1FoTk3xIuvhn5Mrdr1sRk2G48zYWTL8gg9vBn7ds0wrNaMwYO/wS8mX1uf5/VtxSXm9SrhpQXv9TJD1EYQEAQqk4CmQ9THf9nh26ljYECTFjNwOXKWyJuxJN+5S25BEXLNxDnNTO2cBHyPneBmnpKivLukJd9g36r5dGppxa+eN8sf4Q3UJVCv094Eq6/m8pm9JTXfM8D+OycScovxm2+OkdVy7hTotgCR5iayfbEN1vYruC1Xcst/F4NM21C3wUCWLHNgVvdO1H37HYY7B5NVGtIc73CJ7NQIVowdRKs69fjF5TA5EimppzbwTvXatO3SjYU/f8M46w+o2cKcOc7enN67DivjhrxtUAsLy7F4X8t7YkKZPvr5aTYJwXsaGfG+IPAGE9BXwVNI09jxpSmdO7aj6QcNMKjfiLafjmDeMic8T0dwt0D2YBmMQlrI0ZWTMDX9SLvBdZfB4/GNzy0nLChl88D/0eba3BGqyxkruXuTn6faYvDxLPaHJ+O7yByjgWu4U6Bb2qQTPFts7NeQXnibDfMm0LSuNduP3UC3DV8aq81Msey3mxSN4Nm25tOvHVgy2ZbW9RuzZJMnmUVKkCfxXWMj3ms6j+h7moT8MtLjL/HtWBM+mTSPsHQJAWvG0tF6MeEJ5dX9zWrkQvDeLH8LawWB5yKgr4JXolSikMlJiwnHy20zc2dNwqq/JZ1a1MfQyJI1R69QqNkYErRrbM+sm8kQm0H0NW1Pq4+6sMTVj3tP5FSWsnmQIW0ttjyUQF3K+ZXf0r3bFDwu3uLUMwTvz4zrLJhug8WcFUTeKcuxmZN4jaibyWTcusTCPtW0olutWjW6T1zMpWTdOmFV2kkaG9Whev/5uLq54erqys7ta/nMrhfNrKdyIDqdgDX2WsELEoKHELzn+vqLDwkCbxYB/RQ8JXHHd+LmfqU0oT1oFscW5t7mgssSzFvXw+rHPYSH+eN2LJi8+4tANfksAz2Y0qcudnO+52be4wkfpGy2eZd2Izx1Oylom4qK8J2L6dP/czwuxj8peDmJbF+oG+H9mRHDgum22H+/joTcMjWVFeqSSGtnaZoZ0LCJCZYmHejcvQ+bjgVTKFcjS9IJ3v8Z98V+nD329ppjNKNGjeCLn525kJQtBO+hr64QvIdgiJeCgCCgI6Cfgidl7whDjBqPJCxDuy/PA3fLki4xekB3ei7YzoG1U6nTsi9n75QtQcjT7NIyyhjbWYu5mfv4ejxNSPMtmrWZTtT9fb7kuRz6dTZt+07nj5BEneBZLCNVk62oREVuQhCLLUy0Ic07d2NZOMOObhN/JiSpNMMRxZz88QeW/nSGNE1Is29Lhs1xJ9LHhTFmzena/xv8r2ciS79A54bv8+7UfeQW55Ofn09eRjJ+XjvZ5HaU1DxNSFM3wgsVIzwxwnvQ4sULQUAQeEBAPwVPSeiWsbxjWIPRc3/ieMgNUlOSuBFyhvVLZ9G6SWtmOh8l6tTv1KtliN00R0JvJJEQE47LqnmYGLdn6k+7uVu6s8kDWGgErxqGNesxY+kuriXcIuDAduxN2tNnxn8IuZ2Hnyak2cSM1R7+xF4PZe9SO1pVq4+N/ToyCrPxWD6NTl26M3+DJ9cTYgk84kRvg3fpPfOUTvBsOjPRIRCVJAvPdf+idcN2jF/lxe3sZFaNaohBBzs2nYwgKTkBX8/N9Ovei1GzfycxX0LAKns6dhjEVk9/sosVFcqmVGZz1XwlRnhV02+i1oLAKyWgn4IHmskkv341gfaG79GhV3+GDrGhf69utOvUnVHTfiM4Jh1Zfhq//zCVt96uR+/+NlhbWdCqw0d0/3wlp69mlJOGTMn2sf+L4T860be3Kf2sB9HTuBUWva3wvBBJkULFbf/tjGtYmyZte2JlNQDz3pb0MTHHxt6JDIWa7LhzOE4zoVPXDnxqbYW5sREmI6dzVJMUXzPCs+vMhA26dXj5qZdZOtiUpm16sD8kjrSInUwb3Amjzn2wsbGmW4fudDT5Eq9z8cjUahKOrKBHy2YYd+nFvvB07bKEV9p4XuPCheC9xs4RVRME/i4C+ip4JWoVhemJnPfcz65tm9i4cSM7d7py9OQF4tNykSt1yzEKM5Pw2r+XrVt3scvFlb2HfQm5lflgo+jH/ZJy5QjexwMI9PfGffcuXPe4czHsGgXS0vCnopAYv+N4uO3Fzf0PTvpHEhkSRGBIvDaJPMjJuhWC7yEPXF32smffQYJiUpBRgrwwm2vBZwlLKk3Or5aRGhbEqUOHSMjIRVWiICX6Mvv27MLFxQUPj8MEhCRRJNc9a5TlpuF/1htPTy9iM4q06wAfr/+b8rsQvDfF08JOQeAFCOit4JWuLyxRq5HLJEgkEuRyTZLyJ9cdlqiUSKVy7d/vJ4X//xBqylUq5CgUTyZQBzVKpVJ7PK0cTVJrhVyJ4gUTuZdoE9hr6ipHVW6WerXWRj1dXvk0nE+8LwTvCSTiDUFAENB3wdM3D+urvyrbT0LwKpuoKE8Q0AMC+tqBCrv0oHFWwAQheBWAJ04VBAQBQUAQqDoEhOBVHV+JmgoCgoAgIAhUgIAQvArAE6cKAoKAICAIVB0CQvCqjq9ETQUBQUAQEAQqQEAIXgXgiVMFAUFAEBAEqg4BIXhVx1eipoKAICAICAIVICAErwLwxKmCgCAgCAgCVYeAELyq4ytRU0FAEBAEBIEKEBCCVwF44lRBQBAQBASBqkPgv+pKZcXrEJ3GAAAAAElFTkSuQmCC;" vertex="1" parent="1">
          <mxGeometry x="10" y="210" width="444" height="149" as="geometry" />
        </mxCell>
        <mxCell id="DLHE4XkezJhi1BGZX2a6-2" value="" style="shape=image;verticalLabelPosition=bottom;labelBackgroundColor=#ffffff;verticalAlign=top;aspect=fixed;imageAspect=0;image=data:image/png,iVBORw0KGgoAAAANSUhEUgAAAeIAAAETCAYAAADqJwUfAAAgAElEQVR4Aey9BXhU19q/3fOeV77zP6cOtJTiLkUS3N1dWoqVYsVdCxT3QnEp7u5SPFiIQVyIu7vMZCYzk/u71o6QoIEmJJOsfV2bkb32Ws+6n01+8yz9CHlIApKAJCAJSAKSQL4R+CjfSpYFSwKSgCQgCUgCkgBSiOVDIAlIApKAJCAJ5CMBKcT5CF8WLQlIApKAJCAJSCGWz4AkIAlIApKAJJCPBKQQ5yN8WbQkIAlIApKAJCCFWD4DkoAkIAlIApJAPhKQQpyP8GXRkoAkIAlIApKAFGL5DEgCkoAkIAlIAvlIQApxPsKXRUsCkoAkIAlIAlKI5TMgCUgCkoAkIAnkIwEpxPkIXxYtCUgCkkB+EkhNTSU1RYshWY0+PhZ9bAy6mCh04aGkhAbn6NRFRij36eNiMaiSlLxSdbr8rJbRlS2F2OhcJg2WBCQBSeDdCaTq9eiiItH6+5LsZI/KxoJEsxvEXThJ7NG9RPyxnIg1iwhbPo/gmb8QPOnnHJ2h86cq90X8vpTovduUvOKvnifpkRnqJ5ZovNzRhYWgT4xH2CCPlwlIIX6ZifxGEpAEJAGjJ5BqMKCPiSbZyY6E6xeJ3r+diLWLCV0wlaDxQwn4qS9+fdvl3TmgEwE/9yNk1jjCl/9K5OY1xJ46jMryESnBgUbPNzcrIIU4N2nKvCQBSUASKAAERMQbvX8Hob9OIWjiTwQM7ZV3gvsuYj6wC4FjfiRk9jhEBJ1w4wqiabuoH1KIi/oTIOsvCUgChYKAaPbVeHsQsX45AT/1we/7TgVDfF8n1P3a4z+oG0EThhF35hh6lapQ+OF9KiGF+H2oyXskAUlAEihABFINelRPLAkcN6Rgi+/rRLlvOyI3rkSflFiAqH44U6QQfzjWsiRJQBKQBPKEgBCw8G3rjVaERV+1/099SbSxyBM+BT1TKcQF3UPSPklAEpAE3kJAGxvDs0Wz8erdxmjF+Nmg7gTfvPqWmhbOy1KIC6dfZa0kAUmgCBFIjo3hwcyJ3GzfiGc9WxudGDt0a8nFrq3wunK+CHnteVWlED9nId9JApKAJGCUBFJUKp5s28iBFqYcblaX2+0b4dS9FR692uDdpy2+fdoWGHH26dMWr95tlR8MT7o253KbBhxoWoeTfboQamNllPz/rtFSiP8uQXm/JCAJSAL5TECskBXn7cW93+ZwtHNL9japw/4mdTjbypQ7HRpj2aUZ9t1b4tyjFc96tUaIYZ7OIc4yKEs0l7v3aqOUbdutBY86NeVmu0acamnCviZ12Nu0Lid6deDZmRP5TDH/ipdCnH/sZcmSgCQgCeQKAX2ymkQXBxL9fPC4fJ7bsyZxvFtbRZCFKIvzWPN6ijCLCPR2+8bc69gEiy7NEFGpXfeWuPRsjVuv1opQiyg6p0IthF3cJ+536N4Su24tsOnaAvPOTZUybrRrxNW2DTnTMi1az7BnX3MTzgzowcMVi/C9fR1teAiqAL9c4WFsmUghNjaPSXslAUlAEniBgCY2Bs8NK4g5uEtZHzohMIAgS3Ps9//JzSljOdW7czZRFmIootFDzepytHk9jrcw4XRLU0WoRRR9oXV9LrVpkKNTpBenuP9ECxOON6+n5HmwadoPgAzhVcpsVo9TfTpjNm867hfPEu5ghzoiDJWtFcHLfyXw5rUXalY0PkohLhp+lrWUBCSBQkxADNay+3Uant93Imj8MKL3bkUb6EdKYgLqyAgSQ4KJ8nDH5eghHi6ex9XRQzjZqyMHWjVkf8v67G9hiohQlbNZPaW5WDQZ5/Tc16xe5v0iL5GnyPtkz/ZcHT0UizVL8bhwlkgXJxJDgkiOiiQlNpokiweEr1pAwIj+OA/sivfVC4XYS6+vmhTi17ORVyQBSUASMAoCuuRkvA/vVZqGM5uUB3QkeOooonZtJPH+bWXzhZSQIPRxMRiSkkjV69Bpkonz8iDo8SOenT6G67GDOOzZzqMVv/Fw6a85Oh8tW4jjn1uVe93PniDMxpJoVxd0yWoMWi2GxARlGUttgC/JjrbEXzxF+KqFBAzrna3522JQL+J8vI2Cd24bKYU4t4nK/CQBSUASyAcCoeb3edL79Zs4+A/urmzAELlxFdH7thN/6QyJd6+jsnqkbAyh8XqG1ttD2ZBBHxPFi6dBpcKgVr30vS4qAq2vt3KvxsMV1VMrZWOHxDt/EXv6CNG7NxO+4ldlowm/AR2ziW/mj4a+7Xg4bng+UCsYRUohLhh+kFZIApKAJPC3CEQ6OWA/etC7jYge0JGAn/sTNGk4IbPHEzJnImGLZ6Vta7hmUbbXyM2ridyyJtt3YtvE8NULCf11MiFzJhAy4xdlUwex65Jf/w6vFd2sAizei5HVTzes+lv1N+abpRAbs/ek7ZKAJCAJpBNICPTH8depuPcyvgU9xEjrgNs3iqwvpRAXWdfLiksCkkBhIqDTaHDbsQnnnq1yHIm+GJnm12ezzk1JKaIbPohnUApxYfqfKOsiCUgCRZqA18UzOP/Q9W+tpOU/qDshcycStmzuW08xGMyvX/u/Jfxi1a8Hw79Hr9UUWd9JIS6yrpcVlwQkgcJGINTGAsdRP75bP3GWVbBERBw8bRTJbs45QiMGe/kP7PK3hFisjW2/egn6lJQclVkYE0khLoxelXWSBCSBIkkgKTSYJ1N/wfNv7ML0oYX4SdcWBN64isFgKJI+E5WWQlxkXS8rLglIAoWNgEGv48nyBXi+wxKVL/YLf2ghturfmRg3F8R62UX1kEJcVD0v6y0JSAKFkoDLsYO4f9/5vZuLP6QQi2lLttN+ISEosFD6IqeVkkKcU1IynSQgCUgCRkAg3P4pT3/oZhRCLHaDclm/ArFWdlE+pBAXZe/LuksCeUxAFRlIkq896IruQJw8RvxS9imqJB4M6WsUQmzXqw0+505g0OleqkdR+kIKcVHytqyrJJDHBFL1eqJcH+NxeTuWWydzd3F/PNb2RvPXavQhbqDX57EFMntB4MGMCUYhxA5DehP08F6Rd5oU4iL/CEgARYGAQZeCLjmJpHA//O8eJerSanS+1qRqEklN0ZD6DiNWxaAaMShIp1GTokogOSqIlAhfUlOS0akTuTjWlHMja3J6WGVOD62E84xaqFY1RrWxM5qrKzHEBBUF5PlaR9eDu3F9z4U9PlQfsegfdpw2hmiPZ/nKqiAULoW4IHhB2iAJ5CGBxBBvPK7s5OHKQVwYXVsRR995dVCtaIhqR180V1egc7mpCOnbzNBr1US7P8Hr+n6sNo/nxsy23B5TlcjVrdBcXIjG8RpXRlTh7LBKSjmZQryiPqr0U3t3y9uKkdf/JoGYZy487tzsvaLiDyXEbr1a47RmCSkq1d+srfHfLoXY+H0oayAJvJHA012zMkVRCKM404T4uTiqVjbAEO7xxnzExYRgT27O7pAtP0WIF9VThDZxVRP8fq3D0yk1uTayipJOiYilEL+VbW4mSElM5G6v91vxSmwAkWT5CLGr0tvOuEun8fvh/UZou/Rtj+Oe7blZbaPNSwqx0bpOGi4J5IyAzfap2YTztUIc4vLWDOMD3flraots+WUV4oyoN3GZKY8nVpdC/FaieZMgRa3GYvrY91rYQ9kucd4kZetCsX3hm87gaaPfa4lLsayl4+Ce+Ny4mjcAjCxXKcRG5jBpriTwrgTyQ4iFIFtOqiGF+F2dlUvpxXKR7nu249i95Xs1T7+4yEduf/bp05Yno38k1vvtrTC5hKRAZyOFuEC7RxonCfx9AlKI/z7DgppDSkoKwcHBWFpa4unpmWmmGFAXZf8Ui24FV4gt5kwmNbXoLmuZ6Sy5xGVWFPK9JFA4CUghLjx+ValUeHt7K6eola+vL3PnzmXGjBnZhFhci/F0x+bn79+4AYT/0F6I5uXQ+VOVM3DMj/j175DnUbRn33bY7dhUeBzzN2siI+K/CVDeLgkUdAJSiAu6h95sn4h6xSFE+NChQyxevJi//vpL+S4hIYGIiIhXrtOcGBKM/bypuPdq/UphDZkzgfirF9B4uKELD1XOJIsHRG1fT+DIAa+853VN1P6DexAyaxwBw3rn6D7bXm3wu33jzRUvQlelEBchZ8uqFk0CUoiN0+92dnYsX76c2bNnKxVITk7GxsYG8b0Q4LcdKWoVHru3vbKfOGTWeGWrQ7EAS9ZDNGnr4+OIO3ecgJ/65EhUhTiHLpxOsqsjYcvm5eges+6t0cTGZi26SL/PUyEWTpWnZCCfgfx9Bqy3TeHUkIrZTp+5tUlabvr8XFEffZCjslCHQadFn6JBr00mVaclVZ9CqkGv/F+OC3jGtSnNs+V1a3QVIn6r+zyv9HwtJlZX0jlNr5ntmubOZvl34YW/jXq9nrCwMC5fvkx0dLTC5+bNm5w8eVJpfn7f/0N+1y7h0L8TYpRyximao1VWj5RFXF6XryFZTcTvS5UR0Rn3ve7Vb1B34m9dVfJLNLuB/7DemWW97h6zUYPz7BkwRkXPUyE2RiDSZkmgsBHISUSctLw+vqeWYb9/AY9WD+XGjDY8mFgL1bbeJJ+egfbRPvR+T4l3vM3dac248FPaqlliKtSrpi/JUdOvf4rEvruxsbFKn25kZKSS8P79+wwdOpQFCxagVqtff/M7Xgl9aoXj6EH4ZNmfOGLDSnQxUW/NSfXEEv9B3d8a4Yb+Nh2DJlnJz6DREL5uyRvvcevZGqctv7+1/KKUQApxUfK2rKvRERCjSlNU8WiigtDHh5GqSXrnOuRMiE25MbpqtvnBD8ZVz1wNK2N+cMKGjgQurI/j9FpcHJ62OIgU4re7RES8MTFpOwyFh4dz4MAB5syZw6NHj5SbRf+vRqN5e0bvmCI+wB/7WRPxyNJPHHN0H4b0fuc3ZaeLDH97n+/ALqgd7bJlk+zuiugzfl1/slWXZoRbpNU7241F+IMU4iLsfFn1gkdArAmtCvcjwuk+3jcP4nRyLdY7ZuC2fSyJJ6ahubQI7Y3f0T7YjT7CK0cVyE0hzhDkiEX1uD4qbeUsKcSvd4MQ13v37jFv3jyOHDmiJIyKisLCwgI3Nzd0ebzrkF6rwXH9Ctx6t80UxpjDuzFo3y76oq/4bf3EEX+sxJCcFg1nUEjV6Yjcvj6zvBcF+WHvdqhCgjOSy1c5fUk+A5JAwSKgjg7l6e7Z/DW9NRd/qcfZ4dWUKNViYg1il5g8j1DXNEPneCVHxkshzhGmXEkkhFcMphKjm0WUm5SUhJmZGVevXlX6enOlkHfMxPXYQZ790DVTGCM2rMhR03Syi+MbI9vAUd+T7GSn9PVmNUn0O2ueORM4emBmmRli7N27LVYThqOOSmuSz3pfUX4vI+Ki7H1Z9wJHQBURwMNVg7M1EYt+2JeEeEV9dHbnc2S/FOIcYXrnRKK5OS4ujpCQEMSIZvH54sWLDB48mKNHjypNzUKURNQr+oXz6wixeozdsL7KACohiCLKVdlYvHHHLdHXG7FxJX79XjOnuH8HovZuRZ/46tHbBrWa2GP78evfMZsYi5W+XLf8TkrSu3ex5Be/D1GuFOIPQVmWIQnkkIAU4hyCyodkQlTFtCEhvkJYg4KCWLZsGQMGDODZs2dKZJifgvs6JKqIcB6PHpxtYY/g6WPeOH0p9vSRN/YPB8/4BdEX/KZD4+2BmKucEQ2L16c9WxN85zovTpt6Uz5F4ZoU4qLgZVlHoyGQUyEWmyok3tuj9CdHupgT7nCPQItLBD8+j8bxL3TO19F5PEAfYI/17z+9FGG/uPuSmMqUk8FaRbWPWIxkvnDhgjKv9+HDh4hFNsQ0I9HXmzHdqCA/ZObzZ2QTYiGKITPHEX8tbUGPlLAQtAF+KAt67NpIwM/9swloVjH169ee8BXzUTs8JdnN6bWn2tGWiPVL8RuQFhWLqUy2w/oRbv+0IKPKF9ukEOcLdlmoJPBqAm8T4sTlpvjNq8Oj8dW5/2sn7q8czM05Hbk+sy2XJzbizpSGxP3eHtUfHVFv7Yn6z4FYzGgohfjVuF/5rYh8xYCq8+fPc+rUKWWqkejrFXN8xSnWdi6Ike8rK5P+pfPhvTzLMoUpQ1iVFbFm/ELobzMI+XVyWr/u25a47NeegBH9EfsWv+1U+onT8/Po1QbHOZOJ9/d9k6lF8poU4iLpdlnpgkogJ0LsMuO7l4RV9COL869RVbIP6lpRX+lfzrie8Soj4pefACG+iYmJaLVa9uzZw/z58zE3N1c+C+HNWGry5TsL/jeRTnb5vgGEQ/eW2P2+HE1CfMEH9oEtlEL8gYHL4iSBNxGQQvwmOn//WsbgKdGcLKJccbi6utK7d29GjBiBl1fOpoT9fUs+fA4nOjTnUaemuPdq81IzdUaEnNuvojnaq3cbZZnNa51b4Hz88IevuBGUKIXYCJwkTSw6BKQQ542vRUSbIcL79u1j7dq1PHnyRCksNDRUWeVKjHouzMeDRfM40LQOF1rX52GnJth1a4FLz1Z49m6TOaI6N4RYTFESq2eJCNiyczNutWvEkWZ1Od2/G0FyIY9XPmJSiF+JRX4pCeQPASnEuctdRLuimfnatWtKE7NoXt6yZQtiHeeM5SVzt8SCm1uEowNXRg9jX7N67G1Sh2PN63GuVX2utW3I7faNeNipKY87N8W2WwvldO7RCteerV97uvRohV33lkpam65p0fbdDo253q4RF1o34GQLEw40qZNWVpfW2O3ejiYuruACykfLpBDnI3xZtCTwIgEpxC8SebfPYnSzWLFKTDESx44dO9i+fbuyyEZhj3jfRsqg0xHr44XTsYNcGzucg20aKSIpRFmcB5vW5VCzuopAC5EWQnq6pelrz1MtTDnewkRJf7R5PeX+fel5KXk2q6dEweYrlxDyxApNnNxt6XU+kkL8OjLye0kgjwlYbhyL+dqfMs+4o1OJOTCO+9MavzQYK2NBDzFqurAO1hJNx+LM6SEGVYnVqzIGUYkot3nz5qxatUoZ9SzyEfN+xWIbxjbKOacM3iedPkWrRKaJoSH43vqLp1s3cHPaOM792IvDHVtwqH0zDrVtopwHWjXkQKsGrzwPtmmclq5dEw53asGJnh249PNALFYvwfXEEcKdHFBHR5GiUr2TX9+nTsZ+jxRiY/egtN9oCZwfUzeb4Ir1m6MWm3B/bNqylhkjnMVrYRdiIaoBAQFv3HlIiKlIJw4R8e7du5clS5ZgbW2tfCcW2MiLjROM9gF7D8MNej1JocFEOtorp+fl8zw7ffSl0+PcSYIePVDSRLu6vEdJ8pasBKQQZ6Uh30sCH5CAFOLnsMXSkJMmTcLDw+P5l+nvRJOyWDhDCG/GbkXe3t7s37+fp0+fKhHvSzfJLyQBIyIghdiInCVNLVwEpBCn+fP06dOYmJjQtWvXzI0RPD09lTm8IgoW/b67du1i9+7dODs7F66HQNZGEpC7L8lnQBLIPwJSiOHw4cNUr16df/7znwwcOFDp7xV9vIMGDeLgwYNK36KIiMW834y+4PzzmCxZEsgbAjIizhuuMldJ4K0EirIQiyj3jz/+oESJEvzXf/0X//u//8vYsWOJj49XBliJ63m9V+9bHSQTSAIfiIAU4g8EWhYjCbxIoCgLsb29Paampnz++ef84x//4L//+7/55JNPmDVrlhL9vshKfpYECjMBKcSF2buybgWaQFEWYrGms5mZGX/++SdLly5l/PjxdO7cmQYNGigbKxT1Ob8F+sGVxuU6ASnEuY5UZigJ5IxAURbiFwmJDRfEnr5iVLSfn18RnfebgvWfU5i53w7di4AK5OdYzi6czaY7r1qfW4PTjZOs23KMgDjNe1qfil6vQa3RULgXH4U8FeKMCfryNW2hAslBcsj6DDw7vwmLDSP5a0Ybzo2sRcTSRkQta8z9cTWU+cWnhlQk43w8oToxi+uRsMwE5+m1Mr/PuJ7xem1kZSWd2F844xT3ZlzPePWZWzvzukiXuMyE66OqZEsn5jNn5PHia/hvdflrZGUl/a3RVYj4rW72tCvqYzW1DmdH1MRldj1Uf3RAfXAkmivL0Qc7KYOwsrKQ78X/DQ0XxtfAZNJ1tOmLmxRoLimhLGjZgJ/32bzsT4OaG7tW0H7YYuxC0xb0eOe66DU8OLeGQVMW4hmje7mM1zB6T9XP19vyVIjztWaycEnAiAhoE6LQRfmjSYjG9cx6bi/sybXprbk0zpSzw6s9X9BjdRNcZptkWwgk68IfH2wbxMUm3Br3HWeGVeb2mKpELjZFta4lqk2dUe/6nuSj49D5WKNTJ5Ic/MyIPJGfpmq5OL4mppNukPJKM/QkxYbj4WKDtc0TPHwDSUpOQaxFlqKKJTgglJjIYJzsvYlXp6BPSSbU3xtnR1cCQqKJj40iKjYRQ3re6rgo3JzseGLnSEBYDDp9xpXshRt0WiICPbG1scTS0p6QmMT0CDWM+a0bMmjfQ8L8vXhqaYmTuw+JWhHPG0hOjCMqMpYUkW+qAa0qFl9XR2zsHPEOjECTJcw1aJPwcXXE0tIGRzdfYtVatPGhHN0wjua9fuKhWwTaFD3apDi8XEQ6UZYvidosmWQ326g+SSE2KndJY4sKAU18FNHPrPEzO4bjsZV4HpxD0onpqC/+huva/vkuxHGrmuO5axxPt0/CZfc0Eq+uIeXxQXTPzDDEBoHu1VJSVPz3fvV8sxDH+j5my/xh1G9eh0b1a9O+bQ9+P3mbaHUK/pYn6Nf1RyaO6keZ4gO47RzA45PL+aFHJ5o37UC/oVOYNXkCyzZcJN4A8YFPWTd3PA2/a4CJSSP6DxrPSXM3JerMarsQYad7p/m5R1tM69ShVvkKfD91JdcdgtERxqLWDWnQZyQj+nWiXsWvqN24FQt+v0lSajK2Vw6zdPV+/KKTUUX6sn/xZHo2M6Ve45a06zOaP09YkagDgyqC0/vW0rF2BWrWqkW9Rm2Ysv4aDjd2U7Nccf7zbTl6T9uCf3AAhxdNo1OjOtStU43vmndh6WYzVFkNNtL3UoiN1HHS7MJJIFWnwRDtjz7YGb2vFTrXW+gcrqC1Oo724R40d7cSfnASDks6Yz6rGTfG1+X88KqZwvzqiLhm5vWM6Nl3Xh1UK+pnnqLp+c7YtCbxjDQPxlXPvK6kXd0M1R/tUW/tiXrPYDRXlqF9sIsUi0Po7M6jc/5LEWK9vx2GMHcMcaGk6tOWpCyc3srtWr1BiEVT7+YZVK7Xjt/2X8bi3hWWDOhKzdbjsfSOxunmZj766HMatR7BynWnsbe5TOPqxWny0yJOXbrIlmVT+K//+oTO/dcRoYpk9Zwf+LLhILYeuMqti0eZ1qsO1VtOJESbPSpODHfmp6YNaNxrFudumHP/yg76NatF69HLcI8JYFXrhnz28SfMWbeL69dPs3pqT4p90ZBLHpHc2LGErkMW4BSm4tHOCZhWrM7ybYe5c/MaSyf/QOlavbjiEY3n1fXU+PZTxiz8nfsPrrFxajtKl67DhdvXmDS4E9VbdGLzeSsifW5TrXhJpqw/wGPzu2z6dRilvm2DXbxx9Ki/6WmRQvwmOvKaJJCHBJIDXdA/u4vO/hIpVsfQ3tuO9s4mtH+tQnNlCZqLC9GcnY3m9Aw0p6Zlnsknp6I6Nom4g2OJ3DOSkB3D8FnfH9vf2mM9uzHx69qh2tqD5N0DSd7/Exazm+ZIiCO2fo/fpoE4Le+C1bxWPJ3VENXmLqh39id53zCSD41Wmpw1xyehOTk1055M287MQnNuLppLi9BeXY72xlq0dzenibX1CXSOV9B7PsQQH5qHVI056zcIcaqOYE8nrj2yJzQqAi8PJ7ZOH0nJGj9j5hKhCHGJai3Yc9OHFH0qTqcmU752I254xitN0TpVNFNbfU6X/uvwdblG2wYV6Lb6IlFxccTGRmJ5Yi7lvyrJ9YDkbAADnxykXOWGbL/riy5VtDDruXtoDmVa9eWy2zN+a92Qsj/9Tqw6rYk4ye8+VSqVYdY1D27syhBiHyZXLkPzTvPxCIsiJjoOf6eL1CpejWl7HrJv8kCKf/cz3tFqIJUkv6cc274V5+BIbh5cSIchE/CI1aPxvcS//l2c3iO3Ye3iT0yoP5aWFsS88OMhWwWM5IMUYiNxlDSz8BG4OqU5D2Y1x31dX6L2jSHxyARUxye/LHBZRDhT9LJ8J4RZEefjkxWBTj4xmeQTU9LE8uRUnJd35dKomlwYUZ1zw6sq/bpKRLyyIapVjVCtboJqTXM0R35R8lGfmKLYIcReyetkel5ZynyVHS99J+wSthybgPrQSNQ7+qLa0A7t/V2Fz5m5UqPXC3GqQYu79UU6tG1MhcpVqFatKuVKFuP/6ozAzDVSEWLTdr2wD0/rErA7PhLT5jMJyRLgnl/WVxFiN5uTtKzzDV98W54a1asrK5tVrVSekiW/5oKHEMPnh9/jfdRs0g7rkPSRz6kGPC2P0bV5H845uyl9xN/vtXh+g96fiTWqMPmy23MhDnXjx48/5t8ff0PV9PKqV6tCqXKNmLnxFptHf0/L6YdITknv7zXoSFar0aYkc+PgQtoPGY9HrI5UfSL7lw2jdOlylK9QnlIlijN5+X7CsnY2P7fEqN5JITYqd0ljCxOBrNOXRPPy/WkNcV7RjeAdQ4neN4okIYSvijzfVRBPTVOENWT7EDzW9OLpwvaErumAakdf1PuGoTkyFo0Q2/fI98V7lB8FxyaQfGgUyXuHoN7WC9XaFtmauLV3txQmN+ZiXZ4L8YuNrdpod+aOak+ZruO5+dSd+NhoLA8spl7jEdxzSRfiDr2xi0y70+7EGGo2HI1TTHrXgDaOBc3TImKPp6dpVa8U4/bdJj46WllAJcDJkmMHLxOakkW5AX+L/ZSt25LLTjFKPVMNBh4em0fZLBFxueH7UKUbnBJhRbuq5Zh7M0tEHOjFkK9K0rrLDnzSy4sI9uDMkVPY+vrx58jv+aLFcmKT0zJRBT7l3OHtuEdGKc0C3xEAACAASURBVEKcERGrwl25f9+G6JhwHJ/cYcPIAXz5ZQmW3Q7MRR/kT1ZSiPOHuyxVEiCrEGf0y4rXiyOqYza1IbaLO+K1vh+Re0aQdGxirgjli8KZK59F5CvE98AIZcS0aM5OE98G2QQ4o09aCvHrHn4tF8dVp2K7hVy4coUrGefFyzw0N2Pm0KY0GbOSJ14BODy6yi+dm/D/KvflonUAjjc2Y5pFiP0e76BKiW+Z9schHJ+5cuWPBVRI7yMOjnBncuv6tBg4GYtnfvi52/KH6DOuOQp/dXYhjvK8Q7Pq3zLo1104+4cQ5P6YIZ2a0rrfQtyjA1jVqiFffNaIjWet8fd1Ze+6qXxVohk3AiOfR8RhMRwe15qKdYdy/L4DwQGenF05lRpVTTlqH4L51plU+KwJK888xsfHjb2Lf6BMtQbc8wjkxsFfqdN+AJdsAggyW0uJMo3YfseF8KgInpnto3S5smy2DHsdUKP5Xgqx0bhKGlrYCLxOiF8U5duT6mMxtyVuq3oQunNYwRHk4xNR7/8J9Y4+yjxhZfqSaO7OMgjsVe+lEL/uSRZCXJX/+d9ilClfnvIZZ6XajNh4k4t751GhRg2atu1Ahw5t+HFgH2pWq06jtVewubaR+h1645AeEevU4RxePIq29UvRuEVzOrRoxj/+pxg9xx0l3pCC17Uj/NDkS+q2aEe7lg0oUa8jMw5aoDOIyVDPD11yPNc3j6R57VI0bd+ZTi3rUrLBaM6b+aEzhLGhVUM+rt2Slg1NaN+2OSWKNWTK4muoEPOIM/qIVYQ+M2Nwz9aUq9mYTu1bUfmTT1i47ThRagPqKBe2LhjIxxVMadu2OWVMmjNk3VWik9TYX9mEySfFqN10GY5PbBnZsz5f1WxK1+7daGFShc4j5uObYPxTmKQQP3/m5DtJ4IMSyIkQZxXl8z9X5croWtyb3gS3ld2J2jMS0Z+bK1FtTpulRZ/v/mGot3RHta5VWv9yDsQ3qyBLIX7dY2YgPugZDg4O2U8nF3zCE1EnROJq+xizu3ewdnhGaHgY7g62WPtHkBQfiae3L8liRBWgV0fi5mKLq0taXp4+PsxsX4Z+yx6kzVHWawj2ceK+mRn3Hj3miYsv8cli0YwXbEtNRauK5pmdBbeuX+ev2w945hdJ2vioFCK9PHH29sPd/jH379zD3NqNmCTRT63mzq4l9EofNW3Q64gI9MDi0X3u37+Pjb09ceqMKW6pqOPCsLN6hJnZfawdPYhM1GBITUWTGIOHrS22tr4kqVKIDPTA/P4d7ty4wR1zK/zC0wajvWC10X2UQmx0LpMGFxYC7yrEWUU54/1fv3yHw5KOBG8fSsz+tAFfudWvLAZ8KU3OR35RpiuJxTpUK94e8WYV3Ve9l0Kc909wpMsxSpQtR++lx7GyfcqZzb/wWSkT1t71zPPCRT9ypJclowd1xWToAtzCkvK8TGMvQAqxsXtQ2m+0BHJDiDMEWaxwdWNcXWzmt8VrwwDCdg0n4fB4kt91EJYQ3yNjSd4/XJm2pIivGFX9lubmd7kuhTjvH1mdJoqTK76ne6f2tG7Vig6dujN55iXi8r5oZYqT852d9OjZmy0n/iJek73f+QOYYHRFSCE2OpdJgwsLgdwU4gxBFq9nf6rCrQkmSr+yy6oeBG0dpEyNelMTthBftTLKuXdaf++aprkqvlmFWgrxh3mC9SlaIoMD8PL0JCA4Et1L7c55ZEdqKinJ8UTHxKN5cfh3HhVp7NlKITZ2D0r7jZaAmEecVUDz4r3oV772S23uTWuM/eKOiiiL+cFiQQ6xHrR69yBUW7qh+r01qtVCfF890jmrkP7d99rHB43WZ9JwSSAvCEghzguqMk9JIAcEksJ8cTiwkMsTG3Pmp+fLVOaFIKdFypW5MKIaV8d8R8iylukDrRrlWeSbTbDXNCP5wHB0LjeJDQtizpw5qFSFYZXgHDg6L5KkpqLTqogKCcLT3R0PTz8i4uLQ6PTKJhCiSNFXq9UkK5yTkzXoXxgRnWZWKnqtmviEJGXThxfHar2f6akY9CkkJsQri3S8S55Zd2h6v7KN8y4pxMbpN2l1ISKQGOSJ4+Gl3JjTkbNZ1o3OK0EW+b641nQ20czF/mDV+rZKn7NYhzpVmya8BoMBc3NzNm3aRHJy9iUVC5Fb87Aqqaij/Ti1ZDB1q3xJpWq1qFqxNGUq1OC3g9cISdAo/bR+dndYMXcSw4cPZ/KMBZz66wHRyS9O9dHjcXUNrXuMxdIrJlPE/57xqUS5P2BU3/b8cd0rc7ent+eZSlJkEJa3rAkJU+WSLW8vtSCkkEJcELwgbZAEgGiPJ9gfWsLN2R3zPELOcyH+vQ3JJyaRYnMSg/rlIUJ6vZ7Q0FBlVSfp/HcjkJqqx/7qFky+qcTQXzdxz9qJx3fPMr5TM74q1Yp9d1xJDHPixzY1qVCjPSPGjWNIn3Z8WrICG677viCMetwurKFll7FY57YQd2vLHxc9XijvTXU14Hv3OD1r9eXcrQApxG9CJa9JApJA3hHQadREulpif2ARl8Y3yLM+5DwT4pUN0JyYQor9RWU7RLFJwJuOhIQEXFxcEFGyPHJGwKDTcH7NAEy7D8U6MH1qUKqeIOuL9K/XitWHHxNkvZ9iZWqx5YIrKp2O2GBn+lUtQ/+V5mQfP5UhxD9z6fY91s0fxaRZC7nw0JUkrYEUjRrr21ew8wpXjEtNNeDz5CFXHrhlbj8YaC8i71GMmjaXPy88UPYSViLiLEKsCnXj3OGzPHrqhVi1OjnCnUMblzNlyhwOn75NaIIKdUIQRxeM47vSdZg0ezduoUWn60JGxDl79mUqSeCDEtAmxhL1zAbLjb9wdni1XBfkPBHirT1JeXIKQ3wYqYbsf+5fBy8lJYVLly6xc+fO1yWR379AwKDXcmPnWD7+wpT5664THJOg7COs0yTi4+5OUEQCsT7mbNp+AE+x+bA4kjzoV7Ls64W4SjEqVKpAmfYdadW8Ft+Ur8b2KxbERQWy9PtW/HbEFvGTSvywurxhGD+O306EDkJtDtC4Tg1qVOtAn5YtqVyqPKP2m6U1TWcIcdwzJjSqS+vOfXnoHkZSsA09OjSlSqVy9OzTgvp1ylJ76Fa8fW0Y3aAy//3R/1C1alvO20a+UPPC+1EKceH1rayZkRMQA1f02mSi3W2w2jKeyxMbceanKrkiyrkmxGubo/5zIFqLwxgSI5QBQu+KXTRTnz9/HguLLLv4vGsmRSi9iErDPG4xsVMFypb+luLFPqd4467MXL2Na4+diVGlINIIriHOD1g6bSBff12M4mUqccIp6oUm3/SIuPT/48ffT6JK1hAf5MyUge35V88V+Pq5M7fbd0zb/VyIz67sSe+hG4lK8mdamwZUqjUTz2gtWk0oR8f8SL0qy/ATfcS9mzF76z5G1q9FtbpNMfeOxaCL4VD/rnxdYhh24Umo1AnYXl1P1bLF2W8bjtfdI/Ts1IfT971fWm6zMLtYCnFh9q6sW6EhoE/REO5ghtX2KVyd3IzTwyr/LUH+20IsBHjvELQP92CIC8kVzuKHh2iiFq/yeAOB1FRS9XrU8bE4W5uxdf1v9O3Znab1KvP5V3VZftKSZH0aw0i3ByyfNow+PTpRo/yXDF99lIwNmdJKSBfi7/px3zE0XaQ13F4ykUpN5+Hu84y53WszbbddZkR8dmUv+gzdRFiwNS0bVmPaGedMY5PC/XF29SLU8wGjGnzERx+lnVPPuSlpDNFO9O7YgP9tNpI9Bw6wZ98+dm34lXKlijP0qAP+j47Sp+sAzlgEvfCDIbOIQvlGCnGhdKusVGEloEtOJMjyMja7ZnJlUpP3FuP3FuLVTUg+8DMpQoDD3JXIK7dYCxG2tbVVImPRZC2PVxMwpKgw27GaMxed09aNFmtLa9R4mJ/hx9bVaTN7F1b3zrPrgg2JGVloYtk5phaNug7AKTprf3y6EDccxiOXyHTx02O5fSrV28/G3cftZSFemiHET2nZsAbrzXwzSkGbFE9EWExa03SdL2jUsi89apak2feT8YzRo4t0omf7BvyPSXdmzJ7BjBninMakSRP50zJICnEmSflGEpAECjQBMT9UExdBqN1dnuycwbkRNd5ZkN9LiHf0JcXyKIZwD1JT8mbakb+/P7/99hvW1tYF2gf5aZwuOZoV7f6PDgNm4xUlhj6lHdoID2YO60TDaVs5uWYgNdoMzNyNSaQ4NaMxjbv0xykqa/99RtP0N2y4/DStNUITxb6ZQynWcxneomm6U3Umb36M2NnYkBzMjGoVlYg4MtSeVo1qMmDDg3QL1NxZsZABnbfjK5qm2zZm1X5LfC5v4PPPSjJuwQ0SEj0Z3aUpn/bfRoI2WZm+FudlybifB3HZOTpTiC/IiDidqXyRBCSBXCMgoj0R5Wk0GmJjY4mPj//bI4WVBRuS4ohwfoT5uuGcG1mL00Nz1mSdYyEWOytt7YH2wW700f6k6tI3ms81Mi9nFBkZiY+Pj8Lr5avyG2Ww1u7pfPLp57T/eQYX71lgceM8s0d2o9jnFVh84Caej/bx7/8Up8/Q37j98CFH/pjON9+Upd/MkySkN1unkcwQ4n9Q7JvmnDF7zNFVc6n3xWdM33WF6Ag/5rf8f9Rq+QN7T15m18zmfPbPL+kzdBfRmiTOzm5DmcrVWXTkMlcPraR19VK0nneOcCHEGYO1UlRsm2zK13W6cMDaB/Od/ShbrgxjNl3g0b2r/DygC//5T2eehqvwf3iMPtXLM2bOVnyi1UXG2bJpusi4Wlb0QxMQi1V4eXnx5MkTTp8+zZQpU6hXrx7/+c9/WLhwIVpt7omaQacl0vkRFpvGc2VS47f2Ib9ViNc0SxuE9Wgfhvi0qSsfmp9arUaIsuwzfpm8Th3H3e2r6GFqQp3atalTpy6tO/Vj6ykLYpP06HVarh5ai6mJCXXr1qOeSX36rLpI+Cta/AOeHGXc90NZMGM49U1EWlPmrt1JeIIWDDp87pxmZP36mJqa0rD/QjYumcnsRSeIUwLrKI7OboOpiSkmJvUZNn89HnGJxPnbsWLeeI5Z+SvziON8bZjesCELN+4iSqPm9t4FSlkmJiY0aPAzp828lZW/1OEerJs7ggYNGnDYwv/lihfSb6QQF1LHymrlPwFPT0/69evHp59+yv/93//xP//zP8rglWLFinHv3r2/HRG/qoZ6TTLBVlcwXz+Ki7+YvLbJ+rVCvLIR6t0/ojXbhiHS51VFfLDvgoKC2L17Nx4eHh+sTGMrSKNKJDwslKioaDQv7rBg0KNOTCA6Oo64pOQc/aDRJMURn6giJdv0b9Gak7ZU5qvme4uWmeREFQlJWnRZu5/fAFOM6k5OikPMI395PIAOnU4M2ntDBoXskhTiQuZQWZ2CQ0A0QYtpOZMmTeLLL79URPif//wnQ4cOJSQkd0Yav6q24o+cKjIQX7PjmP8+grOv6EN+pRBv6Y7m9kb0gfYfpAn6VbZn/U780be0tOT48eNKU37Wa/K9JFCYCEghLkzelHUpkASio6OVAUj/+te/+Pzzz9m3b58yxzOvjTXodYogB1lf487CHtmi42xCvK4Vmqsr0Ie6kZqcOc42r83LUf5CjMPDw3O1GT9HBctEksAHJJCnQiz6duQpGRTVZyAuLg53d3dlcJYQEyHEffv2RYwM/qBMDHq0CdEEPr7A3UV9OT+6Nr7zTVBt7IzmynL0YWIUtObD2vSOfxuSkpJwdXUlMTGxQNv5Qf36jgyLim0fUD9zrag8FeJcs1JmJAkYGQExKnrlypWZ0a8YmCUGoGzYsCFfa5Kiisfv3kkizi1HH+Kar7a8a+EXL15UdmyKiop611tlekmgQBOQQlyg3SONM1YCYmehy5cvZ5ovlhu8detWnvYNZxZWSN+I/Yvv37+vjEQvpFWU1SqiBKQQF1HHy2rnDQGxk5CYcpObU5PyxlKZqyQgCRQUAlKIC4onpB1GTUAs1LFnzx7WrFmjTMkw6soYgfHnzp3j7t27RmCpNFESeDsBKcRvZyRTSAJvJRAcHMyZM2femk4myD0Cixcv5vHjxx9kBHruWS1zkgReJiCF+GUm8htJIMcEMkby5vgGmTDXCIiFIMRiH2IFM3lIAsZMQAqxMXtP2p5vBMTgqzt37ihN0aJPWB75R0C0RoSFheXJSmX5VytZclEiIIW4KHlb1jXXCAjxvXLlijJPWIiyPPKPgJgqJtbuFhtFyEMSMEYCUoiN0WvS5nwjIKbQiOUphfiKAVrKIgkGLTtHNaVul6Fcsg8z7g3NUw24XNxMW5NKjNz1WFmwPwO2waAjPCCYaLX44ZHCg5W9aDXrkrI9Xkaa/HoVEbHYPlEekoAxEpBCbIxekzZ/cAJCcEXENX/+fPz8/LKVrwm9Q42PPuKjj8ozbeVl4nXGu1q9PsmPtaN68PFHH1Him1F4qp+v4q+Nd6V9uVqseBCoCPGtuU2p/tPJzM3ps0HJhw8ZK0e9amOCfDBHFikJ5JiAFOIco5IJizIBMS9YbGUoFuXQ6bJurJ7C0w0/8emnppia1qDO4Pk4hqrSUOnU+Ls44+LmzTOrW2zbsYvblo5ER4dje/cyW3fs5Iy5K0np2Rn0iThb3uDw3k3sPXwUcztPtAYDOlUcrg423H/4iEeP0s4HD6zxCYlG3KpJCOXe5ePKqlP7T17FJywhrfyUBNxs7PDyDcTu/mX2bdrJ2es2xCQ930w+u08NhNlcZIBpQ5o3b8knX5dmlVloel7xWF4/wHdfl+OXzZfxCYng+tymVBm8D2e7exzavYlNxy7jG/N8D1l1TBiPb11Q6n3toR1R8WnXdCnxOFqZ4+3jhfmNy+zYto2bT73JtEobi4v5LQ5s2sS+A8ewcvIlOft2QNnNTv8khFhsnWhtbS0X/XglIfllQSUghbigekbaVWAIiO0MhfiKP/IvRVsqT4Y2qUTN0ac58cdvlP6qHcceeiH2XjckhbJz2XRatu5A2/otqWdanar1mtG/f28aVW9F9arl+LpOP/accVREyO7YFFo0M8G0Uwc6mdahceN27LTwJTHYgUUTe1Pzu9rUrt2B2rVr8913Hdl84iHqlEh2Du5DkwZ1aN+jK1Vr16fHwFHYhyejj/Vk7uhhtO/UlbYNqtG0Ug0qV6zPouP3UaU8j3QzQesSubJ7PiXrDOb0nXt0LF6KtmMPEivUPu4ZM5rX56N//odvaw/l4PUnXJnblM8rNaZDp1a0bFyH4hWq0WPIn8QCCSGObJg/grpVWtK+cztafteYCav34BOtQhXlzBjTOnTo2J4undpSt/KnVGn9PVvMRB9vEmbrFtC5wXe069SDzk0b06J5J04/9sw0801vxA8mMYhOLCUqBnHJQxIwBgJSiI3BS9LGfCOwfv16zM3NX1t+yMMdVCn9OduexhBsdYE+9cozedsl1CkG9InBLJ32Ax9V6sLOiw+wN7/KiPblKVavJ7vPPMTW4ja/tDZlzLwTxGmCmdqwErXG7cbZ2w9v54fMqFUVk0nnSNYk4uPuqGwJ+NDsBsNqf0RJk26ctfTD5/ZaqnxdmpWHbuMXGMATs2O0L/4NA0ZcIy7ajSG9W/JR6QFcMLfmmc1dfurVkuoTtxClenmH+OQoX1aObEKHicvxjlFxalIbajbrg2VgEuhUuFudo2Wpysw9/JiwmFhuzG1Kia++YsOpB8qgtbPrB1O6ZB/cEhI5vuc3Pjfpw/qTD/DxdefSzlk0q9WQPX85EBP5lBYffUzLbjO4Ze2Am/Nlev3nW/ovvIsq2pEfWtWl99KDePoH4v3kKt1b1aHzmiuv9cGLF8R0JjGtSexn/NIPpxcTy8+SQAEgIIW4ADhBmlAwCRw8eJBTp069dsEIgy6SXUN68vk/2nDbyQMXi6sM6lqff9afgk+MOlOIhy//kyi12JLQi6WjGjNw7jqCk/RoEyPYMu0Hxs47SpxOT0SQB/csrTA3v8/ZY7voWOFbKg07nTkYSpccx7FF/flPhabMO+OE1qDl5tQGVKk3nyARggNiL+ILc2vSoPVC/MPShHjavrvoDamQGsvRGcMp2WAm/lmakDPu87Y8Q/N/lmH0rD3Yu3lwdedU/lGsFjP3WaFNBdFH3KP8d/xhLvZSTkH0EVftvosEkTcQ8GAjFcuW5JyFM0tGNOG7fmO5cPcxFhYW3L2wmx5NSjNl21nCwp/QqUJdVt/xxqDs/p7M2raf0/mH9YSl6IjwdVealy0e3ObUwVU0qluGVkvOK2Xk9J+M/mKx8bwYVCcPSaAgE5BCXJC9I2374ATEaOiMJk3RFP2mqUnRz67Ts0UlylavpeysJHZXqlezEv/+/75lr01wphBPWH+IWI0BdZQ3y0Y3YfD89YSqDKQkhbN1Ri/GzTtKbGIImxaN4ONytWjboRM9e3ajUenPqDTijCLEenUsF3fPpXixakz8w5y0XugUbswwpcbQU2Rd0sJs4wAatl5AYLoQLz9nqYzuhjiOz/yZkk3m4R+b9Q5INeg5v6Yvn3xZjNr1Gyj1qW9qQrmSX9P9lxX4xOvQJr8sxGKwljbdS4EPN1Op3NectnZk4U/1KV6+Ku06dqZr16507dKFTh07sen8QyLCn9CzWgN22YSl36nh9w6f0+373wmOcGPbzAFUqtWQ9p260KN7Z2qV+or27yjEGQ+OWAbzwoULylaUGd/JV0mgoBGQQlzQPCLtyVcC4o+2GJT11sOQzIN986lVri7bz93EyclJOZ/cPYbpd+VpPf0y6vSm6bE5EGJ/28OKiE05ZE5oZCwpCb6s6FybqiPOoNclYX56GzXL1mXwxN1EZQZ4KdyeZ0qVZrMJytBVfRx/tClP4zabCI1Ii4gX50CIDdogRtT4hA5DfuOxQ1pdHGytWDd/MCVMf+Tyk1A0ya70rPAdmyyeR8SvEuJztm4sH9uaFqMX4hoQqewhHObtxN71W7j+xIeY6Kf0qNqA7ZYvCvFarC+tpWH5qqw9/ZCImAQSwhyY0rMpHZe/W0Sc4T8x3ezkyZPKIDcZGWdQka8FjYAU4oLmEWlPvhGwtbVl586dBAaK6TlvPjSxPqyZ0I26fRbhEZb0PLE+mg2jmvBt9bY4hKb1EedEiIOdz1CxXEm+33gdJ2dbdi2cRKXPPqZs77U8vn6BHyqV5r8/+pR1f+7j7NmznDhxFjN7b7yur+GTTysy/tfDuPt4cn3jJEyLl2DOXlfU6X3EmUKsj+PgtJ8pUX8e/jEZyp1meviTvZT5ugqrzns9nzucqsPhzl7ql/2KxYeuExfnSrsvvmXQ8hP4hUcpfcSvEuLLnlFcXjubemWrs3j/edxc7Nm+9GdK1+3NwTsexL1GiDt/vw6bm3/QuHJZZh24zDO3J/yx+Be+KfExtcduJf7lbu3n3N/wToixmGcslsSUhyRQEAlIIS6IXpE2fTACoi9RDO4R0ZLYcF6s0vT2I5Vw55uMalKTedv+IiEl67xhA34311G+ShXW37Fl5ewhTNt0lDiNgeQYf9ZO7syoRZsIV5qmI9kxZxiTF4rBWlHsntWZT74qTcVKFegwZAQrpvbn86p1aTX5N1r8619U/Ne/KFPqG7799ltKlfqWGX8cIio+gSMbpvDZFyWpVLkSpUt8xoR1R4lN1qOLfsbP37dn7QWrtKbp1DguzB1DpS4LCYjLKsQp3FnQihqmY3CKybpKWCoJgXbMGNiI9vO2ERgdzurvq/P5VzVZs+88V+a3oe64tKZzwSzMah/fVSvPbf9k1BHe7P21BzWqfEulShX5ukYTxmy/TUSSjqQYW4bVbc5e24yI2MC24aXoPWwn4bGerB/RjNKly1CpUgW69e3DtOEtKFvuWy54ZzSCv91Dr0rh7+9PREREejP9q1LI7ySB/CEghTh/uMtSCwgBOzs7jhw5QkxMTL5bJH4UqOKiiIlLRJs+t1iTmPj2BTMMepLjowkLDiYmMZn0sVN5Ux8xr1mnU+Yv56SApLg45ceCWv1u0WhCdDSxcXHp5aSQmJjZHp+TYl+bZsyYMcro89cmkBckgXwgIIU4H6DLIgsGATEYa+nSpW+cnlQwLJVW5BYBMc943bp1uZWdzEcSyBUCUohzBaPMxJgIZDRFJyYm4u3tbUymS1slAUmgEBKQQlwInSqr9HoCoh/4zJkziNWyMuaavj61vFJYCcTFxXHs2DFEv7E8JIH8JpCnQpzxh06+pmb+0Zcs8o+FGJD1+++/c+7cOaWfU/oi/3yR3+zFiluOjo7MnTsXsehHftsjy8+9ZzG/RfV9ys9TIX4fg+Q9kkBuExD9gsoAI51O+eOb2/nL/IyXgGghEa0j8pAE8pOAFOL8pC/LznMCogny8uXLsi84z0kbbwHiR5pYlzpnU9eMt57S8oJLQApxwfWNtOxvEhCR8LVr19i1a5cyf/RvZidvL6QExDKmT5484dChQ4SHhxfSWspqFWQCUogLsnekbX+LgBgd7eDggIiK5SEJvImAmMp25coVpfVEPDfykAQ+JAEpxB+StiwrzwmIAVlikQ5xvmnDhjw3RBZgtATEQC4xeEoeksCHIiCF+EORluXkOQHxB1Q0MS5YsEDpE5Z/TPMceaEsQKxNLXZtkpFxoXRvgayUFOIC6RZp1PsQEINuXFxc8PHxeZ/b5T2SgEJAjC0Qc82FIMtDEvgQBKQQfwjKsowPQkBExLI5+oOgNrJC9KjVcYSHhym7MMWr3m3dayOrrDTXCAlIITZCpxUUk1NTDaiT4ggO8MHD3R1f32BiE9Tosu46kJqKTqsmPCgAF2dnHB2d8PEJJkGlxZDeD2fQ60hKiEet1SN75gqKd3PPjqRwV5b1LaXsqFSuXDnEWbZaTXpMWIGFWwgphlTCn91mUONebLzlTtb9n2I87zK8TxO2/mXL9W0jKF1W3F82fQeqUpTNyK/cMO64vzziWZMYyYVNv9K0p+857wAAIABJREFUdGnKV6xIxYoVqP5dQ1YdMiM8UUth7gpWR3qyZuoUNh58jNqQSkxoAOHhKvl/LPce7VzLSQpxrqEsehmFe1jzS79OfF7sW2rWrEmFUl9SrvXPnLvviFqXJqkJET7sXjaK6mX/w7flq1CzaiWKlShOq2FLMHcLIEWfSoyPFeN6tmDVObdsf4SLHtHCWeP4IEem1P9fvmvWmalz5zP/17lMGD2AGmVKUrXDJJ4GxOLvfIUGXzdl2UmXbM9AtNtf9GxRgSXnrbC8uJl+42Yxa9Y4WtQqyb8/LsXwWeLzLMbN2oJD6Auj41Pi2Tn/B/796ed0HzKJo5fucPPKKUY2/I4S//6KH2YeICheW2iFSRXuzPyferFs+03UBi2rG5Sl/4h72fgWzifO+Golhdj4fFZALNZxYnobSpVvx+qdZ7F3cODW4bV0aFCRBr1H8DQoCVBzYMIAPvmqDD3GLubs9UfYW95n26IfqV3xCxp2nYJDcFyaEHdvwaozUogLiHNz1Yw0If6GiUtOEm9Iy9qgTcJs21xqfdqAE5ZeBDpfoUWppiw783ohfm5UCncXtqFC2UH4Zg2fnydQ3sXaHebL4l8ycPbaLPsvpxIfZs/yIQ357Ju2HH/sTVKkHzaWzsSnb3es1yXgbGlJYEzG1os6vBwfcnTfTg6fuomzXyQ6fSrokgl0c8HVzROPJ7fYu8cMaytL3AMj07dvTCUpJgRbSxtCohOzCb4mNhSrJ24EBLpz9dIxHnpEYEBPiLcDJw9uY9+Rq9h6hKBJEcBS0SRE89TsArt3bmLr0bN4haftm62JCeLBQ0cSdekgtHE4W9jgF5XEcyG+jJvtY0bWKUGrQZtweBZCcvo2my8gkx/ziYAU4nwCb/TFpgQzonIpuk4+Q3z6f2qDXsv9g0tp2bw/1x3DSA59RI2Pi9F26nb8o58PfNEmRnB27Qgqf/YVi85bv7MQp8T6c2TrUiZOn8epGw+xuHkJc5cgVLGRPLp9C4+gtL2F9Vo1juYPMLP1RfxJTTXoCX/2mC0rFjJr1mLO3bAiySD+0GnxczDnkdVTHB6eZcHiRVy/doMb9+1J1KRVTpcUiflf13jkGKhE8Ubvvw9YgTQhLs3EJWczhRg0PD2wlAaf1OWouef7C3G6eL5cHR0Wa/pSpmwb7gY8f/bS0ulwv7OftpW/ZcnJh7g/OEi/wZNwiUkTM3WsGxO69OaIbQTCTvtTi+jYriE1WrfCpEkbWnTuy02nIAyqCPatmU3L1u1o16AKpYoPZPpwE+ZuOkR0sgH0Wmwu76BRv3Gctw/JJsSRTpfp36sXXbu1pXzNusw8aoPL9S0M6dmMSq1a0Kh5Oxq37cGxu/ZoVHFc3z2LRq1a0K5nD+qVqUyfsbMw908kwu4YXdr/gmt82o8GXbQrE37sz34L7yxCfJoj80byxT/+mxIlarN021Ui1S8Tk9/kHwEpxPnH3rhLNkQxp9rHVG45gFMWrsRpdMrcS3VsBB7O7sQmaQm8+RslylfhqJ34g5b1SCXR6x79Wtek08qL7yTEujgPRg/pQelSxWnfvTMt65WnYplSDN56hyj3x0z5oTd/3nBHkdfEcHbNH8r0laeJ00O481XqVK9AHZM69O5eh+o1KtJr6S3U+gTOLJtB/YqVqVK+JNXr1mbM9CmU6TQHW/9YUjEQZHWGn5qUZv3JO2jSm92z1ki+fz2BjKbpHsMmcvnOPczM7nJi53q6l/mGfzUZwwOv6PcS4oplBxHwWiGOZFPXhpRvvoKI9Cg8q4VxXvcZ1KE6E7Zfxv76Fkza98QuMu1HlyrWnh6VTdhqEUqy30N6NC7H4FUHsPfwwt7iCsNNa2A68iCapDDWzh3KRx/VZu7vp7B5/ITNC/pTpf9UngTGo1PHsndOW5r9MB6HsOyLhITZHqNRza/5ouMsrlk64uH4mLG9G9Bx0nKeunvh/PQO07o2p2q3FQT4u/Fry5oMHneYZ/6BOD88Sefi1Zl5yIVQ6+3UrdwDh+i0/FMiHOne1pSNd59lEeJrBHh7MLVVSTpNPIB/SBQpb2hJyMpJvv8wBKQQfxjOhbCUVOwvbaRC+bKULvU1X3z8H1p3HMKmA6ex9wlCo9NwY6YpFar1xSXx5SFYqbEeDOndiuqj9uZciFO1WGyfQJXSxTn12BuNNgnny9toUrEYXdZeJ9LtHiO7tmXjpQwhDmXztJ5MWHCMeE0YS6tWoXbrlTwTzXbqOB4emEKpKrW44RvOyXm/UOpftdh6wYbkZBVuVzfSumJtdtx0xaBL4vruhVQxGcQ1+xCyjkUrhI7N9SqlCfE/+ezLb6hSrTrVqlWjapUq1O86jOPWPmgNqYoQN3tT0/Q5qyx2pTVNv1GIU8JZ2r4BFfrvRvXy40e8x20Gt6/M5P1/vSzE8RlCHIT1vlFULPYPNp8zw9r6MVZW99k2qhHfluyHR0yaELf6ZQ0+UcmkpqZgf3onTT9uwYGrLsQEPaXX/6vKlEX3UL8wKizM9giNapblsF0Yqal6XC8vp0m5fzBny1FsbB5jZfmA/XN7U+bT5pi5OLKobTFqNGrHqt0nsLB1xsMvhMRkXboQ98LpjUIs+og1bOhTjv4rzdObzbPglG/znYAU4nx3gfEaoNelkBDhy4MrR1g29mf6dGlPrUrfUL1RX27ZBnBveQcqVBuAS8LLIYk+2pnBvZrRZO6pnAuxPpbdE4ZQZfhGYtXpU1BEhNy1Gd2FED+7x8hu7dh4ySM9IhZC3IuJC44TF/SAcmVLUemHBezZv185d66ezCelKrLsjguHf/2Fan2XERSbFlkkR9gxrmcj2sw9QVKUHytHNqfXlHX4xcupL+/6xKYJ8VeMnnuYcJWWpKQk5dTonndUisFaDb+oz+IDT8lKOPTJSbrUr8y6i3ZZis2BEKPh6rzmlCvbGYeo5+Vo40MJikjA5/4ROteowIoz5jjc2KpExPYZEXGMrRIRb7MIwmrrz1T87CMatutE165dlbNz54706rOQoNg0IR69YhdRoikaSAiyYUw/U0auP4X9jVWUrteCC64vDCIDwmz30qhmL6yDRF+vHpfTS2lS6iO+a9oySzmd6NBhIs+i43G3PM20od1p36YZtSp8S6kOozl91x1/JSLOKsT2dG9r8kJELIU4y8NTIN9KIS6Qbin4Ruli3Vn1+x9YBT3vbNLGh3Pj0BrqlKjG8l338bjyG8XKVmG39fNpJSmJYTi7BBJif5puDUsxaNuNnAsxseyePIRuc/Zl9t2i8mZyjxb0epUQJ4SyeXKaEEf5P6BcmW8o1XEYM2bNYMYMcU5l6rzfuOTmrwhx9+k7iEhKlwFDEheX/EDJGiOwfXyTnrXqsOCABZqXf1MUfGfls4VpQvwNkxedJOE1TaIRXo/4oUwxfp75Z6YP/n/2zgK8imPt41z5bntve6VGC8ULwQqBAMHdHYq7u7u7Q5HiroXiUFwCBAIhIYG4EiXuevyc/L5nNgQCnIQACUR2n2eS3dkd+7975r/zzjvvGDRJWGyfRoWv6nPONjBdK7JCxOB7fi7fffs9U9feIFaZWrDrkQn0HDyeoR2aUbZ8V644BuN6cyvVm3bkcViqnvuZ7WGqlTNj58MQXI5OwaTw/3HGNZykpCSSkqKxObaRBeuuo3yumh6ajojRxrF/6RCqN2tN707VqNdvEeFpNl/pWvAqERvwubaRRmU/Z/1lm+flxOJ46QALlp0kKNibA9sOYOMTSWSID1bnD9Oq8jf0GLkHNxuhmm6GfaT4HRoIdThHY7OSGRJxj5UPpI/UdFWRT3MBAjIR5wIh5MUq6IOu8e/CJRm26xEvqVhP0OOzdC1ZhqU7bhIXfIcq//qS1iPm8jRSWFGDv8VvmNduQot6lfm2RENO2fi+IOK1pz1eMWh5E5dUIi5bdixeCamlxnpZ0LaeSapqWoyIWzRg/SkXSf0W52vLkDKVUkfEUY+pV6YUdRbeJEmtktwXxrpeo8/AoVgHRkhE3HZSOiIGYh4foHLp8tSpU5Oajbpw1SvxzSrJMW9FII2Ixy06Ic3VG0sgRqqbprSlcMlyjN90gEfOzvyxbwVm5YpTtd0s3ELSY59KxMJq2jfDOWLQJ4Uxp0slvv6uIkNmL+eKtT1nV7WiUKFCUmg9cRX+cRq87mzlP9+WZ8aq49hYX+eXFjX41sSM/bZhJPtew6xScdr0moeNizv3z6+jm9l3NJt//sUc8StELOwJ7u6hjsm3/OPLr5l3zsco8b1KxKAMfkiXFqaYNhiElaMHjyz2MaxpScyGb8bP8yEDf/qWXrPW4BwQiLv1FX4pU5yBc64QaLuX6uVK0nnZEaytrzNvZBv+96+/s/WVOeLnI+KW31C/80IcfMPkOWJjL+EnjJOJ+BOCn6eL1sWxouvX/Pc7M0ZP34HVI3uu/rGXriWKUrrBL5y0C8Jg0HD+15H8+z//xaxZfzYdvsSpvYukTvCvf/kLZXvOxzU0KZWIaxWmdvO+TJw6lakiTJzI1IWbefw0Kh056/G6/Bs1ypSg2rgdPLC5xZRh7fnnZ39PJWKvu4ys9SW1O47lxJ+XWd6/LP/5a0nGzz9DolbN2dkV+K5ifRYevIrV9ZM0r1sdk8oT8EuOM0rEKdoQFteozF8KfUXnfvuIlY203uuVTQpzYU4LE6Yuu5DhiFhYtEc+fcLiX1pS+vsikvONokW+o3rzX7hq7/uapbqWB+taU7n82EyMtVKrGvfMnY0T+lL6q28oVqo0pYp9R5EitTA3r8rXhYuyx+IxCZH+zBvRlm+++5HSpUvQZ9xYOlatyz77MNCr8bh3jKZffUfpn8pK6VsMnIVTSBz65HA2zB/KuDV7U62kn6NjiPdiSuMaFP6+Cy4ZqADCHf6gkVlv7CTVtBjMavC1u0jvsmUp9VNZSpcsQsOuQ7ntFoxWGc+1VZOp/u13/GRiQtnSpahRYza2vonoVBGcWNaT/30v6l6dDh37U6mKCbstvVBEeLJoeH9W7bJAaTBwdd0g/vu/wgxftIXgpAxUE+8lYTnRhyIgE/GHIliA0yviA9k8fyRm1atRtaopptVr0b7HLCxcAkkbqOg1SVgf2UiXGmaYVq2KqWl1mrVpx4iB/ahRvDgTDt4jIcSVNQPMMTd/LfwyjUtPQl8bUahwubqFhnVrU93MjJpmVfnqv19KRIxOidOx7fSqWYMaNWrQcvAKls6Yzrqd10nWg04dza75g6hhVh0zMzNq1ZqEQ7BY2iJUoKuYtfkMca8tsHQ/PIKvi5djp3VoAZb0x226Ij6e6Oho4uIV2WRYpEeRGE1QoD8hIZHSu6lLCOHkwT9x8BPrd0Gv1ZKcmEiiUoveyPSDTqckJiaGRIWatCW7b6KSgl6vISHkIf3q/UztNbfefOQtMSkpaqntickqNC+ntqV5ZIUiUboXFp26hjh9VomJiSQplW/BS7iA1ZJuaj59FvL5J0RAJuJPCH6+KNqgIzkuhrDQCKLikl8xtEnfPo0qmciIMKKi41OdCeiTcbx+DSf/l/PH6Z9/27laoSAhMRlVlDu/tKmTSsRSIj1qtUpy2G9s9yXhTlORGI/ouDLzS63TakiMC2bfpKaYtBlGyOtLUd9WQfl+gUMgRafA+eE5po9oz4816nPDO6bAYSA3+P0QkIn4/XCTU+USBHRRTnRtXYt6Ky9lY40MBN64zOL+XSj91b9ZcM0/G/OWs8qvCKRokrG79QczZ85k5SmrlwaF+bXBcruyDQGZiLMNSjmjT4FAijYeK4vLXHMPy8biU4hxc+Lsrj3sP3ORGNlUOhuxzcdZpaSg1agkq2etTt7AJB9LOtubJhNxtkMqZ5gVBNRqtWS5bEx9nJX0L59JwWDQv9jJ6WX8h52liC0VdTp0BoPkMezDcpNTFyQExDudFgpSu+W2vj8CMhG/P3ZyyvdEID4+nt9//x1LS0u02vTuG94zQzmZjEAuQkDYHgQGBuLt7Z2LaiVXJTcjIBNxbpZOPqybwWDA0dGR3bt3S5u058MmfvImafUa7j+9+sFB5CMf74eAk5MTy5Ytw93d/f0ykFMVKARkIi5Q4v60jY2KipJGwLGxsSQkvLkE49PWLv+UrtAksfHmLK66nX7vINIrNalOWPIPMh+3Jc7Ozri4uKDRyB80Hxf5vFeaTMR5T2Z5ssb379/n2LFjKJVKec41hyUoiHiH5VLcwl3fO+ywXCIT8QfKScwT63Q6hBZIPmQEMkMgR4k4zWBB/v/SeKMgYiHUdOvWrePZs2cvjFgKIg4fq83J6kS231mCa5jLe4ftdxajUCfJ8kpnePW+8hNTMadOnUJohN43Dzld1vvQzAgvt97LUSLOrY2W6/VxEBDekUQHItTQ4lw+Pg4C8oj44+D8LqUcP36ckydPSiPkd0knP1swEJCJuGDI+aO30s3NjZ07d2bqveqjV6qAFCgTce4UtIODgzxfnDtF88lrJRPxJxdB/qtASEiIRMJ3796VRsT5r4W5u0UyEedO+QjtkEKhICgoKHdWUK7VJ0NAJuJPBn3+K1isCRZBqKEFGWfmyzn/tT73tEgm4twji/Q1EUQsHNkcPXqUw4cPy2rq9OAU8HOZiAv4C5BdzReGKMIgRRCwfHxaBGQi/rT4v610seHIgQMH8PT0fNuj8v0CgoBMxAVE0DnZTLFO8siRI2zbti0ni5HzziICMhFnESj5MRmBXIKATMS5RBB5sRpC1SbWSIp5L+G8QKjd5OPTIyAT8aeXQVZrYGdnx4MHD7L6uPxcPkVAJuJ8KtiP0Sx7e3tu3LghkbHstOBjIJ61MmQizhpOueEpsbZ+9erVWFtb54bqyHX4RAjIRPyJgM/rxV67do2pU6fKBie5UJAyEedCoWRQJaFViouLk+aLk5KSMnhKjs7vCMhEnN8lnEPtu3XrlkzCOYTth2YrE/GHIvhp0sfExMg+2D8N9J+8VJmIP7kI8kYFhOpZOLAXWxfKR+5GQCbi3C2fjGoXHBws7UoWFhaW0SNyfD5FQCbifCrY7G6Wj48PM2fOlLd1y25gcyA/mYhzANSPlKWNjQ07duxALHGSj4KDgEzEBUfW79VSMYclgpWVlbR/sDiXj9yNgEzEuVs+mdVO/L6EQxzhDEf+rWWGVP66JxNx/pJntrVGqKIjIiKkEbBYniQfeQcBmYjzjqwyqqlYm+/t7S2PjDMCKJ/Fy0SczwSaXc0RX+XLly/n7NmzsqvK7AL1I+UjE/FHAjoHixH7GAvvW8JJjiBl+cjfCMhEnL/l+96tCwwMxMLCQibh90bw0yWUifjTYZ+dJSuVSs6dOyftY5yd+cp55T4EZCLOfTL5pDVyd3dHLKOQv8I/qRg+qHCZiD8IvlyVWEwRyb/FXCWSHKmMTMQ5Amvey1R8fe/atUvavlCeE8578ktfY5mI06OR98+F61ixbv/+/fsyKed9cRptgUzERmEpeJHC1d7x48flH3o+EL1MxPlAiK81ITQ0VPpQFsub5O1FXwMnH1zKRJwPhPghTXByciI5OflDspDT5jIEZCLOZQLJpuoIA0ovLy/5Yzmb8MxN2chEnJuk8RHrIuaeLl++zMaNG4mPj/+IJctF5TQCMhHnNMKfNn/heSu9ww/xIZ2QkPBpKyWX/kEIyET8QfDl3cTCKvrMmTOI/4KU5SP/ICATcf6RpbGWCNKdN2+etM5Y3J82bRojR4409qgcl0cQyFEiFp5h5JC7MAgPD5eWQ8hyyV1yyU55JKsT2X5nCa5hLu8dtt9ZjEKdJP9+c2kfJlzObt68WXK4Y25uTrly5RAGl9n5HuXVvPII975SzRwl4ldKki8+KQLiR+Xs7MyyZcskV5WftDJy4TmKgDwizlF4P3nm4rcsLKk9PDxYt24dP/zwA8WKFePmzZufvG5yBd4PAZmI3w+3LKcyKOMxxAajD/NE72fzMgQ5S/Epyo8ztyOWJJ0/f567d+/K2xdmWXp580GZiPOm3LJaa7HCYeLEibRq1YqiRYvy17/+lc8//5y5c+dmNQv5uVyGgEzE2SyQFGU8Oo9baG5tRnV6JqojI1EdGIxyTx+U27u+DLt6ojowKPX+ublo7u6SSNqgiM3WGomv54CAALRaLWLjcXnpQ7bCmyszk4k4V4ol2yoljLX69u3Ld999x9/+9jcKFSrEX/7yF7p37y4bXmYbyh83I5mIPxDvFL0WQ3IMOo/bqE5NR7GlA4pfG6NYXRfFilooVtR8e1hZC8XqeijWN0WxrTOqPxeiC7DDoE4mxaB/7xqKOSOhurK1tX3vPOSEeQ8BmYjznszepcbCuFIYbImlTL/99humpqYSKdeqVYtHjx69S1bys7kEAZmI31MQKRolhoinaKz2oNjc7u1kmxVCfu0Z5eHh6FyuYogLRhD+ux6HDx/m1KlT75pMfj6PIyATcR4X4HtU/86dOyxcuBB7e/v3SJ2axKBUYEhOQp+YgC4qEl1EWJaCPjZGSmdQJJOi1713+QU5oUzE7yh9MUI1RAegvb8f5a6eKMRo9jUCzdbrtQ1RHRuH1v40KVlQW4tdW0JCQqRWia9moZKWj4KFgEzEBUveaa1Ns3JOuzb2P0WnQx8bjcbvKSpXR5KtLUmyuELCpbPEHtxJzN4tRO/YQMTqhUQsm52lELVxpZQuZv924s/+IeWVdOcGikfWqNyc0YWFIEhePjJGQCbijLExekfrcQvVkVEo1jbKWQJ+ndzXN0N9YRGGUHej9UqLPHHihLR1Ydq1/L/gISATccGTeUYtFsSrDQtFYXOfuFNHidq8hoiV8widNY6QSUN5NqQbgb3bEfBL82wNgf06ETSyDyGThxG+eAaR65cRvXczidcvovbxJEUnDxDSy0wm4vRoZHauU6O12ptjaugsjaJX1Ua5bwA691tgRAVkZWXFjh075G3TMpNjPrwn/BD36tULsZ5UhJq1alKq4o9UqV7lvYNIv2TpknyIVsFoki46isQr5wlfPoeQiUMJGt6TwD7ts5Vs35m8u7fk2cAuBI8dIH0IxB7ejcrVCYNKVTCEkkkrZSLOBBxxS1JFR/qgOjMLxSphgJUF46ucfubXpmgsdyIsrIUVtHB3J1TQwhetvGXaWwSaD2+LrSt79OiBWKKWXcHOzg5h/PPgwYN8iFj+bJIY/WqCnxF7ZDeBAzoT0L3VpyXet42yu7UkoGdriZST799Bryi4Pu9lIs7kNynmXPQhrqh+H5M7CDg9wa+qIy2Rcn54W3JVKW/ckIkg8/ktQcRiRJydx7Vr1+jXrx+TJk2Sl8RkJ7A5lFeKwYDK3YXQORMI6N4ydxNwBgQd+/tehMFXQTxkIs5E6voov9T54PQEmNH5uoaoz85Be29XpkF1eASKlebZQ+yr6nB/RW9srW5n0gr5Vn5HILuJWCyPWb16tbQHrlj+dvr06fwOYZ5vnzCGitq7NU8ScJqKW8xXK50d8rws3qcBMhFngJohORbVublZJkzlb63Re76dEHVOl1BsaJHlfN+mCk9a1xj1vd2kqBIzaIkcnd8RyG4ivnfvHqNGjUI4jhCq6SVLlrywxM/vWObV9mniYnm6ZDZ+XZvlWTL26deRsJtX8qoIPqjeMhEbgU+QmvrqahRr6meZMLNKxIbESJR7+2U537cRsXR/Qwu0j8/IlohGZFkQorKbiIXNwZEjRyQXitu2bWP69OnS9IeYqpGP3ImAKi4WqxkTuNe6Lt6dm+CfRwhZ1FMEz05NuNyhKb6XzuVOgHO4VjIRvwZwik6D9uERFOvebXlSVolYFKe5sy371NNpqvKtndD53P8gT1yvQSFf5hEEspuI05otDL/EftXt2rWT5qCDg4PTbsn/cxkC2uQkbDeuYX/96pxsaMaD1vVw69gY7y5Nc+UoWYzcvTo3xbF9I261qMOheqYc79SSkIf3cxmyH6c6MhGnw1kYPOgCH6Pc1f2dR6zvQsT6iKfvTPRZGRkrDwzGkBCRrkXyaUFAIKeIOA07sclA586dpd1+0uLk/7kLAdF3Rbo6c33yaA42MWdfXVP+aGDGlWbmWLWui127Brh0bIxn5yb4foLRsiBej05NcOrQCNu29bFsVZeLTWpxuH41qa5HWtTHcd9OdOqCuZRJJuJ0v6cUtQLVufnvTMKCJN+FiEWRqkPD36uctxGyxmpvuhbJpwUBgZwmYoFhz549ZSLOxS+TXq0i2duDWG9PXI8d5MLQPuxvYCaRnCDlI/WrcbpRDS40qcXVZuYSEVq3qc/j9g1x7tAI905N8O3yYfPLIr0gerdOjXHu0JhH7RrwoE09brWsw7XmtTnfpCYnGppxsJ7py3q1qMfNaePxPHsKdXQUqrBUr4C5GOocqZpMxOlg1XneRrG24fsR5IbmaGx+Rx/u9UrIyIhK6/Dn+5WTporO6P+WDugjn6ZrlXya3xGQiTi/S/jt7VPHx+G3bb3kXlIbF0u8vy8Bd29jtWQep7q1k1TWgpDTgiBDMRo92qA6fzQ0kwhSEPWZxjU527imNJK+0aI2WQnieZFOpD/ZqIaUl8jz9/rVpTL2pytXlH+gYQ3O9+/G452bCbGzITksFHWgP+EbVxJ658bbG5sPn5CJ+LlQxdyw8Fr1thFnxvdrpRp3ibnldEFrf8qoEZU+LgTl9i4fUF4GjkVWmqO+sFh2vp4Pf6wZNSnNqUtG97MjXhhwyVtoZgeSOZOHMNZyXDANnx6tCZ0xhoQLZ9DFRKOJjUYdF0tSSDD+1y5js3YZV8cM4cQvbTnWrim/t2rI4eb1ONS0tkSQgiTFPLMgz6wGQa4ijUh7oGFNKa/DzetKeYsyRFk3Jo3Gfut6/K5fJjEoEHVMNNroKNRe7kTv/o1nw3ri1qcDvlcu5AxAuTxXmYifC0jnfAnF2gbZToyqo2MwJEe/8RoINbj65sZsL0/6UNjRDX3gkzfKlCOyB4EQ94dcuXLllXCFwU4nAAAgAElEQVTjpg2evmEoNVnZttKATqdFb9QKOYXkaH9snzgTnaQh/9gp6wjzcuGxRyAaneEDBWEg2suGu07BfGhOH1iRXJNcp1TivXc7zh0bv1i+9Gxod8nHc8Kfp1A+eSRt9KCLDMegUiLmlBUR4UQ8scfv2iXc/jjMo9/WYbN+JVYrFnJj+gSuTRmbpXB96jgeLJ8vpX20eR2eJ4/ic+kc4Y/tUISHYtBq0SfEow0JQu3phvCiFXtol+RRK6BH6xf1te3bkRjPzH3p5xrAs7kiMhELN5aCFE/PyJmdlNY2RO9v94bYJMMwr7so1jfLfjJeUx+NWFv8HlsnvlFROeI1BPQcGVGZ//v8nxQrU5ayZVNDkX+Wpkm7/hy7ZoVCmzk96JOfsW/XZuyCjXkRMvD02mZatB7MHZfI/EPEhgSOzRlNyynbCU/6UIf/Wm4vaIrJgMNoXpNOQb0U/UnInZs87mJ884bAvh0ImTKciNULiDm4k/jTR0m0uEKy9V1ULo5oAnxTtzyMipC2NHwXHIUbYF1sNLqoCLRhIRLZqlwcSH5gSeLV88SdOEz09l8JXziNoBG9Cehh3PXm/VED0WvU71J0vnlWJmJAF+iAcke37CfE5/O4mhvrjb4whuhAVEfH5ki5Il99dKDRcuXID0FAw8HeP1KxRm9O3bbE0tISsRfsyR0b6NygJPWHL8AzSplpAYbIRzSoVZ7D9m9qSiCFxCBPLK4+IDxWlY+IWIPvE1uu2nmhfMuHSqbgSTcN3F7QDJO+MhGnxyrS6QlPhvbM8nKlwP6dCBreS9oUInT2eMIXTZd2SopYtQCxteHrIWbvVmL2bXsjPnLDcsKXzpLShi2YSsjUkYRMHELQsJ4E9m77YsSb5kHL2H9h6PVo1eL0zSlQ5zIRi3W9Dw6gWF0vRwhRqIqFetrYITbRFlbOOVL2hhbonloZK1aO+yAEBBGXoE7zhQSnG9gZFJHsXDqQSr1n4RiaDCk6InwfsGpUT+q16sa8zacQA2BN3DPObJlO8e//R/sxC7lx7wn3z5zm0vU7XNw2m+59j+Dp7c6J8zcIiRYjZgMxYd7sWDaMRnVbM27pPtxDktFE+XNi72ZOWnmhN6QqsFURnuz7dRs3XKNBr8LP4TKze7ajZof+bD9pRYTRLWEV2F84wvnb1pzfM48hk+fgF69DG+XBtjmjqFOnCXOW7sI9NJo0pXtyhB8HVsylgbk5szef5/bls5y+YE28OprLm5Zh4Rb3AmHvm4fZdN4BLWq87l/jz2v2JCuUONw8z5Hztzm5bQxNZu1GodcTHeLBtqVDaFinDZNWHsIzNF2FNeHsXzaG7n2Hsnb/SQ5NMqecTMQvcBYn8f5+OM4YJ63PNUZ2HxwnRrLpVMkfnF86n9NO7Rvhd+n8K+0pSBcFnogNSdGozs7JMRIW3rl0XnczfKf0AfY5NhrXWO4gRZP56CzDisk3MkBAEHExajWZhGdMDLGxscTGxhDg9pCZA1pQc/Ay3CIUBN7/HfN/fUHjDn1YMm86tauWo1yVkTzycGfhuB7865+fUa5Lf3b8foMFE7pTqNAXFC9Tie59d/Dw/GZa1B/IHccIIr1vMaDmF5Rs1pnJS+dRq3pFKvxciyu2j5k6sBX/13geCWJeOkXHo4PT+LnUd1xxDuD+wWWY/vdr2vcdzap5kyhVtCRNuyzFN173art00Wzo1YF/F/qMEmUrMGTybOwsL1K7UhUqmZkzb+kUOjcpxr+q9uW2dySJIe7M7NmI74rUYfKseXSsVJYvChWi89i5BMQEMrJieaZcDnhehpYbk82pNPQ4Gn0Cv88aTdtJ2wmNiePQgtYU+scX/FDKhJ8H78bP+Sp9a3xJqeZdmbZsHmZVTKhcrT7X3WPRxLkxq1IZCleqSdtRA2nfqCT/+uz/+KG3PCJOL0ytUoHntg24dno5T5ydZJmTed1t0wBVjDENUfoW5t/zAk/E+hAXlHv65BgRq8/OJUUZn+EbJIhSdXomihW1sr0OquOTMSRFZVi2fON9EBBE/D3fFv2RviNGMmrUGMaOHUmruhUp9I+qzPntAcmGZLZ0rYJZw744B8ehUqoJfHSUYkUqsOD8U/Th9jSoWYGjDtHoE4MkIi5cfiC3nIQzFgNPr26mRbuh3HEL5+raLpjUac5112BUKiVR3ndoV7wkQ1dc4MHuWZT9ujI3AxPRKYL4dewvVO2+Gp9nT5lWpwQdB87BNyIBpVKN5ZFFlKrSin33XzdwimZL3w58VbwTNr6xoI3mwNh+fPdDHx4GxKFUKfCzO03TGiWZctQax+u7MC3SgC2nXFAZIM7nIQMrfJNKxImBjKz0GhHPEER8Fg0J/D7vVSIuUqcrx+yC0Rr0/Lm8HRUbtsHCPURqZ5jbddqUKMPotddwOjufn76vzBH71DWm8f7WDKpZgWLdZCJ+/Q1+euY4Lj3aZEkdnBGxBvZtL1lehy+eIambM/sfPHEoAd1afFB5oh6W/bqiVxfM+WEhwwJPxGK0qvi1abaToFBJKze3R/9UuJ3M3HhH+Il+7/XLGa0nFvG/tcUQI88Tv95Zfdi1IOKiFCvTjFlLlrNi+XKWL1vG7NF9+Pn7ooxZfYIYtT9DvvmWH0s1ZtSECYwfN4Hxo/tS9ItSDF5pjSrcnvo1K3DIIeIFEfdZsp8YhRitpifiEDZ3/RdFSpZh4KhxjB8/jnFjhlDzh6/oPWY7z55Z0fnnUvTfbU+k6w36N6zJggO3iAizpVWhL6hUvS1jxo9n3LiJDOnVhm+/rcfKo64vVMypOESzvm8HzCYdli718b5MGNSWQqXqMmzMOMaNH8+YYX0oU7wwdZef596JxdTtNBDHsFQPSDpFDPsXd3tHIo7l0IL2/DJiJaGSwkbNr+3/TtHS5Rg0OrWdY0cPosYP3zBg0hZOTulJ0QozeKmoVnBhaGPK9ZSJ+PV3OdjaCud3mCc2RsbBEwaT/NBKMr4SBliZhfg/TxLQ68OI37tzU54smYNem26u5/WG5fPrgk3EwtrPUTjWyP7RqNjqUH11JYZMRsNp75ZwS6nYljNrig2RPmnFyP+zBQFBxCWo02wBoSo9Br1eWl+bFOzG0gH16TljDSFx/vT6pgiVTMex5/ff+f15OLD/KFYOoWiMEPH4346RoBEfbK8Rcft/YVK9FhsOvMxn376D3LZyR6NP5o8x1TBpsIRLB9bQrElvLjuHEB/6iIaFvqNJm1nsf172kcOHOXDoHE5Po18zAEsl4g4rU9dv6uJ8GT+wLYXq9WfnkcPP636Yfft2c94ukHsnltHwl4G4RaWOXrTJ0eyb2/EVIp5x/XXV9OsjYkHEnek/dg9xkqZcza8t/07FWnXZ+KKdR9i37xCWD5y5Nr83P/44g5d6JRXXZzfGpI9MxK+/0gmB/jyeOJynXZq+9yhVWFerPFxfz9roddLta1k2yDJG+iLuSfuGBF44Lf2WjBZSACILNBELtbDWcmfOjIZ39UT37AlZ2bFGPKO+tjZH6qFzLpjbiuXcbzeViOs1X0hEug/4FGUM+5aPwLTfbFxCw1jVsAx1m6/EJ1GBWq0i+ulNmpg1ZNO9YLThdtSvWZ4DD8NQxwVKqulxRok4ktOza2DWpB02/nGo1GpiQxyY0rQOM7c/kpbuxDjt4z+f/Yev/vcVvaat4lmSAUWsL6PLFafXmH2EJCtRq5SSSrlZq36cdnp9qiKViNstTyXiFFUov47vxpf1puEZFivVPdL9Hn06NGfdBQfun1rFlxWbsPGaKyqtjuiAh4yp848Xc8Qjypej30EbVBoNCX4PGGT2EyaD3kbEKfwxtQq1WnbhUUA8arWaqEBbJjZtwPzddtjuHUapr6pg4ZeERqsl0d+GdvUrUaS7TMSvv+fiw9B2yRy8P8Bd5ccmYptuLYl1d8lSX/l6e/PLdcEmYlUSYmlRxt6yMvBelZk6WNxbXQ/1nR3v9I7ogl1QrKqT7XXR2p00Wg+x+btO95rhjtEn5chXEdBwaGAJ6jVf/AoRG1Sx7Fk1hlLNRnD/aRRelpspW/5nmvSewdZNq2j7/be06DYI92gduhgHuppXxLTjeE6csWb+hO68MSJuL+aIo3jmcpEqZcrTouUANm3bxMiW31K1TV/+9Ix5Xq1QppX9hn/+WJdfT7kjKbd1Sm4emU2xcrXoMXYxOzYtpfbn/6TfpAUEvG6sRTQb+3agw4qXHo2CHmyiW4NimPaczpbNa2nXpDElyw7C+mkkMT6PmNW0FKZN27N8yzYmdi1LoTRjrcQw1ndowo8/lmD8ksUMb9sKk+8+o+zIVCI+Om807ScLYy0xIu6abkQMvk/O8nNpE1q3GcSm7ZsY3uxrqrcfyCXvGLRhTvTp0IDCRVuzauMmxnRoTYl/fEYReR3xq6/m8yvXQ/vw+gDr5o9JxGIzCPvxQ0l4VrCn0Ao2ESfHpDryeBuxvuN9YfxliDPuvDxFpza6VaEYnSv3D8p2Ija2hjk8PJxjx45x/37B3HLMaO+V5Ugd9mcXsmGLBYlp63lEWq0CG4tTTJiwCRvPCDQaJZbn9jB65HBGjBjB2IkTcQhMU64mYLVpLRPHzmD7ZlsunNrHGUt7VJLHKQORbpZs3X0U7/AkDFoV7hanmDdqhJTPmAlTufbk2SvzvE5XfmPppt14RL40dlElRHL24EZGjhgmpZuzaBmeYYlGWpmM1cGd7LVwTndPg9f9M0waO5Jhw4YxZswyLt/1QaM3gEFDkPMVVs8ZxbBhIxg9ejhNa5R6rprWkxDwhMWjRzJy5CjmbtzF8f0LWH7CER1KHC4eZ++5eyQoFNheOsShEw9QPMfQoFXiev0Ec5+3c+yk6dxwCH7Rzmhfa8aNHsHQYSOYuWoD2+YtYOFxW+nDI13F5VMg1NYah17t84RqWmwQ4bJqEarYtA/LgilCmYiFR613JNq3Pa99ctbo2yQ8eGkdzqOPfXNfV2lNsc2RbK+L5trqF3UR/oJPnDhB3759qVq1qkTGL27KJ9mPgMGAVq1CpVKhM2Kwl3XfzQY0GrWUj1r3Dk4vDTpJLS3KN+5OM/Mm69QKlEqlUc2JTqdBoVChTIpk2/SWL4iYlBQMOjVqtQa9IO53Ol62U2OkneKjRKFUof1gF5kvKyWmhYR2KG0KSZxrNBopiHNxCM1RUlISycnJL7AQmEZHRxMfH/8iTvy+wsLCpCVtIo1IL5a3BQUFERUVJT0n4iMiIvDz85P+p5UnnvHy8pLiRJkif/GMq6srkZGRUj1EHTw9PXF0dJTKFpFxcXHS9ZMnT17EaRITuNe7Y54g4icdG+N74ncMunTzPFJrC9YfmYizmYhVB4ZgULx0aJD+ddL7P0K5swc6t5ukpLzaSYmOQB/ilu1GW4KIRcdiYWFB9+7dKVq0KH/7299o3ry59CNOX7+8cC5wEp2ZVviv1acOp8S16AQTEhKkeNEO0ZGJzi8mJkZqv4gTHZnY3F50hAITcYj7osMLCQl50fmKztTDw0PqQEXeIgQGBuLk5CSVISWU/0gIaBLD2DKxBu1HzsU3Lr2K4OMAJOQ2e/ZsWrduzdatW6VCvb29GTt2LE2aNJGMzUSkg4MD/fr1o2HDhly4kKqGFxqhTp060bJlS27evCmlvXHjhpRXt27dsLa2luIuXrwo/V6GDBkivQMi8ujRo9JzkyZN4unT1N3Otm3bRvv27Zk/f770PomPmA0bNtClSxdWr14t/d4EMa9Zs0b6LW7ZskWaDw8NDWX58uX06dOHgwcPSmX6+/uzaNEiBgwYgChfHOKdnDdvnqThuHfvnhQn3slZs2YxdepU7OxeutK9O3FkniBihz4dCbK8JbWlIP8p0EQsnHkoT07PvlHo+mboPC2NLlcSGz+o/1wolSXcT4qv+9ePlORY1BeXZF99xEj/0krph/qf//yHv/71r9J83ueff87SpUul4m1sbBg5ciTjxo3D3t5eirt9+7bUKUycOBEXFxcp7ty5c1KnJX7waR3P7t27adu2rZS/2DxeGNmsW7dO6rQWLFggEaHoeMR5o0aNWLZsmTSqEGQ4efJk6tSpI3VKogAxGhAdXY0aNRD5ikN85YsO0dTUlFOnTklxVlZWtGvXTupQr169KsWJj4w2bdrQtWvXF+r2S5cuSR3soEGDpE5YPCi0AaLDFu0SnbU4RFkdO3aUOk9RL9EG0UGKjxbRYYr6i1GP6FCFJkF0fPLxEgGhyYmPDCE4PBqd0U0sXj6bE2fig0yMGIXshJzEIeKE3ES8QpG66Cn9x1raR5j4kBNkmX7UL54T15IWId2HnogT70b6j7+0uLSRsyhXpBP5izjx0Zg+TlyLIO6L58Q9cZ02Khb5i/LF8ba4tHqkPSfyTIsT6d327cCjU5P3IuOPNUfs06UpzpNGEONVMDd6kAT9/E+BJmJtYhRRRyZmE/HVQnVhkfGdllIMaD3uoFjbKLWsNfXQRxjfM1jnciVb1zVHnVnM3bt3GTx4MOXLl+ezzz7j73//OwMHDpQ6KaHaEuov8bUtRpTiEHFCBSZGikIdJw7Rsfn6+kodnugw0uIEAYsRpuhURKcgOkMxohR5iI5BBDFaFSNPkZd4RsSJDlLEp+Ul4sR5+s4orZMSaeRDRkBGIOsIRDs7YtO2fq4mYo9OjXFePh91Ymq/k/XW5b8nCzQRaxIiCT84PnuIeGsnyZWl2Ink9cOgTkZ5eMQr5Wju7nr9MelaELTy4NBXnn3bnHRm90NOzJfyFaR3+fJlpk2bRrFixahcuTLXrl0zWgc5MvchID5UxDzzO8wQ575GyDX6aAhok5Kw7NQsVxOxW9fmOO/c/NEwyc0FFWgiVsVFELh71IeT3qo6aK6uJkVtbFs70LrfRLGy9ivlKPf2I0WV9Ma7kaLTpC6pyqalTCEXN75ShhipXr9+XZpXE/NRYiQrHx8fAW2EE2PGT8At+i34G7T437vEjC5d6LzlAuGKtzyfQ03RalUkJ6dqQpLDXNi4ZDN3nULQy18GOYT4h2WrVSqxHj8Eof7NyJFGRvGB/ToSNn8KEWsWvTWETh/9Xi4u/bs2w6VPB3wK8EYP6SVcoIlYm5xA2NkVxC4xe4UkMxthGr23vSv6UOPzHClJMSj39H4z//XN0XneSS+LF+dabyvJPaXRst7Bwjt6sRnhlkde5Jt2IlS9YoQsglD/ysfHR0AdeJ1KVU25E5T5jro6RTSHF3ejeLlazPvdiiT1mxqXnK+9joerx9Kg2k7JiUic13UGte3C4dtuMhHnPPjvVYJeo8FjxyZcOubODSDE+uHHw3sR42G833yvRufhRAWaiHWqZIIubiJ0frU3iTLLhFcLrdUeo6+ANLq9vRXF6vpv5r/SHNWfC0nRvlz7mZaJWGusPDzyzTRZrlOqIxL/OabEOFxPy1b+n5sQ0CoID45AuJdWJ8URGhFFfHwUnq6O2D9xJjQ6SSK5hCBXFvU2o93IKTiGJKAXS6KU8fi4OyMM7RzdfEhUpRr46FXJhIRGEZ8Qw1NPJ/wjYokMCSM6LoEQX3fsHjvwLDwGtTKRAE8XbOwd8AmPI201kF6nJSo0ECcHe2wcXAgMi0ZrMKCIj+L0jHYUazCHwGeRKFQqIsOjSVJpSSEFnUbBM2937GxssHX2JO75yBl0xIQ+IyougYggPxweP8bZOxCl7lN8TOQm4ed8XcSqjAibBzxqn3uJ+OG0sTkPRB4poUATsZjPDX1wGp/Z70/Eym1dSFEZc5QA+mBnlLuNjIafE6pydx/0walWya+/L9pHf3ywD2z3WTVJDjVuFPZ6efL1x0VAH/aIUYPHYxuhw/vWQcaNHsbUqSOo2dCc0qXL02PUZjxCErE9uohihQpR2qQyc3ddJjYmjLNLp9KyfnWq1jClTPWmLPntAEGJWmI9bjNm1ESmzhhDLfPKjNt6huVTJjNy4jT6NK1PaRMT2vYdw6qls2lVvS6FS5ambp8l2HhESuuMn9pcYFiPrpib1aFKnfq0GTiJEzY+PLm4h9ali/CPvxRl+LgN2Ds/YcWspVxzDECtjOXOkcW0a9KI6tVrUKZsTaav2Y1rWBIYotk7bgDDJ01nVJ/2VKtQEpParVh1Ob3zkI+Le0EqLdbLg0f9uyLUwBmpoQN6tCJoVF9Cp42SQmD/Thk/m27/4Azzy+IzT39pgcPWDQVJHJm2tUATsUAm3OEWHgvqk7isxruPQFfVQeycZOwwKBPQ3NyIYk29jPNd1whBuEYNvMRGEOtbvEy7thGqY+OyvHeyaI/b8vYkRxZs13HGZJMb4tQBFpQpXwGLIBUuxxdgXqQQLfqNY/f5S2xfMoYKRRpx6LYnfnZ/8kvjKrTpNoaLdh64Xl1PzcLFmbJ6L/dtH7B74xyqflWC+b895pnjSRpV+5F/mnZl2fbfsbh3j75dGlGoVFPW7TjGoS0LqVXua76p0oaVv/7Bgd8WUq9sHdYcuo9Sr2ZbVzNMzcdy4uI9rK6eZ2D972k2aCcebk9Y3rs23/z8C39etsLH5Tp9W3XgkIUrgXZnqF+9BN3m/MbNh484t2kxTX/6ljFr9hKrCmOuuSlffV2LRZv3cP7cLoZXL8v3rbfw5uK93CCV/FWHxOBnPJk+Fu/OxpcxBY3qQ9yJIyjsbVB7uUsh8eZlIlYtQGyF+C5kG9inHcHjBhDYJ2vpHLs0w+/65fwF+Ae0psATcZyfMy5ruhG1qPpL0suiClj1+ygMCWFG4dc/c0CxpeNb81SdmYXYfcnYoT41HcWm1qivrEDndQ9DXDD6Z09QbO301nxD5lfDY+d4VPGvO/k3VpIc97EReIOIq7XmqqP4aEoh2u0KPRpVZumx+yjiQ/htcmcmLDxOol7L+TE1qFJ7Ml6JqXPLBnU8y9p+Q9vuW3F7nErEs089Rm0AXYwH/bs0ot+6M6gNKcT53GNw2woMXH2UBLWehGdPmPRLF1YfsESl1/H0jgX3H/ogXKD6uTxiVqPCNGq7jHCtnvtru1Gq48bUOWIfQcSd+d3Cjbs7B1KpQRvuBiRLFt06VSz7JzSmed+ReMcFM6O2KU3nnSFR2llKwbUZrSlZahABmU+Nf2xx5MvyNElJeG3fiKuReeKgMf1QOj/G8NoewCnCOj8qgpjDu96JjEOmjSLZ9gFhcydlicDvdmxCUqhxN8D5UhhvaVSBJ2JNYjSOu6fxbG41kpe/w6h4Qwu0XpZveMgSeIutD1VnZ7+VLCVjrE2t0fnZGjWaMiRGYUiMlOaR0zxxpShiUV9almneoh0e06vid20veiNz0G95J+TbHwGBN4i49URcglLXU8Y+vUWvFibMO3rnJREvEESs4fjQ8tSbcIX0lgXnlv9Cm+7rcLc/TKNq7bF8mvrxlUbEK848lN6veP8HDOlQmWl7L6LUpZAU+oRpfTqz9oAlSp0Gi61LqP9DCcqZlKdChfIU/eorGrddRqRW94KIRblx6Yj45taeNO24iLDn074peg139s+iaZ+ReMYGSUQ88lTalnpa7i5vR+kiXfFP34CPgHdBLEIYYgZcPo9jt5avkGNg344k37+T6baD+uQkIlYvIOCXFq+kNTZKFqPhhEtnESSeeP0igQMyV28LVbnl0N5G+86CKCfR5gJPxAIE76t7cZxZi4RlWbSeXlVb8oBlSDI+2tR530Wxum6mZJneIlpjuZ0UI562MnopdS5XUWxonmH+0Yur82R+EyJcrDLKQo7/xAi8QcRtJ+ManGpr8IKIj71JxCdGlKNWj23EpG2cZVCwosG3tO2+DffHgog7Y+UbLbUujYgXn7V5KxEnRTtQ/fPC9By3F/eAEJI1yRwd3pzGbVcSqXtJxGIgm56ILbb1wLzlcNxTNxZGr0li/+TatOg7kafPR8RD/3B7jvZLIg6QifijvIEhtg9wHtYLYaWcRqLhK+ejjTSuyUtfqSSrW1lSNYfOGoc+KfXdFQQevnzOi7LSykz/36tTExx+XZG+qAJ/LhMxEO1py525rQhbkEWjrW2d0fk+NPrySLsoHRicIUmmJ+C0c7G8KSNSN1aIPsoP5aHhRssQo2GfWVWx+20kyqggY8nluFyAwPsRsQ7bHf35oUR9th1/QHhECI9OrqHB/0owfcNjghzfn4gTQu5R5n/FGLvmCgGBATw8t4XWX/yP2s3n4pOQzP1V3ShZbTCO3sGEe71UTTtdXMHPJU1YtO8cAZERuNw5RguzH+i35AQJmjBpRGyMiH1lIv4ob2G8ny+OU0e/Mk8ce2QPhue+1jOrhDYinGcDu2RKqsLYK9nm1Q9+pYMdAZlsw2jXrgHBt1N9e2dWfkG6JxOx2F1FlYzttok4TKlilNzSCFP6v6ou6uu/InZSMnZon5xBsSrro2Epz5Xm6Dyy7vg8Ra9FfW2d0f2LE5aaYTutJt6Xdxf4HU2MySe3xKUR8Z00Y60Ok3ENSR1VxPncpU/LSiyURsShbJ3cgwmSahoU4Z6M69+eIiVMaduuNWbF/s2g+VvwjdEQ4fgHjap1fWNEvPz5iDghwIZhHU2Z+UI17ci0Pt1TVdOaWBb1bEThIlVo3qI51dr1YkD/Vvzv2yZs2++G9/lVlCpclPb9RnP3oSDiX6Q54qQYfzYO7U7V4j/RvH07GlT7iXojVnEvQGx8EsaC2qaMPJU2IjZwf3N7Sv/YB195BdNHeRV1KhVOa5bg0fmlY4/Yo/swZMGRjz4hnmeDumZKxOHLZr8YDac1yKBWEbF2SYbprDo1JTHQP+1x+b+smn75DoTaXeHamOpELHyL0daGFhiiA14mTHdmiA9DeXDI28nciDGY+vyCdDllfJqiVUqOQFSHhqFYaf5GWc/mmnJrbjuEEZp85F4EDJokPDw9SdYYUMWF8dQ/BJU2lZ30mmQC/bwIj0vCoNcSHRJIcFictK5Y2ArERQRic/c2169e5a61HRHxSqmhOmUcPt4BJKtT9ads3UkAACAASURBVNYpOhWB/j5ExCsk1bReoyDI35uwmAQMYrcvrZKQwAAiY5Kk67gwP2wf3OXW3fvYeT0jIvIZjx458CxIgVYRi7vbE5xcvIlPSiTQN4DYJJU0z5ccHcqTh3e5du0qt61sCYxKJNU7uJbwp14Ex7+0kU6O9sfD/Zlk9JV7pZO/auZ2eC8ePdq8IMaoLWvRxxvfIS59y1VPPclsOZPwwKV4bPvGJjdiblrl4mQ0rVCRW4/ohyLKuIFq+vIL0rk8In4ubfHy3FvRh3tjKpCQ4VKmWmgfnTBqWCU577DcjmKNEecdRoj3lVG2uL+2IYaYN1XJYneblOQY9GEeaIRzkM3t3yDftLzil5pxfdTPuJ1ab7SOBenFztdtfb6Lj3hnU0M2tfZFfmn5pv1PzT/jstKeS/2fTbWRs8kmBEKsrXAa+HI9cdDwniifPHqDQNMXJ6ypo3duIKB7qxcEnn6eV8RH7diILiF1x6v0acW5XpFMzKFdCNV1+nTC05fbxtVokt907/t6HgXpWibidNKOcL7LldHVcJ/+s9F1xcI5h7Bkfv0QoxRd4JNMnXekkWWG/4W/6ocv3VEK4y3h7EP7+CzqM7NRrG+WIQGLPIVK+smkyljMaUNyuPER++v1lq9lBGQE8j8CyWGhWA/t/arB1tLZqAP8jDbeoFQg1hMHDe/1CommJ9TgCYNRujgYTZ8WqfJwJWTy8FfyeNypCUFXL2B4vt1j2rMF/b9MxOneAJ1KweP9c7k23ISgeaZvLGcSGzUIJx2aW5tfDRabUB0bb1RVnCHxGhklix2a9OHe0nyx5uYGlHv6ZGmEnbSsBt4zq3BpWAUCLE+ka5F8KiMgIyAjAA9mTnyFiAWphi2dRfL92+iiI6WlR2IUq3JzJvbYfoJG93uFQNOTcED3lkSsWYza3wdtWEiGQe3vS9Tm1a8Ybj3u15mIx49kkbyGgEzE6QARI9sYXwcs5nXg9qjyiGVA70KkH/zs2oYo9/RFubldlkldWEmLeeHrw02w3jwWTdLb537SNVk+zQcIBAYGsmrVqhxtycqVKxF7T8tH3kTAee82vLs0f4NchZo6dM4EwpfOImzhNIInDHm7I49uLQga1hOxbOltIWhkHwRxCyJ/2qUpTlPHEOfnkzdBzMFay0T8GrgGvQ7/uye5OLYW98dWMKqi/mDCNTIaft88hXGZxcgKWMxtR4zPE3lu+DV5FoRLd3d3evXqlaNN7dmzJx4eHjlahpx5ziEQ8cSORx0aZe53Oot+ol8ZHWcxjXDi4dSxEY5rlqCKi825hubRnGUiNiI44Y3K9eSvnBtehYfjKhLzodskZiPxphG2GAkLt5wWI8tzeXIjgh/K8y5GRFkgomQiLhBi/uBGnmrVAPt2DaSRaaYbQWSRXLNKyMJSWrjZtGjbAOffD3xwO/JjBjIRZyBVdUI0jgcXcmZgWWzHVyJyUfU35ozTSPFj/096ro6+M7oCF8bUlDyD6TNY15xB8+TofISATMT5SJg52JSbU8ZwpH41rjarjXWb+jh3aIR3uvXFWSXWtz0nSN63SzPcOjXBvl1DLFvV5VSjGpzo0prAu1n3l5CDUOS6rGUizkQkqthw7q8ZxNmBZbEaW4GQ+W8acH1sEha7KvnOrsqN4SacHVKBp1f3oVUY34Yxk6bJt/IRAj4+PtSvX5/hw4fnWBD5+/r65iPUCl5TQh5Zc7pnB/bVNeVQvWqcamTGhSa1uNGiNvda1eVRuwY8bt8At06NpeDT5aUTEGPk69elGR6dmkjPOndsJKW/37oeFi1qc6mpOWca1+Rog+rsr2vKwUY1ebh2OcqYVPerBQ/9zFssE3Em+Ih1k4mhvjzeN5uzg024OtwEv9lVP64BVzq1tiBhx8mVuTikHGeHlMfj3G+SV7BMmiDfKgAIqNVqnJycsLGxybEg8hflyEfeRUCv1RLp7MDDdcv5o31TiZAFKUtEWa+aNFr+vUF1/mhoJoWTDc2kkawYzRoLJxvW4PjzZ481qC6lFwQv8hP5SoTftDZXRg8i4NZ1lNFvLv3Mu2hmb81lIn4LnoKM1fGROB1bxfnRNaTR8cPxFQlfWE0y5BJztTk5Khb5xy+tQcAcUyxGlOf0QBOuTmmM381DaFVJsnHWW+Qn35YRkBF4iYDoz8QaXp1aTZSzI877d2I5bzrnBvTgRNc2HOvQnKNtGnOkZX0pHGxsLo1mxYj2ldC4Foeb1X3+XAP+6NCc451acrJbe65PHs2j9avwvXqR5PBQ9FpNps5DXtau4J7JRJxF2es1KnxvHuHajBacGlCOK8NMcJn6M2HzqyHmbHOCjIWnLEHAthMqcX5QWc4MrsDd5X0Ie3xT9iOdRbnJj8kIyAhkDQFVbAxRrs4EWd3B58JZKTzetQ27Lb++Eey3bcT9+GHpGd8rF4hxdyXB3w/h21o+3h0BmYjfEbMwh9s83DqBcyOqcnpAWW6OKI/j5J8JnGuKIM4PJWRB6sIa2ntmVWzGV+LSkHKcGlCWP8fUwvHIEhIC0hzov2PF5cdlBGQEZARkBHIlAjIRv6NYhNMPZUwoPhZHuDm/C6cGmUiEfHmoCZajK+AwuTL+c0yJXfJuzkDEemCvGVUk8hVLkv4cnErA0hKqjaMIsr2CNtm4X9d3bIL8uIyAjICMgIxALkJAJuL3FIaY91DGhuNjeZIbs1pzZnBFTg8sJy13EiR6aWg5aY2vmE8WKmzXaT/jMT01iHMRHCZV5u7o8lwbZiIZYJ0bVE4idTEPfGZIRaxW9Sfc4RbqxBgMennfuPcUlZxMRkBGQEYgVyMgE3E2iEevUxPlasXjPTOxWNiFSxPrSc5ABKEKtfLbwulBJpwfYcqVKY24vaQ7LsdWkBDoJhtiZYNs5CxkBGQEZARyOwIyEWezhLTJcYQ9vo7n+a04HFrMw01jsFoziNuLunJzTpsX4e6KPtxfOwSbbZOkud+nl3cR7W6NTimvCc5mkcjZyQjICMgI5GoEZCLOYfFoE6NRRDwjzs+ZaE/bFyEp9CnKqGB0KnlfzhwWgZy9jICMgIxArkZAJuJcLR65cjICMgIFCYEnh+fRrtcgTjqEv9JsvU6HUqFGqweN0o95/YZx3iPmlWfy24VWGcO+5QPZeMkLYSGjUShI1qTkt2ZK7ZGJOF+KVW6UjICMQF5DwJDszpCfS/GXvxam16g/iNU/J50ULY/+3EO7npOw9I9HlexCx5+qsdk6LK818Z3qq0kKY0Gniozd/hidNoyZjesy6LT7O+WRVx6WiTivSEqup4yAjEA+RkCP/4U1lC5sQuXKP1GxZR/u+CVL7dUqIji2fhZ1mvbgkIULUbEOdPypKmtvOuFqa8X1K1dw9AlDlw6d5OhQHj2w5OYdKzwDwtDo9GDQER8RQqB/CGHPvLG+cZ3b9xyISHjphEOTHIWH3UMsrlzhvvVjQmKMTZ0ZSI6LIOhZEFFhftyxtCRGaQCDltgwX2wsbmBh40hgeBxaQ2qldOoknjrbSPnesbIjLFYh3VAlxOAfEIRCrZWuxeY1gX7PiEhQoBJE3LEiY7c+JMjvIb0rlOGXjZcJDIlFZ9ARHebDgxvXuH7zNm4+oajTCkuHQ145lYk4r0hKrqeMgIxA/kVAE8Gvw1rzlfkirp/dScnva7Hi+GOEJjbK9QotixWl0JclMW8zDxvf+7T/6jsad+1Gx2a1qVTsC8w6jeK4fao6O87fmsWThlCjch3q1KpDh04D2HPTAb06gesH19G1U2/6d2tB88qVKPm9KdM2/0FQggZI5MT04bSrb06junVoaFqHIZMX4hf72tLJFDX2F/YxvFt3hvdvT5ESJbkbkIiH5Z/M6N+WRtXMqd2yHV0HzuXqfR80Bh33982mcwtzGtapRbkq5gyeOJ9nSSn43zvFuEmLcfSPRoz/k0OcWTJlOodvu5Cc+JyI119i77RhfPP5Z3xZtiPLdtzA68lV5o1oTUPz+pjXNqV+m76cveeI+rWq5pUXRibivCIpuZ4yAjIC+RaBeM9rdKhflt67LInxsWd0bRP6zd5GWLIOVbQvW6YMwqxme9YctiQo0p62hf5J9Qb9OHzpGpbXD9KpQjE6LbiDRhPBkqnd+aruEA6du4v1nYss6Feb8uZD8YuL4fD6CRT6bxWGzFnPLYsbLB/zCz+26MdVrxi0EVb8/G1Rxm76AztHB24dWk6RYiXY9CDyVdxTVNzZuwKTQv+jdb+pHD1xCh9PR+Z3q0WH7kM5f+M+lpeO0bNVY1qO34Rf5DNGVP6RetO2Y+tgz8VDq/nxxyLsehSN96VNNG8zBEv3SImIEwLvM7prR7actiEpjYg338PV6gydSv1I65kHeeTsxcmlYyjRsBenbttia3mGPu3r0XHGVkIT0usFXq12br4qEESs1WpRp+TPSf7c/HLJdZMRkBHICgJK7v22gMqf1+b0o0A08cGsn9qZf9cZwV3PKFJStNic2kr7TmOw8k+Q5ohbF63AnFPOaA2iX1OwvnVhWvTchI/bZVqal6HjmvNEx8cTExOF3ZlFlC1amHNuIRIRN+wzDaeQZClfx6u7qFq2Lftv+6LXJGD/yA7/0AhCg3x5cHE1PxQvzsLrz15rhIpb+1fwU+UenLf1x5CixfX6fur+qyLLdl0lMjKKyPBgjq4YT0mzEVi6Pabjf7/l5+ZjuWDlSExcDO6eHoQnqvG+sonm7YZh6R6Vjog7s/207csRsTRHHMrU6pUZecYLUhI4NHM4hf9bg5X7z+EfHEVoaCA+wZFodM914a/VOLdf5igR//PLL/nyi8/4v78VolChQnzxxRd8+eUXfGnek6O2QeQ0ZAZ1JH9MHkipf/6HKpvvfiJZGAj3fIyjY+qLFma7j2pl++IU83Je5kMrFu9vxZAO3dl70QFdDn1vaJXRLO9pwsgtdq/MRWVUd22oDdUrl+a8l7E5poxSyfEyAgUPAWWUJ7OGNuHfX39DseLFKV68OMWKfM+/Pi/K0lMP0Bg02Jx7lYg7lTVlm23oc7DUbG7/HS26rMbj8SmamRXj6x9LUaliRSqKUKECJiblOeccKhFxz8lLCE4UI0cdbhYHqFmmLbstfFEluDGtcy0K/1ia8hUq8XOlcnz39fcsMkLEFvtX0Kn/LJzCkiBFy5M/d2Ba6F/88GMZKjwvt0L58pRvNB1r1yg8ru2lVeVKlCtTmh++/g/12k3hnk/Cm0QccJ/RXYwQcUooU80qM+K0F5BC8jNHFvbpxM/lTShR5HvKVqzPikMPiFfmTd10jhLxvNWrWb10Ch3My/DZ15WZu2gJq1cvZ/We33ELynm/yYpge8Z3N6PRgBlYP/1UG1LrON69IrU7XJEILM77GnOmrMYvSczJZM8R73+HIR065zgRL+5owqgtdtJSgrfVXPeciE/LRPw2qOT7BRmBFD0+94/RpkIRxi3fiuUDa6ytrblz+Sgdm1WjyoCtxCqV2JzfSofOY7AKSB0Rv2o1nUrELbus5qnTeVrULMmw3ddIiosjLi6OQKf77N56nMD4WImIu01ZSlCSIKznRPxTO3bf8sFhV2++L1GPw7dcCI9JJDnIkmZlfmLRzTdHxIKI2/WZjWNoMqTocLy0j5qf12TtfisiRbmxkThYXefgmVuEhPpx7s/z+EXH88zThQt71mD+XWHqTr+BpxgRtxjILdcIUlL0BD/6kx7Vm745IiaUqTUqM+qsFwZtIo8f3sbG04/IsCAeXj7FuPYN+Y/pWB77xubJtylHiVhCxBDP4cmD+d58LkFxL0eB4d723LJzw9vuFod2HsYrUoE6KpALf+xh5swFrN18HDuvMLR6g+RtyvWxDfZObjy8cpL1sxeweddVwhJTNyrXq+OwPL+X5TNnsuLXXdh7hqHTKHE8u43m5b6l28T52D6Nkqz6In3s2LlhBTNnzmTvaUvCJSMFUIR4cfm2I56uluw8dIBH/iE43rmCnbsPd87uZ8nydZx94EZ8dCBXDm5l2czVnL/tgfK5pV5yXCT3Lh9n6aL5LNh6kPuufij0avweWzKlTjHKNZ7DHWtPIsOeceeOAwnCihEDcaE+HP/tV+bMms3aQ38SGJXmWSsZmxuXcPbwwOLMUZYsWMD+S7ak2hq++q69jYg1ymSe3L3Er6uWMHPNZi49cEL6IEaNt91dHjp7Y29xnBWLV3D4ug0xsRHcO7OfVTOXcviMDXFKHWJEvLjjT/RffoEbZ3ezaN5Mdp28RVjSyzmZSJ/H7N21kd1HTmL34DxVKpQkjYgTIoO4fuYg8+bPY8XeE9g/DUad0yqRV2GSr2QEch0Cek0Sf24ZR4WafbhiHy6pZ6VK6uLYvbAf3xSpiXVILDZntlLPrC1bLzwiWrKaTr98KZWIm3dZTUiML7Na1aNWuwHcdnrKU9eHrJz0C19XGYVfTOoc8QsiTtHhfO0ApqXasfvmUx5t7kjR0s0489iDp+42rJrZm/98+x2T/nB4zQhKxStETAqRnpYMbVKLpgOXY+3qg/v9K4xpVou2o5fj9fQeNX8ozsSVlwgIjsDX5SatS5Wgw2/WeAgi/rk80zaewc3Jmk2jm/FDoZ/ZftruVdW0PlU13WTWQbx93Vg1vgf1WkzCyimQyCAP1k3oR5nW03EKTsh1Ms5KhXKeiFPiOTZlMEXqziUoPo2I9djuGkddczNqVTGhWpNfuG5nz9QRvahYtiTd+/alQe2aVKk5hAe+USij/Vg/oztVqplRuUwzmtcx5b9fl2He5oNEq7TcXNkLs+qV6NyzO6bVq1ClZgMePA1hz6we/LNQIcpXqsLy048ItrvGWPMqVG/YnMFDfuG74hUYOmMJPrEaQqx2Ylq9FjXNyvN1tQ7su/WQBS0bUqWGOfXNK1KiXFlKVDKjaeO6mJmUoGzxnyhpUoOzTgFoEyM48usEKpSuT+euA2jbuDYVm/Zh9w1HLq+bRqkvPuff/y7J5EUHeGz1O22bDsMlXkWU120W9DenaPWm9B84gGrfl6TT+CXYBSaA9hmjypeles2aNG7agDpVC1O0Yi2mnnR9Q66ZEbHYLerB8WVUrVCLpk170e3/2zvzuKqq9Q97b/d3u93KyjQnUBA4QJKAJKAkoCKopFwHsJznEUzNhBxyIBXHyjEvmZpa5pjigORsauIAToiCzDOcc+AMwJl4fp9zDpCplV3qXsv1x/6czT57rb3Ws/fme953ve9a3Tth5+bD9E1X0OmlrBs3kNdd2tHeTYLja440tnHCx7cjzrbNcZY40NjSiTUHTqNQljDX9xkat3LC1ssL/0B3GlnaM3p6JNlKKL52iKAuHtjaWdK+aydec3Hi2X/+wyTE5cV3WBo+BFtLb/oPGELn9m60eTOMA5dzf/fhiQdgiQOCwGNEoFyWxbxAW4LGriDjR4FGejJOrMOlVQOmH0oi7fs99HS1pIW9P99eO0qIrQurv6/JI65k7eBX8Ov9EYUGHdln9jPctyESl3a4t21NA9cezP76EpXlcpNFHDxlPjlGi7hKR1LcRjwkPfj3yTSU6bF0bfUMNm3ccHdzov+IkfRyfwGPvmNJKP7hBzdUcPLzBfQZGMHVfHOKlfEHxfmYT3F1ccWprTtur9rh0c6b/eduUKlVEh0xgvovtsKzQ0fcXR2p33EscVlKVLmJLO3phVUTG9q288DLNwBXB3/W7oo3C3GIIxPWX0ZnULF7eg+eaWjH+IiPOR37Ja62Tji5tqdjh3Y0d+nE+I0nkFUI1/QDj3dVVRVVVXK2TRlKE8/3yZKXmxYyMAYffLc0GIv6zxD+eSzZRSXkXNxMF3cbNp1MQiaTknxiKz7OtqyIu4666A5zRnji2HkkcRdSyM+6TVRod/xHhnMnP4NxrW15fd4+8ouLyb8eh7dHGz6MTSfv5iEGBviz5IvDFEpL+Pzdznh2eYujCekoFHJOb1+G23OuRK6MJ+X4Ehq90gjv6du4kV2MqiKTUCcJNs4TOXsnj/TEA3g429DEZxpXMnNJu3yQgA6ORB1KQJoczyQ3L96POkBuiYzMG+cZ174ZY2dvp0AmI3qwBLfRXyErVZL9/RqcbXtxNb+InR+FYe3dh+1nb1FaKicxZjWBNs/z3qotlGnSCHj6RbwCZxKfkktx0RWmWrWk45i9qE1cjWzNmzztOMMCexG9/4opeKPmuPHToC9nubcTwUOjuVskRVqYx7K+TfHuFUWBtojFwQG8XD+Ab5NyyUo+w9s9PfmbXTDHbt4l69Z5xoW8Qdiq7UjLipnj9Rckvn3YHX8bqayY/eum8ay9N0tjz7M4xB+LZoM5n5JHYX4y6wf3pNFf/8LOZAWZJ3by9qsBrPryHEVSGTeOf0lfZwkLN56i3PBDP+5tt9gXXJ6EZ8CgN+f2SuUq9Pe913ptOYUFeUjVGvTaCqR5WaRl5qDSVCDNL0Cp0df+D1DJ8iguUZrrMOYLF+dwIzGRa0nJ3M0uolxrPNeAWiGnRF6Gvvq901aoKCooRlWpo8qgpTg7nRsJCSTduUNJaRnSwjTupudRqf/x81ipKqNEWmryWNbcJ2Mbi3PSuHY1kVvJyeQWS2u/r1DKuZt8g4SESyQkJJFZUIrO1F89amkBKcm3SE6+TUGxjOLCEpTlGgwGPWXSAuQqjamflcoSstLSyCspRautpCgnjauJCSQkXCE5JQ9FhdZ03gNC9Ac48PtbxJTy5dT7LWIdZ5eF0LLlBAqrIRl0SlIuneTA/n18tSWahVMHYNf4WZbEXsMYzDB3ZFemL9tpcqlWaZTsXDMFm6BQzmbcZW5ARyybeTLtw4/ZHXOYi1dTUWurKMs8w9h/BbFudzyqsjxmtbdgeMQeapwXyoIkZgS15p0Pd3PjWBQ2Nm04V1xz13KZ1MaeQcYoPUBbcAVfj9YM/Cze9HdVyU1Curdn0cEEDNpKMq8lcPibGL7eto1V86fRvkkTxr+/jTK9hl1jHfGYHIcxZT0/fi0udkFcyUjjk1AvBkxbQl61o0ArTWfReH+GRa6luPwuQRa2zIxNrW6Qhi0DrWjnO4scc+579XH4JYtYmnabuL0x7Nq+nc9XLaGX5CV8ukdSpC1mSUg3fBfsM9Wlk6cydoA/b7y/FbXxJVdkMye0L6ErzUI819eS4dMOUuPXKE65QIitBxHLv8Df25kZuxJr26RM2Y+zfVOTRayvUHP7wgUO7Yvhq82bWDR1GK81sCHqs+NUCPd0LTOxIwgIAk8mgf+pEFsFLsM8ymsgL34XY/0t8AzoxdARoxkztD/WzRvdI8RBzP74EGrjBC4aJdtXTsE+KJTzGQqkt8/ywfgxDAzuzRttJDi6BLAs5u6DQtzdngmfnKcmTEpdmMoH/b2Z8uFubh6bg73dEDJrvsQsxGEH0kxPxv1CrCu5ST+TEF+hJC2BaV39ad+mE28PGcaYMSPo4Oj080KcmcYnk3swfvZm5NXeFJ08k8Xv9KwV4j4t7Yk6nVP9ZJqF2MN3FgW/QogNWhnLBvbl9Rbu9Bs4hDETJtCzvcOPhLj3ssOma9wvxHpFNrPuFWJ/G0ZFnjb9oDAWkGddZ1zndry3aD1dvV5l2eEf3Ob6vO9o+2pLdiWXkh7/LSPaeePdoRuDh49g1LC3aGPtJoS4+s6KD0FAEHiyCTweQqxXsmfmcJpLAjl5PR2FupLc+N10dbVgRWxStUX8cCE+k3CBmTPD+T5Xhawgl2tnDzJEYo3DyD1I77OI5/g3ZOC7G5Ga1Z+im8fp39ie6YuOknz84UI8ft8vCPGBy1yKWYmdnTcrd12kpEyJPPcmkyRtGD/za8oMZovYc3KcaTy01iLOTGf15E68OWE+aaVGZa1ClnaOif7WhEZtQVaZRu+W9iw88SuE+NCD6UsVuWewbtCCySuPUSArQ6MvY7WPKz49FlNkMFvEPRc/ohC/8Rw9BkWSqTD/EshNOICnUwfmbNxBj04u9Ik6WP026Uk5/CH2zZ9lx40Cdq2KwL5tMDtPJFGqUpJ94TD9W7gTtfEUFb9TutWT/VqL3gsCgsAficB/RYg3Th1Gox8Fa5ld07UWcVUlx5eNoVWTZmzYd4qE0zsIDXbj+X88ReiqA5SaXNMPF+KzSRcIsm5J5z7LuJKUztUzO/CytaDr6vPI7xHiikoVuxYN5aVG7Zi/5gCZqQnMCbTntbY92BNfSMaJ/1yIrx/bgMPzjkyJ3MHVS2eJDHHj5Xov0Xfsx2SVKtg11A4bt1GcSLhL+nmza/paYQlx/57Bqw2bMmnZJpIzklj9Xm8auviy8kgSOkP6Q4X44a5pYx5xW7r3G8EHc+Yxb55xm8m0iNVcu3Uc57835F8j1nDx0kU2hQdj9fdnaNsxjOv5mSbX9KMLcT2eb2BDxNKtJF46ycg29rh1CuJsRhFbpvhhaduaqC9PcvH4Dgb7OfL03+qxM6mQw9FzadWgPYujj5Bw5hDvdLblhXrGdI0dpojsP9ILI9oqCAgCgsBvTeC/IMQKjiyczhvBy8irTjcy5q9d3joJn9DPql3TVahyEnm3V1ccJPY4OHgzfuIyIvr0wq1NELcKMlj5/nt8tPEsxrnFq7RqYrct4c2Jc7mep+Ba3EZsbe2wd3DAmERu238BSWVa1LmJzBkXxrbYq6YgJrU0i6Uzx2BnJ8HeXoK7Vyf2XEg3BS7kfR9NV7/p5Na6pgtYHtiVD0+Zc+iq5MkMCunB7L1XTfdAJ7tD6IhgNpy4iVqazfLpA031Ojg40n76GhbNH4tEMooDR7JIjTNazBIGvfMB507toKffBG7LK0zR1jtmT8ZTYoe9vT3OXv4sj7mCWm8cOM1muk9Xoi/XREZWcXBRJ/oO+pTi+6xIRfZlwkd3RyIx9sv+nm0Ax5Jz2LMyDDtbiZnPsHmsXz8LW7seLP3oFJsnjSDsc/NkJ1XKbOZMG8HwT76hQqtHr8xjxdyJLNh8gDKlgnWhbnT3G0Cgv7uJSpTqIgAACZZJREFUs4eXL6dvF2GoqkKvzmRdaHvsTPfPk+GDB+Lh7sLRNBWyrESmjexlmlTAoU1bekauZ+qkt5HYh3P11h8z7++3fhFFfYLAoxOoQq8rpyArhSsXL5jyjhNuplIgU1EzsZQxgEqrViItKUEqk6OqMAc8PXANgx5ZSQF37tz50ZaRmYfSFPz0QIlHPGC8vpyc/EJzvMkjljKeZgwqMxgMf9jAq1/R1dpT/wtCXHutR9jRmhLQlcpy87laLWpNrTL+dHnjQ1euQCYrRiZToP25VTj0GlRyKYWFhaaArp+u9Fd+o9eiVpQiU5SbhUmvQ6OpRG8a/63CYNCiuzcDoLZ6HUqlzNQeRfl9g7+159Rxx6DHGOUoK1Oh1ZmjJzWa8p9ozy9fS1epolQuQ33f2qDGl0chk1GqVteOI9fWpqtEUVaKXFWd+63XoNFoMYhgrVpEYkcQeBQCBn0l8fsX0NmrNS3snfH0dKdl4xfoMjSSEwm5aKtAXZzCmnnv8Xa/fgwYMpoZi1ZyMVP+QPVV6kKWzhhKvWfq06S5BS1aWNLk5RexauXB9EV7KVL9p/+TDKQeWYN/35EcvWWeVfCBiz/0QBXFyZfZv/0CZcr/9NoPrfixPviYCfFjzUo0ThAQBASB/zkBjeIuQ51ewqXPe+w4+j23km6wZcl4PFq+wKB311JQruCrdwfQoHFzRk6KIHzyGNwavkTn0RtqA0NrOqFXFbA4fBBNOr/F6s3b2bNnN9s2rGFK33a88lwrvrlhXtGp5vxH/6wW4h7DOHrdvKDDo5U1cCU6ApfWU0jNeXKmxxVC/GhPhzhLEBAEBIHHgkBpyn4sLVrz4cHU2ulmNco8Vk8PpPvIcFILUuhra02v+dsoUWlNLuKY+cHYOY4n6z4HY40Qu45ayN2SmsREA3mnV+MpeZH15zNRFGYTd/AgKblmi1pXruB83Lccu5JuGlrUayq4dGgDYSN603vsFDbHXkLLfUKs15B74xyb1n3F5ZQ8dAY9+TdOsig8jFGjprD1m9Mo9FqK0hNYMtCfpo29WLB4O5k1Ew0+FuR/v0YIIf792IqaBQFBQBD4zQmoC7+n3TMv0blfOMcTU5Er1FRqNMilheQUFKMpL2bf5s2cuC5Dr9NSWVHErnB3bF8LJeMnhNh56GxuZpegVqtRyvKJWTUam6a27EsuIv/yYUb07su2U3dNmR8V0jSWTAphxscxKPQGzn4xheaNJXT2G0S/192wataSOUfukGJ0TfcYxrfXCsiO30M3y+a8NSGClCIFOZd2Ym3ZHDdPDwb2d8dB0hyfd3eSeHYPQY6WPPXXf9DRdwgXa0JkfnOKj1eFQogfr/shWiMICAKCwM8S0Osq2fvJKJxbO2DZ5BX+76mWdB0wiZXRe7meVkxNiIymNI/tq2fhbmXF0/XqIVn6HZr7YjJqLGLTGLGFJS1atMDCoinP/vNp6nWZwo2cMvKu7OftwJ5sPJZeLcSpLBgbRMSSfSjKrtOpYXMCh26k2GRQF7LuzW70DtnB9bg1+PcM4qPolXSoX58eQyeRYjxJm0NEK2va+K8gXaFFoy3n4tcRNG8lYX+KkqtbZ9C2+zTSCs3TZ/4sjD/Jl0KI/yQ3UnRDEBAEngwCxlWKdJXlFGYkceTrL5g6aQIhvXpgb2lFh8FRXC8wLw2jU0s5uf8L3nlnIj29HbHoMJ7v8qoDYatR1Qjxy12G8NneGOLi4jgYs4v574/D/pUGDF1+guyfEWJZ+hEsbWz5NL52SkLKctNIycgl+ega/G3NS+A+18iCT86YzVt93hmsrZph1fMdlq1YYdqiZozk+WbWzD2aztWt4SYhviOE+Ml4oEUvBQFBQBD4oxHIvbiJuYuWkF2rqTrk+elEzxtDI6f+bNl/hMh5a0gtrUnT0JJ3bi0NWtjx0ZmaNYzNva4RYtfR944RY0pHnOHrjmWfjWTcL8QlqSwYZbaIZenHsLK1Y+fNHwZzy+XFFBbKzFHT1i3pM3gCgTYv0nvSQjJK9Wiyz2DdsjktgiYQuTCSyEjjNocPFi7lyB2ZEOI/2gMp2isICAKCwJNGIHlHKK/YvsbWC/esE6xXc2zjXJpJ+rFh41patXJg6enMWjSllz8zCfHSMzUz9Zm/qhXiMQu5K60J1gJVTgK9PV6jaUi1EHf2I/rwbdOiEvkJsfRr4mh2TWefokmLVkTsSK6+lpIvQvoxcMheEo1jxD7BHDx/l7Prp/Lsi04s+PQ8avkVvG2s8Jj1LWpNJZWVlcivH+TN3sGcTje6ps0WsXBN194+sSMICAKCgCDwOBEolycS3KQRLzv5MGH5Fg7H7SNq9jgavNSIPmHzSclNZYLrq1i/2paFm3fxVfRSnOxscfYcTHLZjweJa4T4qZauvDV8LGFhkxg3cggervY0atyMNSduU3AtlpGvv8jrASP5bPMXTOzWmPpP2xOx5BAqrZp/D7HD1tWDeRu28ukHQ7FrYUH4/hTuGIU40Jy+pC5JZ95gJ6y6DOZIUg7fRnnQVOLCxOVb2bf9U9o6tcbFYybZFTpubJuNm4WE8MUbyVPfN3vR43QjfsO2iDHi3xCmqEoQEAQEgd+dQJWBktuniRz7Np18fOjo40NnvzcJe28TqQWlpssrUi8wxd8PXx8ffH07ExAwm8TsH9zHtW2slLN78wq6dev2o23A2FnEXsxGp68CnYqErWsZ3tUPPz8/Bk1bxaJZ8/h853mMy/+Wl95i1aQA/Lr40cUvgBnRxhXuDOReimHGouUkZMtNSyymndrH5G7d2Bz7HaoKOVuiwvDr0okuXboQEDCLa7nmsW1FxiUiwobR8199OZdzX5h3bcP/XDtCiP9c91P0RhAQBJ4QAnqdhlJZCYUlxvV7aweMq3tfhU5bgVwqRS5XoDdP8VcHMno0mgrKH7iOuUqDXk+5qhxVhe6RZ8szrsVcrlKgUqke0j4dOt2TYQ0bCQohrsOjKYoKAoKAICAICAJ1JSCEuK4ERXlBQBAQBAQBQaAOBIQQ1wGeKCoICAKCgCAgCNSVgBDiuhIU5QUBQUAQEAQEgToQEEJcB3iiqCAgCAgCgoAgUFcCQojrSlCUFwQEAUFAEBAE6kBACHEd4ImigoAgIAgIAoJAXQkIIa4rQVFeEBAEBAFBQBCoAwEhxHWAJ4oKAoKAICAICAJ1JSCEuK4ERXlBQBAQBAQBQaAOBIQQ1wGeKCoICAKCgCAgCNSVgBDiuhIU5QUBQUAQEAQEgToQEEJcB3iiqCAgCAgCgoAgUFcC/w+gdgEYORzmlgAAAABJRU5ErkJggg==;" vertex="1" parent="1">
          <mxGeometry x="590" y="140" width="482" height="275" as="geometry" />
        </mxCell>
        <mxCell id="DLHE4XkezJhi1BGZX2a6-3" value="" style="shape=flexArrow;endArrow=classic;html=1;" edge="1" parent="1">
          <mxGeometry width="50" height="50" relative="1" as="geometry">
            <mxPoint x="500" y="284" as="sourcePoint" />
            <mxPoint x="570" y="284" as="targetPoint" />
          </mxGeometry>
        </mxCell>
      </root>
    </mxGraphModel>
  </diagram>
</mxfile>
